<?xml version="1.0" encoding="utf-8"?>
<!-- Generator: Adobe Illustrator 26.0.1, SVG Export Plug-In . SVG Version: 6.00 Build 0)  -->
<svg version="1.1" xmlns="http://www.w3.org/2000/svg" xmlns:xlink="http://www.w3.org/1999/xlink" x="0px" y="0px"
	 viewBox="0 0 1240.2 481" style="enable-background:new 0 0 1240.2 481;" xml:space="preserve">
<style type="text/css">
	.st0{display:none;}
	.st1{display:inline;}
	.st2{fill:#FFFFFF;}
</style>
<g id="Layer_2" class="st0">
	<rect x="-51" y="-54.4" class="st1" width="1342.1" height="589.8"/>
</g>
<g id="Layer_1">
	<g>
		<path class="st2" d="M610-55.8c-22.3-0.5-43.7,16.6-51.9,36.6c-8.9,21.5-2.1,44.2,15.2,59.2c17.9,15.5,45.2,21.3,62.8,3
			c0.3,0.1,0.7,0,1-0.2c18.5-11.1,25.1-34.1,19.2-54.3C650.6-31.1,632.2-55.3,610-55.8z M638.1,38.7c-0.4-0.2-0.8-0.1-1.2,0.2
			c-10.1,9.5-23.5,15.2-37.5,12.1c-13.3-2.9-25.9-12.6-33.8-23.5c-16.4-22.7-7.3-53.5,13.9-69.5c9.3-7,20.9-11.9,32.7-10.8
			c13.8,1.3,24.8,12.8,32.3,23.7C659-8,660.3,23.1,638.1,38.7z"/>
		<path class="st2" d="M608.3-44.1c-19.3-2.7-35.8,11.2-42.8,28.3c-3.4,8.4-5.1,17.4-1.7,26.1c3.4,8.8,10.4,16.6,17.1,23.2
			c6.6,6.5,14.8,12.5,24.4,12.9c10.4,0.5,18.6-5.5,26.1-11.9c4.3-0.6,8.3-6.9,10.2-10.1c4.8-8.1,6.1-18,4.4-27.1
			C642.8-20.4,627.3-41.4,608.3-44.1z M643.7,1.7c0.5,5.1-0.2,10.2-1.8,15.1c-1,3-7.3,16.9-11.8,14.9c-1.7-0.8-2.9,1.7-1.3,2.5
			c0,0,0,0,0,0c-7.5,5.3-16.1,10.5-25.4,9.2c-8.8-1.2-16.2-7.4-22.1-13.6c-7.1-7.4-15.5-16.8-16.4-27.5
			c-0.9-10.3,4.5-21.8,10.9-29.6c14.3-17.6,37.3-17.9,52.7-1.8C636.5-20.7,642.5-10.1,643.7,1.7z"/>
		<path class="st2" d="M626-14.9c-0.2-0.1-0.4-0.1-0.6-0.2c-0.4-0.4-0.9-0.6-1.5-0.5c-1.7-0.5-3.3-0.7-5.1-0.7
			c-1.8,0.1-1.6,2.6,0.1,2.8c0.9,0.1,1.6,0.2,2.3,0.3c-4.4,4.4-8.8,8.7-13.1,13.2c-1.5-1.5-3.8-2.3-5.7-1.4
			c-1.4-2.5-3.1-4.8-4.6-7.1c-2.8-4.6-5.7-9.2-8.5-13.8c0.8,0.2,1.6,0.5,2.4,0.7c1.5,0.5,2.3-1.9,0.9-2.6c-1.8-0.8-3.7-1.4-5.6-1.8
			l-0.5-0.8c-0.7-1.1-2-0.7-2.5,0.2c-0.1,0-0.1,0-0.2,0c-0.9-0.1-1.8,0.5-1.8,1.5c0.1,2.5,0.6,4.3,1.7,6.5c0.7,1.5,2.7,0.4,2.7-0.9
			c0-0.6,0.1-1.1,0.1-1.7c2.2,3.5,4.4,7,6.5,10.6c1.9,3.1,5.4,7.2,7.2,11.1c-1,1.5-0.9,2.8-0.3,3.9c0.1,3.9,5.1,7,8.6,3.1
			c1.7-1.9,1.6-4.1,0.7-5.9c3.4-3,6.7-6.1,10-9.2c0.4,0.7,1.4,1,2,0.5c2.3-1.6,3.9-3.5,5.3-5.9C627-13.6,626.7-14.7,626-14.9z"/>
		<path class="st2" d="M616.1,33.3c-3.9,3.2-8.7,4.4-13.6,3.3c-0.9-0.2-1.2,1.1-0.3,1.4c5.2,1.5,10.8,0.4,15-3.1
			C618.1,34.1,617.1,32.5,616.1,33.3z"/>
		<path class="st2" d="M616.1,29.9c-3.4,0.6-6.8,1.7-10.2,2.5c-1,0.2-0.5,1.7,0.5,1.5c3.4-0.8,6.9-1.3,10.2-2.3
			C617.8,31.3,617.2,29.7,616.1,29.9z"/>
	</g>
	<g>
		<path class="st2" d="M479.8-41.4c-13.6,3.1-28,12.8-29.7,27.7C447.9,4.4,467,9,473.4,23.1c0.7,1.5,2.8,0.3,2.2-1.1
			c-4-10.8-16-14.6-21-24.6c-9.1-18.5,12.5-33.7,28.2-36.3c8.8-1.5,18.6,0.5,23.2,8.8c5.2,9.4,0.9,17.9-5.6,25
			c-6.2,6.9-13.2,14.3-10,24.3c-0.2-0.1-0.3-0.1-0.5-0.1c-1.5,0.2-3.1,0.6-4.6,1c0-11.9,2.3-22.5,7.1-33.1c1.8-0.3,3.6-0.8,5.4-1.9
			c1.1-0.7,0.3-2.4-0.9-1.8c-1,0.5-2.1,0.8-3.1,1c0.6-1.1,1.1-2.2,1.7-3.4c0.8-1.4-1.2-2.8-2.2-1.4c-1.1,1.7-2.1,3.5-3.1,5.3
			c-5.3,0.5-10.7-0.2-15.7,2.2c-1,0.5-1.9,1.1-2.8,1.7c-0.9-1.4-1.9-2.8-3-4.1c0.2-0.5,0.1-1.1-0.5-1.4c-0.6-0.4-1.2-0.7-1.8-1.1
			c-1.3-0.8-3,1-1.9,2.2c1.9,1.9,3.6,4.1,5,6.3c-2.2,2-3.9,4.5-5,7.3c-0.3,0.7,0.8,1.2,1.2,0.6c1.4-2.4,3-4.4,4.9-6.1
			c5,9,6.6,19.7,8.4,29.9c-1.2,0.4-2.3,0.8-3.4,1.2c-0.4,0.1-0.5,0.5-0.4,0.8c-0.1,0-0.1-0.1-0.2-0.1c-3,0.1-4.2,3.3-3.1,5.9
			c0.6,1.4,1.7,2.3,2.9,2.7c-1.7,1.2-2,3.3-1,5.3c0.7,1.2,1.7,1.9,2.9,2.2c5.4,6.9,16.2,4.3,18.2-4.2c0.2-0.6-0.2-1.1-0.7-1.3
			c2.1-1.9,3.1-4.1,1.1-6.7c-0.3-0.4-0.7-0.5-1.1-0.4c0.2-0.2,0.3-0.3,0.5-0.5c1.9-2.5,1.6-6.2-1.2-7.7c0.1-0.2,0.1-0.5,0-0.8
			c-3.9-11.9,8.1-18.9,13.9-27.3c3.5-5.1,4.9-11.1,3.4-17.2C507.4-40.3,492.7-44.3,479.8-41.4z M483.8-12.9c1.8-0.1,3.6,0,5.3,0
			c-4.8,10.4-6.7,22.2-5.5,33.4c-1,0.3-2,0.6-3,1c-0.5-10.4-2.6-21.8-7.8-31.1C475.9-11.6,479.6-12.7,483.8-12.9z M478.7,40.6
			c1,0,1.9-0.1,2.8-0.3c2.2-0.4,7.5-2.1,11.1-4.5C490.7,42.1,483.8,44.2,478.7,40.6z M486,36.5c-1.6,0.6-3.2,1.3-4.9,1.6
			c-0.4,0.1-0.8,0.1-1.1,0.2c-3.1,0.7-4.5-0.8-4.2-4.6c0.2-0.2,0.2-0.4,0.2-0.6c1.7,0.3,3.7,0.1,5.3-0.2c3.7-0.7,8.9-1.7,12.1-4.4
			c-0.1,0.3-0.1,0.7,0.2,1.1C495.8,32.7,487.6,35.9,486,36.5z M484.1,29.8c-1.5,0.4-3,0.8-4.5,1.1c-2.1,0.5-4.1,0-5.8-1.5
			c-0.8-1.7-0.4-3,1.3-4.1c0.3-0.1,0.4-0.3,0.4-0.6c0.2,0.1,0.4,0.2,0.6,0.1c1.1-0.2,2.2-0.5,3.3-0.7c0.2,0.7,1.5,0.6,1.5-0.2
			c0,0,0-0.1,0-0.1c1.1-0.2,2.1-0.5,3.2-0.7c0,0,0,0,0,0.1c0.1,0.8,1.4,0.7,1.4-0.1c0-0.1,0-0.2,0-0.3c1.8-0.5,3.6-1.1,5.3-1.8
			c0.4-0.2,0.6-0.5,0.5-0.9c0.1,0.1,0.2,0.1,0.3,0.1c0,0.3,0.1,0.6,0.4,0.9C498.3,25.5,486.6,29.2,484.1,29.8z"/>
	</g>
	<g>
		<path class="st2" d="M102.9,286.6c-0.1,0.2-0.2,0.3-0.2,0.5c-0.2-0.4-0.4-0.7-0.8-0.8c-0.1-0.1-0.1-0.3-0.2-0.4
			c-0.2-0.2-0.4-0.5-0.6-0.7c-0.9-1.1-2.9,0.2-2.1,1.5c-5.2-8.2-21.1-12.5-29.9-16c-6.9-2.7-13.8-5.3-20.3-8.7
			c-2.8-1.5-6.6-5.2-10.1-5.1c-6.8,0.3-14.5,11.7-17.7,16.8c-5.3,8.4-7.9,17.9-8.2,27.7c0,0.1,0,0.2,0.1,0.3
			C6.1,303-1.4,317.4-3.7,322.3c-4.2,9-6.5,19.3-5.1,29.2c0.1,0.4,0.4,0.6,0.7,0.6c0,0.4,0.2,0.8,0.7,1.1
			c19.5,9.3,38.5,19.8,57.8,29.4c0.9,0.4,1.6-0.2,1.7-1c0.2,0,0.3-0.1,0.4-0.2c0.3,0.8,1.5,1.2,2,0.2c7.5-13.4,14.8-26.9,21.9-40.5
			c3.8,3.2,10.4,1.5,12.6-3c2.1-4.3,0-10.2-4-12.8c7.8-10.5,13.6-22.8,19.2-34.7c0.9-0.8,0.9-1.1,1.4-2.9
			C106,286.2,103.7,285,102.9,286.6z M24.8,273c2.6-3.7,6.3-8.7,10.4-11c5.9-3.3,12,2.6,17.3,5c8.7,4,17.8,7,26.6,10.9
			c4.9,2.2,9.8,4.6,14.3,7.6c1.6,1.1,2.9,2.3,4.4,3c-7.1,5.5-12.8,12.8-16.6,21c-2.3,4.9-3.9,10-4.7,15.4c-0.8,5.2-0.5,5.8-2.5,6.6
			c-8.4-7.9-19.2-12-29.9-15.9c-7-2.6-14.1-5-20.7-8.5c-2.4-1.3-5.7-4.6-8.7-5.2c0-0.1,0.1-0.2,0.1-0.3
			C15.7,291.2,18.9,281.4,24.8,273z M50.7,380.1c-17.8-11.4-37.3-20.7-56.6-29.4c-0.4-0.2-0.9-0.2-1.2,0c0.8-10.3,2.2-20,7.1-29.3
			c2.4-4.6,5.4-8.8,8.9-12.6c4.9-5.2,6.1-3.2,11.8-0.1c16.4,9.1,35,12.4,50.2,23.7c-0.1,0.1-0.3,0.1-0.4,0.1
			C53,339,47.9,364,50.7,380.1z M101.3,289.8c-0.1,0.2-0.2,0.4-0.2,0.5c-5.7,11.5-12.4,22.5-17.9,34.1c-0.1,0-0.2-0.1-0.3-0.1
			c-1.4-0.4-2.3,1.5-1,2.4c3,2.1,5.9,4.9,5,9c-0.9,4.3-6.3,5.9-9.7,3.5c-0.2-1.2-1.9-1.9-2.6-0.6c-7.4,13.7-14.7,27.5-21.7,41.3
			c-1.3-9.2-0.3-18.4,3.5-27c3.7-8.4,10.6-18.9,20.9-18.1c0.8,0.1,1.5-0.7,1.5-1.4c0.6-18.1,9.1-33,22.9-44.2
			C101.6,289.3,101.4,289.5,101.3,289.8z"/>
		<path class="st2" d="M46.7,332.6c-7.2,7.4-11.7,16.7-12.9,26.9c-0.1,0.8,1.2,1,1.4,0.2c1.9-9.9,6-18.3,13-25.6
			C49,333.2,47.6,331.6,46.7,332.6z"/>
		<path class="st2" d="M38.7,326c-6.8,8.5-11.3,18.2-13.1,28.9c-0.1,0.8,1,1.2,1.2,0.4c2.3-10.4,6.7-19.7,13.6-27.9
			C41.3,326.2,39.7,324.8,38.7,326z"/>
		<path class="st2" d="M28.2,317.4c-8.4,8.3-12.7,20.6-13.5,32.2c-0.1,0.9,1.3,1,1.5,0c1.4-12.2,6.4-21.4,13.5-31.1
			C30.2,317.7,28.9,316.7,28.2,317.4z"/>
		<path class="st2" d="M41.3,269.2c-2.7-0.8-4.1-1.1-6.3,0.8c-3.1,2.6-4.8,8-6.4,11.6c-2.5,5.6-4.4,11.5-5.7,17.5
			c-0.2,1,1.2,1.4,1.5,0.4c0.1-0.2,0.1-0.4,0.2-0.6c0.1,0.1,0.2,0.2,0.4,0.3c3.1,1.9,6.3,3.6,9.4,5.3c2.1,1.1,4.9,3.6,7.1,3.9
			c1.5,0.2,1.6,0.7,3-0.2c2.3-1.3,4.7-9.3,5.8-11.5c2.9-6.1,5.9-12.2,8.8-18.3c0.4-0.8,0.1-1.6-0.7-1.9
			C52.8,274.3,47.1,271,41.3,269.2z M55.5,279.9c0.3,2.3-4,8.3-5,10.4l-5,10.4c-0.4,0.8-1.7,4.9-2.5,5.2c-1.2,0.4-5-2.2-6.2-2.9
			c-3.6-2-7.1-4-10.8-5.8c-0.4-0.2-0.8-0.2-1.1,0c2.2-7.1,4.9-13.9,8.5-20.5c1.8-3.2,1.4-3.3,5.6-3.8c3.7-0.4,4.2-0.2,7.3,1.2
			C49,275.3,55.1,276.8,55.5,279.9z"/>
		<path class="st2" d="M64,281.8c-6.5,7.4-11.5,16.2-15.2,25.3c-0.3,0.7,1,1.3,1.3,0.6c4.2-9,9.5-16.8,15.5-24.6
			C66.2,282.2,64.7,281,64,281.8z"/>
		<path class="st2" d="M71.2,283.4c-7.2,7.8-12.7,17.6-15.8,27.7c-0.2,0.7,0.8,0.9,1,0.3c4.2-10,9.5-18.4,16.3-26.8
			C73.4,283.8,71.9,282.6,71.2,283.4z"/>
		<path class="st2" d="M80.1,290.5c-0.7,0.1-1.5,0.3-2.2,0.5c-1,0.2-0.9,1.4-0.2,1.8c-5.8,6.3-10.1,13.6-11.9,22.1
			c-0.2,0.8,1,1.2,1.2,0.4c2.8-8.9,7.1-16.5,14.1-22.8C81.9,291.7,81.1,290.3,80.1,290.5z"/>
		<path class="st2" d="M47.1,290.4c-2.8,4-5.3,8.5-7.6,12.8c-0.3,0.5,0.4,0.9,0.7,0.5c2.9-4,5.7-8.3,8.1-12.6
			C48.7,290.3,47.6,289.6,47.1,290.4z"/>
		<path class="st2" d="M43.4,288.1c-1.3,2.9-2.3,5.9-3.4,8.8c-0.3,0.7,0.8,1,1.1,0.3c1.2-2.8,2.6-5.6,3.7-8.5
			C45.1,287.9,43.8,287.3,43.4,288.1z"/>
		<path class="st2" d="M6.8,315.2c-2.9,4.2-5,9.1-5.8,14.2c-0.1,0.4,0.6,0.5,0.7,0.1c1.3-5,3.2-9.4,6.1-13.7
			C8.4,315.1,7.3,314.5,6.8,315.2z"/>
		<path class="st2" d="M11.7,314.3c-2.3,3.8-4.6,7.6-6.8,11.4c-0.4,0.7,0.6,1.3,1,0.6c2.4-3.7,4.8-7.4,7.1-11.2
			C13.6,314.3,12.3,313.4,11.7,314.3z"/>
	</g>
	<g>
		<path class="st2" d="M-57,55.8c4.1,8.4,9.1,16.7,16.2,22.9c15.1,13.2,30.9,10,47.6,2c20.8-10,40.2-23.2,57.2-38.8
			c5.5-5.1,11.3-10.5,11.7-18.4c0.4-7.4-3.6-14.1-7.5-20.2c0.3,0.1,0.7,0.1,1-0.1c8.4-5.1,14-11.1,15.4-18.4
			c0.1-0.1,0.1-0.3,0.1-0.4c0.8-4.6,0-9.8-2.7-15.7c-2.2-4.9-4.9-11.2-10.8-12.3c-4.9-0.9-9.9,1.9-11.3,6.7c0,0.1,0,0.2,0,0.3
			c-5.9-8.6-18.3-11.2-26.9-4.8c-8.5,6.3-9.9,18.1-3.4,26C10.1-3.2-9.4,9.7-29.4,21.6c-0.2,0.1-0.3,0.3-0.5,0.4
			c-5.7-5.1-14.9-6-21.6-2.3c-6.9,3.9-11.4,12.9-7.6,20.3C-62.6,45-59.4,50.8-57,55.8z M82.5-21.3c0.1,1.2,0.1,2.4,0,3.5
			c-1.7-0.3-3.7,0.5-5.3-0.6c-4.5-3.2-0.1-7.9,3.2-10.5C81.6-26.2,82.3-23.5,82.5-21.3z M34.4-38.8c6.9-5.6,16.9-4.1,22.5,2.6
			c4.5,5.4,4.1,11.2,0.8,15.5c-0.5-0.3-1.3-0.3-1.7,0.3c-1.1,1.6-2.4,3-3.9,4.2c-0.6,0.3-1.3,0.6-2,0.9c-0.3,0.1-0.2,0.4,0,0.6
			c-4.7,2.9-10.4,3.4-15.6-0.5C26.6-21.1,27-32.8,34.4-38.8z M-27,25.4c-0.3-0.4-0.6-0.9-0.9-1.3c0.6-0.3,1.2-0.6,1.8-0.9
			c0.3-0.2,0.5-0.4,0.6-0.6C-6.2,11.1,13.1-0.8,31.3-14c0.1,0.1,0.1,0.1,0.2,0.2c7,6.6,18.8,5.6,24.6-1.6c6.9-3.2,8.8-13.3,4.8-20.1
			c-0.1-0.2-0.2-0.3-0.3-0.5c0.3,0.2,0.7,0.1,1-0.2c7.2-9,14.5-2,18.4,6.2c-3.7,2.1-7.2,5.3-6.3,9.9c0.4,1.8,1.4,3.5,3.1,4.4
			c1.4,0.7,4,0,5.5,0.4c-1.6,7.3-7.8,12-14.4,16.2C67.3,1,67.2,1.5,67.3,2c-0.7-0.2-1.6,0.5-1.2,1.3c3.9,7.1,8.8,15.9,6,24.2
			c-2.6,7.5-11.2,13.5-17,18.4C42.9,56.2,29.6,65.3,15.4,73c-13.5,7.3-29,16.6-44.5,9.8c-7.1-3.1-12.7-8.5-17.2-14.6
			c-3.1-4.2-13.3-18.2-10.8-25.3c6,6.9,17.2,7.2,24.9,3.2c0.4-0.2,0.6-0.5,0.7-0.8C-24.9,41.4-22.9,32.1-27,25.4z M-50.8,22.8
			c5.5-3.6,13.2-3.3,18.4,0.8c6.7,5.3,5.9,14.7,0.1,20c-0.3-0.1-0.6-0.1-1,0c-6.9,3.1-16,3.7-21.6-2.5
			C-60.2,35.1-56.8,26.7-50.8,22.8z"/>
		<path class="st2" d="M59.3,33c5.9,0.5,9.5-6,10.3-11c1-6.3-1.4-12.7-6.4-16.6c-0.7-0.6-1.7,0.1-1.8,0.9c-0.2-0.1-0.4-0.1-0.7,0
			c-4.2,1.9-14.2,5.5-12.5,11.4C49.7,22.7,52.9,32.4,59.3,33z M51.2,18.2c-0.8-2.9,0.1-3.8,2.4-5.5c2.5-1.8,5.2-3.3,7.9-4.8
			C61.8,7.7,62,7.5,62,7.2c2.8,2.7,4.7,6.1,5.1,10c0.6,4.8-1.8,14.3-8.3,12.6C54.7,28.8,52.3,22.1,51.2,18.2z"/>
		<path class="st2" d="M31.8,50.6c2.8,1.7,4.9,1.1,7.4-0.8c4.5-3.3,9.1-6.9,13.2-10.7c1-0.9,0-2.3-1.1-2c0.2-0.2,0.2-0.5,0.1-0.8
			c-1.8-6.5-4.9-15-12.8-15.6c-3.4-0.3-6.4,1.3-9,3.3c-2.7,2-7.8,5.4-8.9,8.9C18.9,38.5,27.5,48,31.8,50.6z M24.1,34.1
			c0.8-4.9,9.4-11,14.1-10.7c6.9,0.4,9.3,7.9,11.1,13.5c0.2,0.5,0.7,0.7,1.2,0.6c-3.9,2.8-7.4,6.6-11.5,9.1
			c-1.9,1.2-4.4,1.9-6.8,0.9c-1.3-0.5-2.7-2.6-3.7-3.7C26.1,41.1,23.4,37.7,24.1,34.1z"/>
		<path class="st2" d="M-0.4,63.5c1,2.1,1.8,5.9,4.5,6.4c3.2,0.5,7.5-2.3,10.1-3.8c3.7-2.1,7-4.8,9.9-8c0.5-0.6,0.3-1.3-0.2-1.7
			c0.1-0.2,0.2-0.5,0.1-0.8c-2.7-6.1-7.1-13.2-14.6-13.3c-3.7-0.1-6.1,2-8.6,4.3c-2,1.8-5.7,3.3-5.5,6.4
			C-4.6,56.4-1.8,60.4-0.4,63.5z M-1.1,55.3c-0.4-1.6-0.9-2.4,0.4-4c0.6-0.8,1.9-1.5,2.7-2.2c1.9-1.8,3.8-3.9,6.6-4.3
			c6.9-0.8,10.8,6.3,13.8,11.3c-0.1,0-0.1,0.1-0.2,0.1c-3.9,4-8.2,7.3-13.3,9.4c-1.4,0.6-3.5,1.7-5,0.6c-0.6-0.4-1.1-2.4-1.4-3.1
			C1.3,60.7-0.4,58-1.1,55.3z"/>
		<path class="st2" d="M30.8-0.3c4.4,2.4,10,2.4,14.6,0.5C46,0,45.6-1,44.9-0.8C40.2,0.7,35.8,0.2,31.4-2
			C30.4-2.5,29.8-0.8,30.8-0.3z"/>
	</g>
	<g>
		<path class="st2" d="M142.5,0.2c-10.5,22.5-17.9,46.3-21.6,70.9c-1.8,11.7-3.9,25.7-3.5,39c-0.3-0.2-0.7-0.1-0.8,0.2
			c-3,8.6-4.7,17.5-5.3,26.6c-0.3,4.8-2.6,18.1,1.9,21.2c2.6,1.8,11.6,0.9,14.3-0.4c5.2-2.6,4-12.7,4.2-18c3.2,0.2,6.4-0.4,8.8-2.2
			c0.1-0.1,0.2-0.2,0.3-0.3c0.3,2.1,0.5,4.2,0.7,6.1c0.5,7.1,1.1,14.2,1.9,21.2c-0.6,0.3-1,1.1-0.7,1.8c0.1,0.2,0.1,0.4,0.2,0.5
			c0.1,0.4,0.5,0.7,0.9,0.8c0,0.1,0,0.2,0,0.3c0.1,1.1,1.7,0.9,1.7-0.2c0-0.2,0-0.4,0-0.6c2.6-1.9,2.9-6.7,3.9-9.5
			c2.1-6.4,4.4-12.7,6.3-19.1c1.9,0.5,3.9,0.6,5.8,0.3c0.6-0.1,1.3-0.2,2-0.3c-0.4,6.4-0.6,19.3,4.6,23.4c4,3.1,13.2-1.4,16.7-3.4
			c5.9-3.3,2.2-11.1,1-16.6c-2.6-11.1-6.8-21.5-12.3-31.5c-0.3-0.6-0.9-0.7-1.4-0.5C173.5,72,164.3,33.6,145.1,0
			C144.5-1.1,143-0.7,142.5,0.2z M124.2,155.5c-2.8,0.9-8.3,1-10.1-1.7c-1-1.5-0.3-6.1-0.3-7.7c-0.1-11.6,1.5-23,3.7-34.3
			c0.4,8.8,2.1,17.2,5.8,24.5c-0.3,0.3-0.3,0.9,0.2,1.2c1.6,0.9,3.5,1.6,5.6,2C128.7,144.7,129.4,153.9,124.2,155.5z M151.1,143.2
			c-1.2,3.6-2.4,7.3-3.7,10.9c-0.4,1.3-1.3,5.3-2.3,8.2c-0.3-6.9-0.6-13.7-1.1-20.6c-0.4-5.8-4.6-27,6-25c6.8,1.3,6.4,6,5.3,11.4
			C154.3,133.2,152.7,138.2,151.1,143.2z M166.6,134c-0.3,1.9,2.6,2.4,2.9,0.5c1.1-7,1.8-14,2.2-21c3.1,5.7,5.8,11.6,7.9,17.7
			c2,5.7,5.4,13.9,5.1,20c1.1,2.1,0.6,3.6-1.5,4.6c-1.1,1.5-2.5,2.4-4.3,2.7c-3.3,1.6-7.8,2.4-10.9-0.6c-1.6-1.5-2-7.5-2.4-9.6
			c-0.6-3.2-0.9-6.4-1.2-9.7c1-0.3,2-0.8,2.7-1.5c0.6-0.6,0-1.7-0.8-1.6c-1.8,0.2-3.6,1.3-5.5,1.6c-1.6,0.3-3.2,0.3-4.8,0.3
			c2-6.1,7.3-21,0.1-23.6c-2.8-1-10.8-0.6-13.4,1.1c-2,1.3-2.3,2.8-2.7,5c-1,4.8-0.2,10.8,0.5,16.4c-0.3-0.2-0.6-0.4-1-0.3
			c-2.5,0.6-4.8,1.6-7.4,1.7c-2.2,0.1-4.2-0.3-6.3-0.9c0-0.1,0-0.3-0.1-0.4c-9.1-20.5-4.8-47.4-1.2-68.8c2.3-13.4,5.6-26.6,10-39.4
			c3,1.9,6.9,2.5,10.4,1.8c3.2-0.6,7.1-2.5,8.8-5.4C168,58.9,172.6,96.9,166.6,134z M152.7,22c-0.1,0-0.1,0-0.2,0.1
			c-2.6,2.1-4.4,4.2-7.8,5.1c-3.3,0.9-6.5,0.4-9.6-0.9c2.6-7.5,5.6-14.9,8.9-22.1C147.2,10,150.1,15.9,152.7,22z"/>
		<path class="st2" d="M148.1,43.4c-7.2-1.6-12.9,4.8-15.4,10.7c-0.5,1.3,1.1,2.1,1.9,1.2c-0.6,6,0.5,12.7,6.9,14.7
			c6.7,2.2,13-4.6,14.8-10.4C158.5,53.1,155.3,45.1,148.1,43.4z M154,58c-1.1,4.9-6.1,10.9-11.7,9.5c-6.4-1.6-6.1-10-5.8-15.4
			c1.9-3,4.6-5.6,8.2-6.2C151.4,45,155.3,52.3,154,58z"/>
		<path class="st2" d="M129.4,64c-0.6,4.7,1.6,11.2,6.2,13.3c0.7,0.3,1.7-0.6,1.1-1.3c-1.5-1.7-3.1-3-4.2-5
			c-1.2-2.2-1.6-4.5-1.7-6.9C130.6,63.3,129.5,63.3,129.4,64z"/>
		<path class="st2" d="M127.7,72.5c-0.2,4.2,3.1,8.9,7.3,9.8c1,0.2,1.3-1.2,0.5-1.6c-3.7-2-5.7-4.1-6.8-8.2
			C128.6,71.9,127.7,72,127.7,72.5z"/>
		<path class="st2" d="M161.6,109.3c-0.8-0.6-1.8,0.3-1.3,1.2c0.9,1.6,2.1,2.8,2.7,4.7c0.6,1.9,0.5,3.8,0,5.7
			c-0.2,0.7,0.9,1,1.2,0.4c0.8-2.1,0.9-4.3,0.5-6.4C164.2,112.9,163.3,110.4,161.6,109.3z"/>
		<path class="st2" d="M123,140.6c-0.3,1.6-0.1,3.2-0.3,4.8c-0.3,1.8-0.9,3.4-1.4,5.1c-0.1,0.4,0.4,0.8,0.6,0.4
			c1.8-2.7,3.3-7.2,2.5-10.4C124.2,139.7,123.1,139.9,123,140.6z"/>
		<path class="st2" d="M119.7,139.1c-0.5,2.5-0.6,5.2-0.9,7.8c-0.1,0.7,1,0.9,1.1,0.2c0.5-2.5,1.1-5.1,1.5-7.7
			C121.6,138.3,119.9,138,119.7,139.1z"/>
	</g>
	<g>
		<path class="st2" d="M358.3,145.2c2-15.8,5.3-31.4,9.6-46.7c1-3.6,4.9-10.4,2.7-14.2c-1.8-3.2-7.8-3.7-10.7-4.4
			c-15.8-4.2-31.7-7.9-47.7-11.1c-16-3.2-32.1-6-48.3-8c-2.8-0.3-6.2-1.3-8.7,0.4c-4.3,3-4.6,12.7-5.7,17.2
			c-3.7,15.5-7.1,31.1-10.1,46.7c-1,5.4-5.9,18.1,0.1,22.1c0,0.5,0.3,0.9,0.9,1.1c17.4,4.8,35.8,7.1,53.5,10.5
			c17.9,3.4,35.7,6.8,53.6,10.2c0.3,0.1,0.6,0,0.8-0.1c0.3,0.6,0.9,1,1.7,0.7C358.9,166.3,357.4,152.7,358.3,145.2z M349.1,166.7
			C349.1,166.7,349.1,166.7,349.1,166.7c-0.2-0.3-0.5-0.6-1-0.7c-17.9-3.4-35.7-6.8-53.6-10.1c-17.3-3.3-34.8-7.7-52.4-9.7
			c-0.1,0-0.1-0.1-0.1-0.1c-5-3.2-0.8-14.4,0-18.7c1-5.2,2-10.4,3.1-15.6c2.3-10.9,4.7-21.8,7.3-32.6c1.2-4.9,1.6-14.3,7.7-15.7
			c4.7-1.1,13,1.8,17.8,2.5c11.3,1.7,22.5,3.7,33.7,5.9c10.7,2.1,21.3,4.5,31.9,7c5.6,1.4,12.1,2.2,17.4,4.5
			c9.7,4.1,5.8,8.9,3.7,16.3c-3,10.7-5.4,21.6-7.3,32.6c-0.9,5.2-1.6,10.5-2.3,15.8C354.4,152.7,355.2,164.5,349.1,166.7z"/>
		<path class="st2" d="M361.9,86.7c0.3-0.7,0-1.6-0.9-1.8c-16.4-3.4-32.9-6.2-49.3-9.2c-16.4-2.9-32.9-6.8-49.5-8.4
			c-0.3,0-0.6,0.1-0.8,0.3c-0.7-0.4-1.7-0.2-2,0.8c-6.1,23.2-12.1,47.1-14.7,71c0,0.1,0,0.2,0,0.3c-0.8,0.2-0.9,1.4,0.1,1.7
			c16.7,3.7,33.6,6.3,50.3,9.8c16.7,3.4,33.3,7.6,50,11c0.7,0.1,1.1-0.2,1.4-0.6c0.5,0.3,1.2,0.1,1.3-0.6
			c6.6-23.9,10.9-48.6,16.1-72.9C364.1,86.8,362.7,86.2,361.9,86.7z M257.7,141.3c-2.6-4.3,8.9-2.6,10.4-2.4
			c1.5,0.3,3.8,0.3,4.4,1.8c0.4,1,0,2.1-0.1,3.2C267.5,142.9,262.6,142.1,257.7,141.3C257.7,141.3,257.7,141.3,257.7,141.3z
			 M361.3,87.6c-5.2,24-11.3,48-15.1,72.2c-0.2-0.1-0.3-0.2-0.6-0.3c-16.4-4.6-33.3-7.8-50-11.1c-7-1.4-14.1-2.8-21.2-4.1
			c0.4-2.2,1.8-4.6-0.6-6.1c-2.7-1.8-7.6-1.9-10.7-2.1c-2.3-0.2-5.4-0.4-7,1.7c-0.8,1-0.9,2.3-0.4,3.4c-3.1-0.4-6.2-0.9-9.3-1.2
			c0,0,0,0,0,0c5.2-23.6,9.2-47.3,15.3-70.7c16.1,4.2,32.9,6.2,49.3,9.2c16.4,3,32.8,6.3,49.3,9.2c0.4,0.1,0.7,0,0.9-0.2
			C361.3,87.4,361.3,87.5,361.3,87.6z"/>
		<path class="st2" d="M285.9,115.5c-2.1-0.6-4.3-0.7-6.5-0.7c1.3-1.7,2.4-3.6,3.2-5.6c0.8-2.1,1.9-5.4,0.4-7.4
			c-3-3.9-8.8,0.1-8.4,4.2c0.1,0.9,1.5,1,1.6,0.1c0.2-1.5,1.7-4.2,3.7-3.4c2.3,0.8,0.8,4.4,0.3,5.7c-1.1,2.8-2.8,5.1-5,7.1
			c-0.9,0.8,0,2.4,1.1,2.3c3.1-0.3,6,0,9.1,0.4C287.1,118.3,287.6,115.9,285.9,115.5z"/>
		<path class="st2" d="M305,112.9c-1.2-0.1-2.5-0.2-3.7-0.4c0.1-0.9,0.2-1.9,0.3-2.8c0-0.6-0.9-0.8-1.1-0.2
			c-0.4,0.9-0.7,1.9-0.9,2.9c-1.6-0.1-3.2-0.2-4.7-0.2c-0.8,0-0.8,1.2-0.1,1.4c1.4,0.3,2.9,0.6,4.3,0.8c-0.1,0.3-0.1,0.6-0.2,0.9
			c-0.4,0.2-0.7,0.7-0.6,1.3c0.1,0.3,0.1,0.6,0.1,0.9c0,1.3,2.1,1.4,2.3,0.1c0.1-1,0.3-2,0.4-3c1.2,0.2,2.4,0.3,3.5,0.5
			C306,115.2,306.5,113,305,112.9z"/>
		<path class="st2" d="M324.1,117.9c0.2-3.1-1.9-5.8-4.7-6.8c0.7-1.4,0.6-3.3-0.6-4.6c-2.4-2.7-7.3-2.2-9,1
			c-0.4,0.7,0.7,1.4,1.2,0.8c0.7-1.1,1.8-1.7,3.2-1.7c2.6-0.1,3.3,1.3,2.1,4.1c-1.7,0.2-1.5,2.7,0.2,2.6c2.4-0.2,4.9,1.5,5,4
			c0.1,1.9-1.2,3.1-2.8,3.6c-0.2-0.1-0.4-0.2-0.7-0.2c-0.9,0-1.9,0.1-2.8,0.2c-1.7,0.2-1.7,2.3-0.2,2.8
			C319,125.1,323.8,122.3,324.1,117.9z"/>
		<path class="st2" d="M353.2,89.8c-2.8-0.6-5.8-0.8-8.6-1.2c-0.9-0.1-1.2,1.3-0.3,1.4c2.9,0.5,5.7,1.1,8.6,1.3
			C353.9,91.5,354.3,90,353.2,89.8z"/>
		<path class="st2" d="M353.8,93.2c-2.5-0.2-4.9-0.4-7.4-1c-0.8-0.2-1.3,1.1-0.5,1.4c2.5,0.9,5.1,1.5,7.8,1.5
			C354.7,95.1,354.9,93.3,353.8,93.2z"/>
		<path class="st2" d="M290.2,141.5c-2.8-0.1-5.4-0.1-8.1-0.6c-0.7-0.1-0.9,0.9-0.2,1.1c2.7,0.7,5.6,1.2,8.5,1
			C291.3,142.9,291.2,141.5,290.2,141.5z"/>
		<path class="st2" d="M294,140.4c-2.7-0.4-5.5-0.9-8.2-1.3c-0.8-0.1-1,1-0.2,1.2c2.7,0.6,5.4,1.2,8.1,1.9
			C294.8,142.4,295.1,140.6,294,140.4z"/>
	</g>
	<g>
		<path class="st2" d="M276.2,9.8c11.8,5.6,23.2,12,35.1,17.4c0.3,0.2,0.7,0.1,0.9-0.1c0.1,0.6,0.4,1.1,1.2,1.1
			c13.5,1.2,27,2.4,40.5,3.9c11.8,1.3,25,4.7,36.9,3.7c1,2.2,3.4,3.4,5.9,2.7c1.1-0.3,2-0.9,2.8-1.7c2.3,2.8,6,3.6,9.3,1.9
			c1.5-0.8,2.5-1.8,3.2-3.1c3.2,0.9,8.4,2.6,11.1,0.1c2.2-2.1,1.5-6.6,1.4-9.3c-0.2-3.8-0.5-8.5-3.7-11.2c-3-2.5-7.1-2.5-10.7-2.4
			c-0.5,0-0.8,0.3-0.9,0.6c-2.3-3.9-5.7-6.4-10.9-5c-1-1.2-2.4-2-4.4-1.9c-0.6,0-0.8,0.4-0.9,0.8c-0.1,0-0.1,0-0.2,0
			c-24.7-6.2-50.5-9.3-75.8-12c-0.2-0.2-0.5-0.2-0.8-0.2c-0.3,0.1-0.6,0.2-1,0.3c-0.1-0.1-0.1-0.1-0.2-0.2c-0.8-0.6-1.6,0-1.8,0.7
			c-12.4,3.3-24.7,7.2-36.9,11.2C275,7.7,275.2,9.3,276.2,9.8z M390.5,34.6c-11.1-3.9-24.7-3.9-36.3-5.2
			c-13.1-1.5-26.1-2.8-39.2-3.8c1.6-2.3,1.4-5.4-0.1-7.7c24.5,5.6,50.8,7.8,75.7,9.3c0.2,0,0.3,0,0.5-0.1c-0.1,2.4-0.1,4.8-0.1,7.2
			C390.8,34.3,390.6,34.4,390.5,34.6z M319.1,13.2c0.3-2.2-0.9-4-2.5-5.4c24.4,5.2,49.5,7.8,74.2,11.1c0.2,0,0.4,0,0.6-0.1
			c-0.1,2.2-0.2,4.4-0.3,6.6c-0.1,0-0.2-0.1-0.3-0.1c-24.9-2.7-49.9-6.6-74.8-8.7C317.6,16.1,318.8,15.4,319.1,13.2z M410.3,15.2
			c2.3,0,5-0.1,7.2,0.9c3.7,1.7,4.4,5.6,4.7,9.2c0.3,2.9,0.7,5.8-1.2,8.1c-1.6,2-2.6,1.6-5,1.5c-1.2,0-2.3-0.1-3.5-0.2
			c0.7-1.8,0.9-3.9,0.7-6c-0.3-3.9-1.2-9.3-3.2-13.5C410.1,15.2,410.2,15.2,410.3,15.2z M410.3,24.6c0.4,1.9,0.8,3.8,0.8,5.7
			c-0.2,6.6-5.6,9.2-11,6c1.3-1.7,1.9-4,2.1-6.1c0.3-5.6-0.9-12.4-2.1-17.9c-0.1-0.6-0.3-1.3-0.6-1.8C407.1,9,409.1,18.9,410.3,24.6
			z M399.4,24.4c0.3,2.1,0.7,4.2,0.5,6.3c-0.4,3.8-4.7,7.4-7.5,5c0.1-0.1,0.1-0.2,0.2-0.3c1.9-8.5,1.9-17.8,1.7-26.5
			C398.8,9.1,399,21.5,399.4,24.4z M391.8,9.1c-0.1,2.6-0.2,5.1-0.3,7.7c-0.1-0.1-0.3-0.1-0.4-0.1c-24.7-3.4-49.6-7.8-74.4-10
			c1.7-2.4,1.6-5.7,0.3-8.4C342.2,0.9,366.9,5.5,391.8,9.1z M314.4-1.7c1.9,2.3,1.6,5.7,0.1,8.2c-1-0.1-1.9,1.3-0.8,2.1
			c1.9,1.3,5,4.3,1.4,6.2c-1,0.5-2.2,0.7-3.2,1.3c-0.6,0.4-0.6,1.4,0,1.8c2.6,1.8,2.8,5.1,1.3,7.6c-0.3,0.1-0.5,0.3-0.7,0.5
			c-0.1-0.1-0.1-0.3-0.3-0.4c-6.4-4.1-13.1-7.6-19.9-11c2.2-2.6,2-6.7,0.1-9.5C299.8,2.8,307.1,0.6,314.4-1.7z M290.1,5.8
			c2,2.5,2.1,5.3,0.8,8.2c-3.5-1.7-7.1-3.4-10.6-5.1C283.5,7.8,286.8,6.8,290.1,5.8z"/>
		<path class="st2" d="M301.3,17.6c2.3,0.8,4.6,1.4,6.8,2.5c0.4,0.2,0.8-0.5,0.4-0.7c-2.1-1.2-4.5-2.5-6.9-3
			C301,16.3,300.7,17.4,301.3,17.6z"/>
		<path class="st2" d="M299.1,14.5c1.7,1.2,3.9,2.1,6,2.4c0.6,0.1,0.9-0.8,0.3-1.1c-1.9-0.7-3.6-1.5-5.3-2.6
			C299.2,12.7,298.3,13.9,299.1,14.5z"/>
		<path class="st2" d="M374.7,9.9c3.2,1.2,7.4,1.5,10.8,1.2c0.6,0,0.6-0.9,0-1c-1.8-0.2-3.5-0.3-5.3-0.6c-1.8-0.3-3.4-0.8-5.2-1.1
			C374.2,8.3,373.9,9.6,374.7,9.9z"/>
		<path class="st2" d="M373.4,12.1c1.3,0.2,2.6,0.2,3.9,0.4c1.3,0.2,2.6,0.4,3.9,0.6c0.5,0.1,0.7-0.6,0.2-0.8
			c-2.4-0.8-5.3-1.6-7.9-1.6C372.7,10.7,372.5,11.9,373.4,12.1z"/>
		<path class="st2" d="M403.5,14.7c1.7,3,3.1,5.7,3.8,9.1c0.1,0.6,1.1,0.5,1-0.1c-0.5-3.4-1.5-6.9-3.5-9.7
			C404.3,13.4,403.1,14,403.5,14.7z"/>
		<path class="st2" d="M401.9,15.1c1.2,2,2.1,3.9,2.7,6.1c0.1,0.5,0.9,0.3,0.8-0.2c-0.5-2.3-1.2-4.7-2.5-6.7
			C402.4,13.7,401.5,14.5,401.9,15.1z"/>
		<path class="st2" d="M417.2,24.3c0.1,2.1,0.5,4.2,0.8,6.3c0.1,0.7,1.1,0.5,1-0.1c-0.1-1.7-0.1-3.5-0.2-5.2
			c0.2,1.2,0.7,2.4,0.9,3.7c0.2,1.3,0.2,2.6,0.3,3.9c0,0.6,0.9,0.6,1,0c0.4-2.4,0.3-5.9-0.9-8.1c-0.3-0.6-1.4-0.5-1.4,0.2
			c0-0.3,0-0.6-0.1-0.9C418.6,23.1,417.1,23.3,417.2,24.3z"/>
	</g>
	<g>
		<path class="st2" d="M189,195.2c-22.3-3-45.3,9.6-55.1,29.8c-9.9,20.4-6.4,45.9,8.5,63c17.9,20.6,49.4,28.2,73.2,14.4
			c0.4,0.7,1.2,1.1,2,0.5c19.4-13.8,29.4-37.7,23.8-61.2C235.6,217.4,213.6,198.5,189,195.2z M191.7,199c15,2.7,29.1,11.3,38.2,24.2
			c1.5,2.1,2.7,4.2,3.9,6.3c-1,3.7-1,5.2-3.9,8.1c-2.9,2.9-4.1,2.8-7.7,1.4c-3.7-1.4-6.6-4-9.9-6.2c-2.4-1.5-5.5-2.8-7.2-0.5
			c-0.2-0.1-0.5,0-0.8,0.1c-6.5,4.5,6.8,7.6,8.1,8.6c2.6,2.2,2.5,6.4,5.9,7.8c3.3,1.3,8.9-0.1,12.5-0.9c0,0.1,0,0.2,0,0.4
			c1.1,6.2-1,11.8-3,17.5c-2.4,6.8-8.3,27.9-19.7,17c-6.7-6.4-4.2-16.9-13.5-21.1c-0.2-0.7-1.1-1.4-1.8-0.8
			c-1.6,1.1-3.4,2.4-5.2,3.1c-3.9,1.5-5.5,1.6-8.7-1.2c-3-2.6-3.1-3.4-2.4-7.1c0.5-2.7,1.7-5.4,3.4-7.6c4.5-5.9,11.7-8.2,18.1-11.3
			c0.1,0,0.2-0.1,0.2-0.2c0,0,0.1,0,0.1,0c0.1,0,0.2,0,0.3-0.1c0.8-0.2,0.8-1.1,0.3-1.6c-0.3-0.4-0.2-1.4-0.6-1.9
			c-0.4-0.5-0.9-0.7-1.5-1c-1.8-0.7-4-1-5.9-1c-3.3-0.1-6.1,1.2-7.5,4.1c-0.2-0.5-0.8-0.8-1.5-0.4c-1.7,0.9-3.1,2.5-5.2,2.6
			c-1.8,0-3.5-1.3-3.9-3.1c-0.4-1.8,0.6-3.7,2.1-4.6c1.9-1.1,4.2-0.5,5.9,0.7c0.4,0.3,1,0,1.1-0.4c0.7-0.1,1.3-0.8,1.1-1.5
			c-1.6-5.1,5.5-7.1,6.7-11.7c1-1.1-0.2-2.9-1.6-2c-2.1,1.5-3.8,0.8-5.1-1.9c0-1.1,0.3-2.1,0.8-3.1c0.5-1.3,1.2-2.6,1.9-3.9
			C187.2,203.2,189.2,200.9,191.7,199z M135.3,229.6c2.5,3.6,3.7,7.1,2.6,11.8c-0.1,0.3,0.1,0.6,0.3,0.8c-0.6,0.5-0.8,1.7,0.1,2.3
			c2.2,1.4,6.1,1.3,8,2.9c0.6,2.2,1.2,4.5,1.8,6.7c-1,1.4-2.2,2.5-3.7,3.4c-1,0.8-2.1,1.5-2.8,2.6c-3.4,4.9,2.6,12.4-3.9,15.8
			C130,261.5,129.4,244.3,135.3,229.6z M146.1,287.8c1.7,0.4,5.2,2.1,6.7,2c1.9-0.1,3.5-1.5,5.3-1.7c3.4-0.3,6,1.4,8.8,2.2
			c3.1,0.9,5.4,1,8.7,1.1c2.5-0.3,5,0,7.4,0.9l2.1,7.2c0,2.1-1.7,4.2-2.5,6.3C168.9,304.2,155.8,298.1,146.1,287.8z M217.4,299.3
			c-10.3,5.4-21.8,7.5-33,6.6c1.1-1.6,2.9-5.4,3-5.8c0.6-2.2,1.1-4.6,0.2-6.7c-1.9-4.4-7-4.9-11.1-4.8c-2.9,0-5.3,0.5-8.2-0.8
			c-1.4-0.6-2.5-1.9-4-2.5c-1.9-0.7-3.4-0.8-5.3-0.4c-1.5,0.3-2.8,1.2-4.3,1.5c-2.3,0.4-4.7-1.2-6.7-1.2c-1.9,0-1.9-0.6-3.7,0.5
			c0,0-0.1,0.1-0.1,0.1c-2-2.4-3.9-5-5.5-7.8c-0.1-0.1-0.2-0.3-0.3-0.5c2.7-1,4.5-3.1,4.8-6.1c0.2-1.9-0.6-3.8-0.5-5.7
			c0.3-5.5,4.6-5.7,7.1-9.2c1.8-2.5,2.5-5.9,0.8-8.6c-2.3-3.8-7.6-3.6-11.1-5.5c-0.1,0-0.1,0-0.2-0.1c0,0,0.1-0.1,0.1-0.1
			c1.9-4.8,1-11.4-3-15.1c1-2.1,2.1-4.1,3.3-6c0.8,5.3,9,11.9,13.7,7.3c1.4-1.4,1.9-3.3,2-5.2c0.1-1.4-0.7-3.7-0.3-5
			c0.5-1.5,2.3-2.4,3.3-3.5c2.8-2.9,3.6-7.5-0.2-9.9c-1.2-0.8-2.2,1-1.3,2c0,1.9,0,3.8,0,5.7c-0.6,0.7-1.3,1.3-2.1,1.8
			c-0.4,0.4-0.9,0.6-1.3,1c-0.7,0.9-1,1.4-1.1,2.6c-0.1,2,1.4,6.2-0.1,7.7l-5.7,1.1c-0.7-0.4-1.3-0.9-2-1.3c-1.6-1.4-4-4.8-2.9-7.2
			c3.4-4.6,7.7-8.7,12.7-12c10.5-6.8,22.7-9,34.4-7.6c-1.6,1.2-3,2.8-4.2,4.5c-1.7,2.5-3.9,5.7-4.4,8.8c-0.6,3.9,2.9,6.9,6.3,6.4
			c-0.6,0.6-1.2,1.3-1.9,1.9c-1.3,1.1-2.8,2-3.7,3.5c-0.9,1.4-1.3,3.1-0.9,4.6c-4-2.5-9.9,0.2-9.9,5.4c0,2.7,1.9,5.2,4.4,6
			c2.8,0.9,6.4-0.5,8.2-2.8c0.2,0.5,0.9,0.7,1.3,0c1.6-2.9,4.1-3.8,7.3-3.4c2.1,0.2,4.5,0.5,5.3,2.6c0,0,0,0,0,0.1
			c-11.7,2.6-23.7,10.1-23.4,23.5c0.3,11.8,13.7,8.9,20.3,3.6c8.5,5.6,6.5,17.2,13.9,23.6c3.6,3.1,8.6,4.2,12.5,1.2
			c5.2-4,7.2-12.8,9.3-18.7c2.5-7,5.5-14.1,3.5-21.5c-0.1-0.4-0.4-0.6-0.6-0.7c-0.1-0.3-0.3-0.6-0.7-0.6c-2.9,0-5.8,0.3-8.7,0.5
			c-3.9,0.3-5.3-2.8-7.2-5.6c-0.9-1.2-2-2.3-3.2-3.1c-0.9-0.5-6.6-2.2-7-3.7c0.1-0.1,0.2-0.2,0.3-0.3c1.9-3.4,10.8,4.6,12.8,5.8
			c2.6,1.5,5.3,2.6,8.3,2.7c5.6,0.1,8.1-4.4,8.9-9.2C245.3,256.6,237.7,283.8,217.4,299.3z"/>
		<path class="st2" d="M213.8,210.4c-0.7-0.2-1.2,1-0.4,1.2c0.7,0.3,8.3,3.6,7.7,4.5c-0.6,0.9,0.5,1.9,1.3,1.2
			C225.6,214.3,215.4,210.8,213.8,210.4z"/>
		<path class="st2" d="M215.7,214c-0.7-0.2-1.1,0.9-0.4,1.2c2.3,1.1,3.8,2.6,5,4.8c0.5,0.9,2,0.2,1.6-0.7
			C220.7,216.7,218.4,214.7,215.7,214z"/>
		<path class="st2" d="M204,298.3c-1.4,0.6-2.8,1.4-4.3,1.8c-1.7,0.5-3.3,0.6-5,0.6c-0.6,0-0.7,1-0.1,1.1c3.3,0.5,7.4-0.1,10.1-2
			C205.5,299.3,204.9,297.9,204,298.3z"/>
		<path class="st2" d="M204.4,295.7c-1.1,0.2-2.2,0.6-3.2,0.9c-1.1,0.3-2.2,0.5-3.2,1c-0.4,0.2-0.4,0.8,0.1,0.8
			c1.1,0,2.1-0.3,3.2-0.5c1.2-0.2,2.4-0.4,3.5-0.7C205.9,297,205.4,295.5,204.4,295.7z"/>
		<path class="st2" d="M153.7,252.4c-0.2,1.2,0,2.4-0.4,3.7c-0.3,1.3-1,2.5-1.8,3.6c-0.5,0.7,0.4,1.5,1,0.9c1.9-1.9,3.6-5.5,2.9-8.3
			C155.2,251.4,153.8,251.5,153.7,252.4z"/>
		<path class="st2" d="M158.8,250.5c-0.6,2.6-1.4,4.8-2.8,7.1c-0.4,0.7,0.7,1.4,1.1,0.8c1.7-2.2,3.1-4.7,3.6-7.4
			C161,249.6,159.1,249.2,158.8,250.5z"/>
	</g>
	<g>
		<path class="st2" d="M64.5,150.7c-3-12.5-5.5-25.1-8.8-37.6c-0.2-0.7-0.7-1-1.2-1c-0.2-0.6-0.8-1-1.6-0.8
			c-33.2,7.7-66.5,14.5-100,20.5c-0.8,0.1-1.2,0.9-1.1,1.7c1.8,15.7,4.2,31.3,7.3,46.7c1.4,7.2,2.8,14.5,4.8,21.6
			c1,3.6,2,6.5,4.9,8.7c-0.2,0.4,0.1,0.9,0.5,0.9c7.6,0,15.3-2.5,22.7-4.1c4.7-1,9.4-2,14.2-3c0.1,3.7-0.3,7.2-2.2,10.5
			c-2,3.4-4.8,5.1-7.8,7.3c-0.5,0.4-0.5,1-0.2,1.5c-0.1,0-0.2,0.1-0.3,0.3c-0.4,1.8-0.3,3.9,0.3,5.6c-0.1,0.4,0.2,0.9,0.7,0.8
			c0.1,0,0.2,0,0.3,0c0.1,0,0.2,0,0.3,0c18.4-1.7,36.8-6.4,54.6-11.1c0.6-0.2,1-0.7,0.9-1.3c-0.4-2.2-0.3-1.8-1.2-3.9
			c-0.1-0.3-0.4-0.5-0.6-0.6c0.4-0.8,0.1-1.9-1-1.9c-3.8,0.1-7.1-4.2-9.1-7c-1.5-2.2-2.6-4.5-3.5-6.9c11.5-2.4,23-4.8,34.5-7.1
			c0.8-0.2,1.2-0.8,1.1-1.5c0.2-0.2,0.3-0.5,0.2-0.8C71.1,175.6,67.4,163.2,64.5,150.7z M-36.8,185.8c-1.5-7.2-2.9-14.4-4.1-21.7
			c-1.1-6.2-2-12.5-2.9-18.7c-0.5-3.8-2.5-8.6,0.6-11.4c1.5-1.4,7.8-1.4,9.7-1.8c29-5.3,57.9-11.3,86.6-18
			c3.3,18.4,7.3,37.5,12.5,55.9C32,178-2.2,183.8-35.9,191.4C-36.2,189.3-36.5,187.4-36.8,185.8z M49.6,215.1
			c1.1,3.6-22.4,7.7-25.5,8.4c-8.7,1.9-17.6,3.3-26.3,5.3c-0.4-1.3-0.6-2.5-0.9-3.8C14.6,223.2,32.5,219.7,49.6,215.1z M40.5,208.1
			c1.6,2,3.7,4.3,6.2,5.4c-15.4,3.2-30.8,6.2-46.2,9.3c5.9-3.6,9.3-12.6,7.4-18.9c3.8-0.8,7.6-1.6,11.4-2.4
			c5.5-1.2,10.9-2.3,16.4-3.4C36.3,201.7,38.1,205.2,40.5,208.1z M18.6,198.6c-8.5,1.8-17,3.6-25.5,5.5c-7.2,1.6-15,2.5-21.9,5.3
			c0,0-0.1-0.1-0.1-0.1c-4-3-5.6-9.7-6.6-15.8c34.3-4.4,68.4-12.6,102-20.4c1.4,5,3,9.9,4.6,14.7C53.6,191.3,36.1,194.9,18.6,198.6z
			"/>
		<path class="st2" d="M21.4,188.2c-1.7-1.8-5.7-2.3-7.1,0.1c-1.4,1.4-1.9,3.6-1,5.5c1.3,2.6,4.9,3.5,7.3,1.9
			C22.9,194,23.4,190.3,21.4,188.2z M19.4,193.6c-1.2,1.1-3.3,0.5-4-0.8c-0.6-0.9-0.4-2,0.1-2.8c0,0,0,0,0,0
			c1.2-0.6,2.5-1.3,3.8-0.4C20.6,190.5,20.5,192.5,19.4,193.6z"/>
		<path class="st2" d="M48.4,123c-0.3-1.1-1.6-1.1-2.2-0.5c-0.2-0.5-0.6-0.9-1.3-0.7c-27.7,5.9-55.6,11.3-83,18.2
			c-0.1,0-0.2,0.1-0.3,0.2c-0.5,0.2-0.9,0.6-0.8,1.2c0.3,3.4,1.7,6.1,2.4,9.4c0.8,3.6,0.5,7.4,1.2,11c0.7,3.8,1.6,7.4,1.8,11.3
			c0.2,3.9,0,5.4,1.6,8.7c-0.3,0.5,0.1,1.3,0.8,1.2c29.4-5.2,58.6-11.4,88-16.9c0.7-0.1,1-0.8,0.8-1.3c0.5,0.2,1.1,0,1-0.6
			C57.6,150,52.5,136.3,48.4,123z M-31.5,181.2c-0.1-7-0.7-13-1.9-20c-0.6-3.2-0.4-6.6-1-9.8c-0.6-3.5-2.2-6.6-2.6-10.1
			c27.6-5,55-11.4,82.5-17.3c0.3-0.1,0.5-0.2,0.6-0.4c4,13.3,8.3,26.5,10.9,40.2c-0.2-0.1-0.5-0.2-0.8-0.2
			C26.9,168.6-2.6,174-31.5,181.2z"/>
		<path class="st2" d="M47.9,170.8c-3.5,0.4-7.1,1.5-10.5,2.4c-0.5,0.1-0.3,0.8,0.2,0.7c3.5-0.5,7.2-1,10.6-2
			C49,171.8,48.7,170.7,47.9,170.8z"/>
		<path class="st2" d="M48.3,168.6c-2.5,0.3-5,1.1-7.3,2.1c-0.6,0.3-0.1,1.1,0.5,0.9c2.3-0.8,4.7-1.3,7.1-1.7
			C49.5,169.8,49.2,168.5,48.3,168.6z"/>
		<path class="st2" d="M25.6,190.9c0.3,1.3,0,2.6-1.3,3.3c-0.5,0.3-0.1,1,0.4,0.8c1.6-0.7,2.7-2.6,2.2-4.3
			C26.6,189.9,25.4,190.1,25.6,190.9z"/>
		<path class="st2" d="M29.8,190.5c-0.3-0.9-1.7-0.6-1.4,0.3c0.3,1.1,0.2,2.1-0.8,2.8c-0.5,0.3-0.1,1,0.4,0.8
			C29.4,193.7,30.3,192,29.8,190.5z"/>
		<path class="st2" d="M17.2,216.5c-2.8,0.7-5.7,1.3-8.5,2.1c-0.4,0.1-0.3,0.7,0.1,0.7c2.9-0.3,5.7-0.9,8.6-1.4
			C18.3,217.7,18,216.3,17.2,216.5z"/>
		<path class="st2" d="M17.5,214c-2,0.5-4,1-6.1,1.4c-0.5,0.1-0.3,0.9,0.2,0.8c2-0.4,4.1-0.7,6.1-1.1C18.5,215,18.2,213.8,17.5,214z
			"/>
	</g>
	<g>
		<g>
			<path class="st2" d="M219.5-66.6c-0.1,0.1-0.2,0.2-0.3,0.3c-11.2,1.4-22.3,3.5-33.3,5.7c-0.4,0.1-0.7,0.4-0.8,0.7
				c-1.3,1-1.9,2.9-1.7,4.4c0.3,1.8,1.5,3.1,3.1,3.5c-0.4,0.5-0.1,1.4,0.7,1.3c2,0,4.1-0.2,6.1-0.3c1.6,21.6,6.5,43.4,10.2,64.7
				c1.4,8.5,6,25.8,18.1,18.9c9-0.1,4.5-19.5,3.8-24.3c-3-20.7-6.1-41.4-9.1-62c1.9-0.3,3.7-0.5,5.6-0.8c0.8-0.1,1.1-0.7,1.1-1.3
				C228.4-57.8,224.8-69.8,219.5-66.6z M202-19c0.3,0.2,0.7,0.2,1.2,0c2.3-1.4,4.5-2.7,7.1-3.5c1.6-0.4,9.8-2.1,5.8,1.9
				c-1.3,1.4-5.3,1.7-7.1,1.9c-0.7,0.1-5.3,0.1-7.3,0.3c0-0.1,0-0.3-0.1-0.4C201.7-18.8,201.8-18.9,202-19z M214.8-25.5
				c-4.6,0.1-9.5,1.7-13,4.8c-0.3,0.3-0.4,0.6-0.4,0.9c-0.2,0.2-0.4,0.4-0.5,0.5c-0.1,0.1-0.1,0.2,0,0.3c0,0-0.1,0-0.1,0
				c-1.7-10.7-3.3-21.5-6.1-32c6.4-0.5,12.8-1.3,19.2-2.2c1.4,9.3,2.7,18.6,4.1,28C217-25.5,215.8-25.5,214.8-25.5z M218.7,30.9
				c-0.5-0.1-0.8,0.4-0.7,0.8c-12.8,0.5-14.5-34.7-15.8-42.5c-0.4-2.1-0.7-4.2-1-6.3c2.2,1.3,7.8,0.5,9.4,0.2
				c2.2-0.3,6.2-0.9,8.3-2.7l0.9,5.9c0.9,6.4,1.9,12.8,2.8,19.3C223.2,9.6,228.8,32.3,218.7,30.9z M221.8-57c-0.1,0-0.2,0-0.3,0
				c-10.9,1.3-22.2,2.2-32.9,4.5c0-0.2-0.1-0.5-0.4-0.5c-1.2-0.4-2.4-1.4-2.5-2.7c-0.1-1.4,0.9-2,1.6-3c11.1-1.7,22.2-3.3,33.3-5
				c0.4-0.1,0.7-0.3,0.9-0.6c1,0.6,1.4,2.4,1.6,3.5C223.4-59.3,223.1-57.8,221.8-57z"/>
			<path class="st2" d="M213.7,26.9c-0.8-0.8-1.8-1.4-2.3-2.4c-0.6-1-0.8-2.2-0.9-3.3c0-0.4-0.6-0.4-0.7-0.1
				c-0.7,2.3,0.4,6.2,3.1,6.9C213.5,28.2,214.3,27.5,213.7,26.9z"/>
			<path class="st2" d="M216.4,26.3c-1.7-0.8-2.8-1.7-3.1-3.7c-0.1-0.6-1-0.6-1.1,0c-0.4,2.3,1.5,5.1,3.9,5.3
				C216.9,27.9,217.3,26.7,216.4,26.3z"/>
		</g>
	</g>
	<g>
		<path class="st2" d="M1145.9,347.9c-17.3-14.1-44.7-13.6-63.5-2.9c-20.2,11.6-28.7,33.7-24.3,56.1c4.6,23.2,22.7,44.5,47.8,40.9
			c0.2,0.3,0.5,0.4,0.9,0.5c21.4,2.6,40.7-11.6,48.4-31.1C1162.8,392.3,1163.2,361.9,1145.9,347.9z M1110.2,439.7
			c-0.2-0.3-0.6-0.6-1.1-0.5c-13.8,1.3-27.9-2.4-37.1-13.4c-8.7-10.4-12.8-25.8-12.3-39.3c0.9-28,27-46.8,53.6-46.4
			c11.6,0.2,23.8,3.4,32.4,11.5c10.1,9.5,11.8,25.3,11,38.5C1155.4,415.7,1137.4,441.1,1110.2,439.7z"/>
		<path class="st2" d="M1137.4,356.1c-13.6-14-35.2-13.1-51.2-3.8c-7.9,4.6-14.7,10.7-17.3,19.6c-2.7,9.1-1.9,19.5-0.7,28.8
			c1.2,9.2,4.1,18.9,11.4,25.2c7.9,6.7,18.1,7.1,27.9,6.6c3.7,2.2,10.8-0.4,14.2-1.7c8.7-3.5,15.9-10.4,20.1-18.7
			C1150.2,395.9,1150.8,369.8,1137.4,356.1z M1137.3,414c-2.7,4.3-6.4,8-10.7,10.8c-2.6,1.7-16.2,8.9-18.4,4.5
			c-0.8-1.6-3.4-0.5-2.6,1.2c0,0,0,0,0,0c-9.2-0.4-19.1-1.6-25.7-8.3c-6.2-6.4-8.2-15.8-9.1-24.3c-1.1-10.2-1.9-22.7,3.9-31.8
			c5.6-8.7,16.9-14.4,26.7-16.7c22.1-5.2,40.5,8.7,42.7,30.9C1145.3,391.9,1143.6,404,1137.3,414z"/>
		<path class="st2" d="M1133.6,390c-0.1-0.2-0.2-0.4-0.3-0.5c0-0.5-0.3-1-0.9-1.3c-1-1.4-2.2-2.6-3.7-3.7c-1.5-1.1-2.9,1.1-1.6,2.3
			c0.6,0.6,1.2,1.1,1.7,1.7c-6.2,0.7-12.3,1.5-18.5,2.4c-0.3-2.1-1.6-4.1-3.7-4.6c0.4-2.8,0.5-5.7,0.8-8.4
			c0.6-5.4,1.2-10.8,1.7-16.2c0.5,0.7,1,1.3,1.5,2c0.9,1.3,3-0.1,2.3-1.5c-1-1.8-2.1-3.3-3.3-4.8l0.1-0.9c0.1-1.3-1.1-1.8-2.1-1.4
			c0-0.1-0.1-0.1-0.1-0.2c-0.7-0.7-1.8-0.7-2.3,0.1c-1.4,2-2.1,3.7-2.6,6.2c-0.3,1.6,1.8,2,2.7,1c0.4-0.4,0.7-0.8,1.1-1.3
			c-0.4,4.1-0.9,8.2-1.3,12.4c-0.4,3.6-0.2,9-1.1,13.2c-1.7,0.6-2.5,1.7-2.6,2.9c-2.3,3.2-0.3,8.6,4.9,7.7c2.5-0.4,3.8-2.2,4.2-4.2
			c4.5-0.3,9-0.7,13.5-1.2c-0.1,0.8,0.5,1.6,1.3,1.7c2.8,0.1,5.2-0.4,7.8-1.4C1133.5,391.7,1133.9,390.6,1133.6,390z"/>
		<path class="st2" d="M1096.2,422c-5.1,0.1-9.5-1.9-12.8-5.7c-0.6-0.7-1.6,0.2-1.1,0.9c3.2,4.3,8.3,6.9,13.7,6.8
			C1097.2,423.9,1097.4,422,1096.2,422z"/>
		<path class="st2" d="M1098.3,419.4c-3.1-1.6-6.4-2.8-9.6-4.2c-0.9-0.4-1.4,1-0.5,1.4c3.1,1.5,6.3,3.2,9.5,4.5
			C1098.7,421.5,1099.2,419.9,1098.3,419.4z"/>
		<path class="st2" d="M1135.5,365.3c-1.7-4.6-6.4-8-11.2-8.5c-1-0.1-1.1,1.4-0.1,1.6c4.5,0.8,7.7,3.6,9.5,7.7
			C1134.2,367.4,1136,366.5,1135.5,365.3z"/>
	</g>
	<g>
		<path class="st2" d="M1211.1,149.4c-5.9-4-12.9-3.1-18.2,1.6c-1.3,1.2-2.7,2.6-3.9,4.2c-11-16.3-30.2-26.4-49.8-27.3
			c-23-1-42.4,11.8-57.6,28c-15.1,16-25.1,35.2-23.3,57.7c2,24.4,16.3,46.3,35.3,61.1c-5.7,2.3-10.1,7.9-8.8,14.5
			c0.9,4.5,4.8,7,9.2,6.9c4.7-0.1,8.7-3.2,11.4-7c2.6,5,9.7,7.6,14.9,5c4.4-2.2,6.5-7.5,5.5-12.1c4.7,1.4,10.9-0.7,13.4-4.8
			c3-4.7,1.7-11-2.3-14.5c11.3-1.3,15.7-16.1,6.6-23.6c-7.1-5.9-16.1-2.7-20.2,3.9c-6.3-6.7-13.3-13.3-17-21.8
			c-4.8-11.1-2.3-23,4.3-32.7c6.5-9.5,16.3-16.5,28.2-15.9c10.9,0.5,19.4,6.6,26.9,13.8c-0.8,0.5-1.6,1-2.2,1.8
			c-3,3.3-3.4,8.5-2.2,12.7c1.3,4.5,5.4,6.5,9.8,5.4c3.6-0.9,6.1-3.7,8-6.9c2.5,5.7,9.9,4.3,13.9,0.5c2-2,3.9-4.8,3.1-7.7
			c-0.1-0.2-0.1-0.4-0.2-0.6c4.8-0.3,9.8-2.8,11.2-7.6c0.9-3.1,0.1-6.5-2.1-8.7C1217.1,173.5,1222.1,156.7,1211.1,149.4z
			 M1061.5,215.6c-2.6-23.4,8-43.2,24-59.5c14.6-15,33.1-26.6,54.7-25.2c19.2,1.2,36.2,11.2,47.1,26.8c-1.7,2.9-2.8,6.1-2.4,9.3
			c-2.3-2.5-6-3.3-9.3-2.2c0.4-0.5,0.5-1.2,0-1.8c-21.5-25.4-62.1-25.9-83.8-0.5c-22.1,26-26.4,75.5,7.2,94.1
			c-2.4,5.4-1.6,11.8,1.2,17c-1.4-0.1-2.9,0-4.3,0.3c0-0.2-0.1-0.4-0.3-0.6C1078.6,257.8,1064.1,239.1,1061.5,215.6z M1107.7,248.5
			c-2.1,0.8-4.1,2-5.8,3.7c-0.8,0.8-1.4,1.6-2,2.5c-29.4-20.4-28.3-63.4-6.6-89.5c20.4-24.6,59.2-24.8,79.9-0.3
			c0.3,0.3,0.5,0.4,0.8,0.5c-0.9,0.5-1.8,1.1-2.5,1.9c-0.7,0.7-1.2,1.5-1.7,2.2c-19-21.2-52.4-15.5-69.2,5.8
			C1083.3,197.4,1086.1,230.2,1107.7,248.5z M1127.8,241.3c3.8-3,9.3-3.6,13.3-0.8c9.1,6.3,4.2,18.9-6.1,19.5c-0.6,0-1,0.5-1.1,1
			c-0.4,0.3-0.6,1-0.1,1.4c4,2.8,6,8.4,3.4,12.9c-3,5.1-8.7,4.5-13.2,2.4c-0.3-0.4-0.6-0.8-1-1.1c-0.5-0.5-1.5,0.3-1.1,0.9
			c-0.4,0.4-0.6,1-0.2,1.6c0.4,0.6,0.9,1,1.5,1.4c1.2,4.2,0.1,9.2-4.4,11.1c-4.8,2.1-9.5-1.1-11.6-5.4c0.3-0.6,0.6-1.2,0.9-1.8
			c0.6-1.3-1.3-2-2.1-1.1c-2.9,3.2-5,7.6-9.3,9.2c-5.1,1.9-9.9-1.4-9-6.9c1-6.4,7.8-10.4,13.9-9.7c0.2,0.1,0.4,0.1,0.6,0.1
			c0.1,0,0.1,0,0.2,0c1.1,0.2,1.4-1.5,0.4-1.8c0,0,0,0-0.1,0c-2.9-5.6-3.9-12.7-0.2-18.2c4.1-6.1,13.3-7.4,18.6-2.2
			c1.3,1.3,3.5-0.5,2.2-1.8c0,0-0.1-0.1-0.1-0.1C1123.3,247.8,1124.4,244,1127.8,241.3z M1110.7,183.7c-6.8,8.5-11.1,19.8-9.2,30.7
			c2.2,12.4,11.8,22.2,21.1,30.1c-0.8,1.7-1.3,3.6-1.3,5.6c-3.5-2.4-7.9-3.1-12-2.1c0-0.2,0-0.4-0.2-0.6c-18-18.3-23-45.7-8.1-67.6
			c15.5-22.8,48.5-29.1,67.8-7.5c-1.1,4.5,0.5,9.5,3.4,13.3c-1.1-0.4-2.3-0.5-3.4-0.3C1153,166.8,1126.7,163.8,1110.7,183.7z
			 M1201.6,172.4c-0.7,0-1.2,0.4-1.3,0.9c-0.3,0.4-0.3,1,0.1,1.3c0.2,0.3,0.5,0.5,1,0.6c0.2,0,0.3,0,0.5,0c2.9,1.6,4.1,5.6,2.5,8.7
			c-2.3,4.5-7.5,4.9-11.9,4.8c-0.2,0-0.3,0-0.5,0.1c-0.1,0-0.1,0-0.2,0c-0.4,0-0.6,0.4-0.5,0.8c-0.3,0.6-0.2,1.4,0.7,1.6
			c0.6,0.1,1.2,0.2,1.9,0.3c1.2,2.1-1.2,5.5-3,6.9c-2.5,2-7.9,3.8-9.2-0.6c-0.2-0.5-0.6-0.8-1-1c0.2-0.4,0.4-0.7,0.5-1.1
			c0.7-1.4-1.7-2.7-2.5-1.3c-1.4,2.5-2.7,5.3-5,7.3c-3.3,2.8-8.1,2.6-9.5-2c-1.3-4.3-0.1-9.6,3.5-11.7c0.9,0.7,2.1,0.1,2.2-0.8
			c0.9-0.2,1.9-0.2,2.9,0c0.2,0,0.4-0.1,0.6-0.3c0.8,0.3,1.6-0.6,1.1-1.5c-2.7-4.1-4.7-9.1-2.5-13.9c2.3-4.9,9.1-6.5,11.9-1.1
			c0.6,1.1,1.8,0.9,2.3,0.2c0.7,0.3,1.6-0.4,1.3-1.2c-1.3-3.8-0.1-8,2.3-11.5c0,0,0-0.1,0.1-0.1c4.5-6.3,13.2-10.4,19.6-6.1
			C1219.8,158.7,1212.8,172.5,1201.6,172.4z"/>
		<path class="st2" d="M1104.2,258.1c-2.6,5.2-1.1,11.9,2.3,16.2c0.5,0.6,1.3-0.1,0.9-0.8c-3.1-4.7-3.1-9.6-1.7-14.9
			C1106.1,257.7,1104.7,257.2,1104.2,258.1z"/>
		<path class="st2" d="M1109.2,257c-2.8,2.8-3.2,7.3-1.4,10.8c0.3,0.6,1.3,0.2,1-0.5c-1.4-3.3-0.6-6.5,1.5-9.3
			C1110.8,257.4,1109.8,256.4,1109.2,257z"/>
		<path class="st2" d="M1198.5,156.9c-0.4,0.4,0,1.1,0.5,0.8c2.8-1.6,5.9-0.8,7.7,1.8c0.6,0.9,2.1-0.1,1.6-1
			C1206.5,155.1,1201.2,154.1,1198.5,156.9z"/>
		<path class="st2" d="M1143.1,138.7c-5.6-2.8-12.4-2.7-18.1-0.2c-0.7,0.3-0.2,1.3,0.5,1c5.7-2.2,11.5-1.8,17,0.8
			C1143.5,140.8,1144.1,139.2,1143.1,138.7z"/>
		<path class="st2" d="M1147.6,135c-3.3-1.4-7.1-2-10.6-1.9c-0.6,0-0.7,0.9-0.1,1c3.6,0.2,6.8,1.1,10.2,2.3
			C1148,136.7,1148.4,135.4,1147.6,135z"/>
		<path class="st2" d="M1088.6,226.5c0.4,5.1,2.3,10,5.9,13.7c0.3,0.4,0.9-0.1,0.6-0.5c-2.9-4-4.7-8.3-4.9-13.2
			C1090.2,225.2,1088.5,225.3,1088.6,226.5z"/>
	</g>
	<g>
		<path class="st2" d="M1106.9,477.7c-11.5-7.9-28.3-12-40.5-3.2c-14.8,10.7-5.3,27.8-11.4,42.1c-0.6,1.5,1.6,2.3,2.4,0.9
			c5.2-10.2-0.1-21.7,4-32.1c7.5-19.1,33.3-13.6,45.8-3.8c7,5.5,12.2,14.1,9.2,23.1c-3.4,10.2-12.6,12.7-22.2,12.8
			c-9.3,0-19.4,0-24.6,9c-0.1-0.1-0.1-0.3-0.3-0.4c-1.2-1-2.5-1.9-3.9-2.7c8.8-8,18.1-13.5,29.2-17.1c1.4,1.2,3,2.1,5,2.7
			c1.3,0.3,1.9-1.4,0.7-1.9c-1-0.4-2-1-2.9-1.6c1.2-0.3,2.4-0.7,3.7-1c1.6-0.4,1.2-2.8-0.4-2.5c-2,0.3-4,0.8-6,1.3
			c-3.9-3.6-7-8-12.2-10.1c-1-0.4-2.1-0.7-3.2-1c0.4-1.7,0.8-3.3,1-5c0.5-0.2,0.8-0.7,0.7-1.3c-0.1-0.7-0.3-1.4-0.4-2.1
			c-0.3-1.5-2.8-1.6-2.8,0.1c-0.1,2.7-0.6,5.4-1.3,7.9c-2.9-0.2-5.9,0.2-8.8,1.2c-0.7,0.2-0.4,1.4,0.4,1.2c2.7-0.6,5.3-0.8,7.8-0.5
			c-3.3,9.8-10.1,18.2-16.4,26.4c-1.1-0.6-2.2-1.1-3.2-1.7c-0.4-0.2-0.7,0-0.9,0.3c0-0.1,0-0.1-0.1-0.2c-2.1-2.2-5.2-0.9-6.4,1.7
			c-0.7,1.4-0.6,2.8,0,4c-2-0.4-3.9,0.8-4.5,2.8c-0.4,1.3-0.2,2.5,0.3,3.6c-1.5,8.7,7.7,14.9,15.4,10.6c0.6-0.3,0.7-0.9,0.5-1.4
			c2.8,0.3,5.1-0.5,5.7-3.7c0.1-0.5-0.1-0.9-0.5-1c0.2,0,0.5,0,0.7,0c3.1-0.3,5.7-3,4.9-6.1c0.2-0.1,0.4-0.3,0.6-0.6
			c6.2-10.9,19.4-6.8,29.6-8.2c6.2-0.9,11.5-3.9,15-9.1C1124.8,498.9,1117.9,485.3,1106.9,477.7z M1088.6,500
			c1.3,1.3,2.4,2.7,3.6,3.9c-10.9,3.5-20.8,10-28.3,18.5c-0.9-0.5-1.8-1-2.8-1.5c7.4-7.4,14.4-16.6,17.6-26.8
			C1082.4,495,1085.7,497,1088.6,500z M1045.8,532.3c0.6,0.7,1.4,1.4,2.1,1.9c1.8,1.4,6.6,4.2,10.8,5.2
			C1052.8,542.2,1046.6,538.5,1045.8,532.3z M1053.7,534.9c-1.5-0.7-3.1-1.5-4.5-2.5c-0.3-0.2-0.6-0.5-0.9-0.7
			c-2.7-1.8-2.5-3.9,0.6-6.2c0.3,0,0.5-0.1,0.6-0.3c1,1.5,2.4,2.8,3.7,3.8c3,2.3,7.3,5.5,11.4,6c-0.3,0.1-0.6,0.4-0.7,0.9
			C1063.1,539.6,1055.3,535.7,1053.7,534.9z M1057.3,529c-1.3-0.8-2.7-1.7-3.9-2.6c-1.8-1.2-2.8-3-2.8-5.3c0.7-1.7,1.9-2.4,3.9-1.8
			c0.2,0.1,0.5,0.1,0.7-0.1c0,0.2,0.1,0.4,0.3,0.5c0.9,0.6,1.8,1.3,2.7,2c-0.4,0.7,0.5,1.5,1.1,0.9c0,0,0.1-0.1,0.1-0.1
			c0.9,0.6,1.8,1.3,2.7,1.9c0,0,0,0,0,0c-0.5,0.6,0.4,1.5,1,1c0.1-0.1,0.2-0.1,0.2-0.2c1.6,1,3.2,1.9,4.9,2.7c0.4,0.2,0.8,0.1,1-0.2
			c0,0.1,0.1,0.2,0.1,0.3c-0.2,0.2-0.4,0.5-0.3,0.9C1070.2,536.6,1059.5,530.4,1057.3,529z"/>
	</g>
	<g>
		<path class="st2" d="M992.6,384.5c-3.9-0.7-6.7,2-7.9,5.3c-1.5,2.2-0.9,5.5,1.3,7.3c3.4,2.7,8.1,0.3,10.1-3
			C998.2,390.4,997.4,385.3,992.6,384.5z M994,392.8c-1.1,1.8-3.4,3.6-5.6,3c-1-0.2-1.8-1-2.3-2c0.1-0.2,0.2-0.3,0.3-0.6
			c0.4-2.7,1.6-6.3,4.9-6.4C994.8,386.7,995.5,390.2,994,392.8z"/>
		<path class="st2" d="M1028.9,265.2c-8.1-4.8-16.8-9-26.1-10.3c-19.8-2.7-31.3,8.5-40.9,24.4c-11.9,19.8-21,41.4-26.6,63.8
			c-1.8,7.3-3.7,14.9,0.3,21.8c3.7,6.5,10.8,9.9,17.3,12.8c-0.3,0.1-0.6,0.3-0.8,0.6c-4.2,8.9-5.6,16.9-2.8,23.9
			c0,0.2,0.1,0.3,0.2,0.4c1.9,4.3,5.3,8.2,10.8,11.7c4.6,2.9,10.2,6.7,15.8,4.4c4.5-1.9,7.3-7,5.8-11.7c0-0.1-0.1-0.2-0.2-0.3
			c9.7,3.9,21.5-0.7,25.2-10.7c3.6-9.9-1.6-20.5-11.4-23.6c9.8-21.2,19-42.6,29.1-63.6c0.1-0.2,0.1-0.4,0.2-0.6
			c7.6,1.1,15.8-3.1,19.3-9.9c3.7-7,2.4-17-4.8-21.2C1039.5,271.1,1033.6,268,1028.9,265.2z M954.5,406.1c-0.8-1-1.4-2-1.9-2.9
			c1.6-0.7,2.8-2.5,4.8-2.4c5.6,0.2,4.4,6.6,3.1,10.6C958,409.7,955.9,407.8,954.5,406.1z M1004.3,394.4
			c-2.7,8.4-11.9,12.7-20.2,10.1c-6.7-2.1-9.6-7.1-9.2-12.6c0.6,0,1.3-0.4,1.3-1.2c0-1.9,0.4-3.8,0.9-5.6c0.4-0.6,0.7-1.2,1.2-1.8
			c0.2-0.2-0.1-0.5-0.3-0.5c2.3-5,6.9-8.6,13.3-8.1C1001.1,375.3,1007.2,385.3,1004.3,394.4z M1020.4,307c0.5,0.2,0.9,0.4,1.4,0.6
			c-0.3,0.6-0.7,1.1-1,1.7c-0.2,0.3-0.2,0.6-0.2,0.9c-9.8,20.3-19.4,40.8-27.3,61.8c-0.1,0-0.2,0-0.3-0.1
			c-9.4-1.7-18.7,5.6-19.7,14.9c-4,6.4-0.1,15.9,7,19.5c0.2,0.1,0.4,0.2,0.6,0.2c-0.3,0-0.6,0.3-0.7,0.7
			c-1.1,11.5-11.1,9.6-18.7,4.9c1.9-3.7,3.1-8.4-0.2-11.7c-1.3-1.3-3.1-2.2-5-2c-1.5,0.2-3.4,2.2-4.9,2.7c-2.7-7,0-14.3,3.1-21.4
			c0.2-0.5,0.1-1-0.3-1.4c0.7-0.2,1-1.3,0.3-1.7c-7.1-3.8-16.1-8.5-18.2-16.9c-1.9-7.7,1.9-17.4,4.1-24.7
			c4.6-15.4,10.7-30.4,18.3-44.5c7.3-13.5,15.2-29.7,31.8-32.6c7.6-1.3,15.3,0.1,22.4,2.8c4.8,1.8,21.1,7.9,22.9,15.2
			c-8.8-2.5-18.3,3.4-22.6,11c-0.2,0.4-0.2,0.8-0.1,1.1C1010,294.8,1013.4,303.7,1020.4,307z M1041.8,296.2c-2.6,6-9.2,10-15.8,9.4
			c-8.5-0.7-13-9.1-11-16.7c0.3-0.1,0.6-0.2,0.8-0.6c4.1-6.3,11.4-11.8,19.4-9.7C1043,280.7,1044.7,289.6,1041.8,296.2z"/>
		<path class="st2" d="M1029.5,287c-3.9-0.1-6.4,4.2-6.6,7.6c-0.1,1.3,1.7,1.5,2.1,0.4c0,0,0-0.1,0.1-0.1c0.6,1.2,1.6,2.3,2.9,2.7
			c3,0.9,6.3-1.4,6.8-4.4C1035.4,290,1032.6,287.1,1029.5,287z M1032.7,292.3c0,1.9-2,3.5-3.8,3.2c-1.9-0.3-2.7-2.1-2.7-3.8
			c0.5-1.1,1.2-2,2.4-2.3C1030.4,288.9,1032.6,290.4,1032.7,292.3z"/>
		<path class="st2" d="M944.1,348c-5.2,2.8-4.7,10.3-2.6,14.9c2.6,5.8,8.2,9.8,14.5,10.4c0.9,0.1,1.3-1,1-1.7c0.2,0,0.4-0.2,0.6-0.4
			c2.5-3.9,8.8-12.4,4.2-16.4C957.8,351.3,949.8,345,944.1,348z M959,355.9c2.3,2,2,3.2,1,5.9c-1.1,2.9-2.5,5.6-3.9,8.3
			c-0.2,0.3-0.1,0.6,0,0.8c-3.8-0.8-7.3-2.6-9.8-5.6c-3.1-3.7-6.4-12.9,0-15.1C950.3,349,956,353.3,959,355.9z"/>
		<path class="st2" d="M957.5,318.2c-3.2,0.1-4.7,1.8-5.7,4.7c-1.9,5.3-3.8,10.8-5.2,16.2c-0.3,1.3,1.3,2,2,1.1
			c0,0.3,0.1,0.5,0.3,0.7c5.1,4.5,12.3,9.8,19.3,6.1c3-1.6,4.6-4.6,5.7-7.7c1.1-3.2,3.5-8.8,2.5-12.3
			C974.9,321.2,962.5,318.1,957.5,318.2z M973,327.7c2,4.5-1.8,14.3-5.9,16.7c-6,3.4-12.1-1.5-16.7-5.2c-0.4-0.4-1-0.2-1.3,0.2
			c1.8-4.5,2.6-9.6,4.7-13.9c1-2,2.7-4,5.2-4.5c1.3-0.3,3.7,0.7,5.1,1.1C967.5,323.1,971.5,324.4,973,327.7z"/>
		<path class="st2" d="M977.4,289.7c-2-1.3-4.7-4-7.3-2.8c-2.9,1.3-5,6-6.4,8.7c-1.9,3.8-3.2,7.8-3.9,12.1c-0.1,0.7,0.5,1.2,1.1,1.4
			c0,0.3,0.1,0.5,0.4,0.7c5.6,3.7,13.2,7.1,19.5,3.1c3.1-2,4-5,4.8-8.4c0.6-2.6,2.9-5.8,1.1-8.3
			C984.8,293.3,980.2,291.5,977.4,289.7z M982.5,296.2c1.2,1.1,2.1,1.5,1.8,3.5c-0.1,1-0.8,2.3-1,3.3c-0.6,2.6-1,5.4-3.2,7.2
			c-5.3,4.4-12.5,0.6-17.8-1.8c0-0.1,0.1-0.1,0.1-0.2c1-5.5,2.9-10.6,6-15.2c0.9-1.3,2-3.3,3.8-3.2c0.7,0,2.3,1.4,2.9,1.9
			C977.5,293,980.4,294.4,982.5,296.2z"/>
		<path class="st2" d="M981.6,269.3c-2.1,1.5-12.5,11.3-5.4,13c0.4,0.1,0.7,0,1-0.2c4.9,3.1,9.6,9.1,15.2,3.6
			c2.3-2.3,3.5-5.6,4.4-8.6c0.9-2.9,3.6-8.2,1.4-11C994.5,261.5,985,266.8,981.6,269.3z M996.1,269.8c-0.2,0.5-0.3,1.1-0.5,1.6
			c0,1.3-0.8,2.9-1.1,4.1c-1.4,4.9-3.8,11.9-10.3,9.3c-2.5-1-4.3-3-6.6-4.4c-0.1-0.2-0.2-0.3-0.4-0.4c-3.4-1.6,7.5-9.8,8.8-10.5
			c1.5-0.8,4.9-2.8,6.8-2.4C993.9,268.1,995,268.9,996.1,269.8z"/>
		<path class="st2" d="M1020.6,273c-4.4-0.1-8.8,4.2-10.3,8c-0.2,0.6,0.7,1,1,0.5c1.1-1.9,2.4-3.5,4.2-4.8c1.7-1.2,3.6-1.5,5.5-2.2
			C1021.7,274.2,1021.4,273.1,1020.6,273z"/>
		<path class="st2" d="M1020.5,268.8c-3.7-0.8-7.5,2-8.8,5.3c-0.3,0.6,0.8,1.1,1.1,0.5c0.7-1.3,1.7-2.5,3.1-3.2
			c1.4-0.8,2.8-0.8,4.3-0.8C1021.2,270.6,1021.6,269.1,1020.5,268.8z"/>
		<path class="st2" d="M982.5,367.7c-4.6,1.5-8.4,4.4-11.2,8.3c-0.4,0.5,0.5,1.1,0.9,0.5c2.8-3.6,6.4-6,10.7-7.4
			C983.7,368.9,983.4,367.4,982.5,367.7z"/>
		<path class="st2" d="M986.2,360.2c-5,0.5-9.7,3.4-12.5,7.6c-0.4,0.6,0.5,1.1,0.9,0.6c3.1-3.8,7.1-5.7,11.9-6.4
			C987.8,361.8,987.4,360.1,986.2,360.2z"/>
	</g>
	<g>
		<path class="st2" d="M1323.9,316.9c-20.3-14.3-42.4-25.8-66-33.9c-11.2-3.8-24.6-8.4-37.8-10.3c0.2-0.2,0.3-0.7-0.1-0.8
			c-7.9-4.5-16.4-7.7-25.2-9.9c-4.7-1.2-17.3-5.8-21.3-1.8c-2.3,2.3-3,11.3-2.2,14.1c1.6,5.6,11.8,6.2,17,7.3
			c-0.7,3.1-0.7,6.4,0.6,9c0.1,0.1,0.1,0.2,0.2,0.3c-2.1-0.1-4.2-0.2-6.1-0.4c-7.1-0.8-14.1-1.4-21.2-1.9c-0.2-0.7-0.9-1.2-1.6-1
			c-0.2,0-0.4,0.1-0.6,0.1c-0.4,0.1-0.8,0.3-1,0.7c-0.1,0-0.2,0-0.3,0c-1.1-0.1-1.2,1.6-0.1,1.7c0.2,0,0.4,0.1,0.6,0.1
			c1.4,2.9,6.1,4.1,8.7,5.5c5.9,3.2,11.7,6.6,17.7,9.6c-0.8,1.7-1.3,3.7-1.3,5.6c0,0.6,0,1.3,0,2c-6.2-1.5-18.9-4.1-23.9,0.4
			c-3.8,3.4-1,13.3,0.4,17.1c2.2,6.4,10.6,4.2,16.1,3.9c11.3-0.6,22.4-2.8,33.1-6.5c0.7-0.2,0.8-0.8,0.7-1.3
			c37.5,8.4,76.9,6.1,113.5-6.9C1324.8,319.1,1324.8,317.5,1323.9,316.9z M1174.3,271.5c-0.4-2.9,0.5-8.4,3.5-9.7
			c1.6-0.7,6.1,0.8,7.6,1c11.4,1.9,22.3,5.6,33.1,9.7c-8.7-1.1-17.3-1-25.2,1.4c-0.3-0.4-0.8-0.5-1.2,0c-1.2,1.4-2.2,3.2-3,5.2
			C1184.1,277.8,1174.9,276.8,1174.3,271.5z M1181.7,300c-3.4-1.8-6.7-3.7-10.1-5.5c-1.2-0.7-5-2.2-7.7-3.7
			c6.8,0.9,13.6,1.8,20.4,2.6c5.8,0.7,27.4,0.2,23.6,10.3c-2.5,6.5-7,5.2-12.2,3.2C1190.9,305,1186.3,302.5,1181.7,300z M1188,317
			c-1.8-0.6-2.8,2.2-1,2.8c6.7,2.3,13.5,4.3,20.3,5.9c-6.2,2-12.4,3.6-18.8,4.7c-6,1-14.6,2.9-20.6,1.5c-2.2,0.7-3.7-0.1-4.2-2.3
			c-1.3-1.3-1.9-2.9-1.9-4.7c-1-3.6-0.9-8.1,2.5-10.6c1.7-1.3,7.7-0.6,9.9-0.6c3.3,0,6.5,0.3,9.8,0.5c0.1,1.1,0.4,2.1,1,2.9
			c0.5,0.7,1.6,0.3,1.7-0.5c0.2-1.8-0.6-3.8-0.6-5.7c0-1.6,0.3-3.2,0.6-4.8c5.7,3,19.4,10.9,23.2,4.3c1.5-2.6,2.5-10.6,1.3-13.4
			c-1-2.2-2.3-2.7-4.5-3.6c-4.6-1.8-10.6-2.1-16.2-2.4c0.3-0.2,0.5-0.6,0.4-1c-0.1-2.6-0.7-5-0.3-7.6c0.3-2.2,1-4.1,1.9-6
			c0.1,0,0.3,0,0.4,0c21.7-5.3,47.5,3.6,67.9,10.9c12.8,4.6,25.1,10.2,37,16.8c-2.5,2.6-3.7,6.3-3.6,9.9c0.1,3.2,1.2,7.4,3.8,9.7
			C1261.6,331.6,1223.4,329.4,1188,317z M1300.7,323.1c0-0.1,0-0.1-0.1-0.2c-1.6-2.9-3.4-5.1-3.6-8.6c-0.3-3.4,0.7-6.5,2.6-9.3
			c6.9,3.9,13.7,8.1,20.2,12.7C1313.5,319.8,1307.1,321.6,1300.7,323.1z"/>
		<path class="st2" d="M1213.2,316.4c0.7-0.7,0-1.9-1-1.5c-1.8,0.6-3.2,1.6-5.1,1.8c-1.9,0.2-3.9-0.2-5.6-1
			c-0.6-0.3-1.2,0.7-0.6,1.1c1.9,1.1,4,1.7,6.3,1.6C1209.1,318.3,1211.8,317.8,1213.2,316.4z"/>
		<path class="st2" d="M1189.2,272.9c-1.5-0.6-3.1-0.6-4.7-1.2c-1.7-0.6-3.2-1.4-4.8-2.3c-0.3-0.2-0.8,0.2-0.5,0.5
			c2.3,2.2,6.5,4.5,9.8,4.3C1189.8,274.2,1189.8,273.1,1189.2,272.9z"/>
		<path class="st2" d="M1191.3,269.9c-2.4-0.9-5-1.6-7.5-2.3c-0.7-0.2-1.1,0.8-0.4,1.1c2.4,1,4.8,2,7.3,2.8
			C1191.7,271.9,1192.3,270.3,1191.3,269.9z"/>
	</g>
	<g>
		<path class="st2" d="M1230,38.7c0-1-1.5-1.2-1.6-0.1c-0.3,3.1-0.7,6.2-1.2,9.4c-13,0.9-21.4,14.6-22.4,26.5
			c-1.3,16.9,11.2,29.3,24.2,38c1.2,0.8,2.8-0.5,2.2-1.8c-0.1-0.2-0.1-0.3-0.2-0.5c2.8-14.5,16.8-24.8,17.7-39.9
			c0.6-11.3-7.8-21.9-19.2-22.4C1229.7,44.8,1229.9,41.8,1230,38.7z M1207.6,75.8c0.4-10.7,8.3-23.7,19.1-25
			c-2.9,18.9-6.9,38.1-0.3,56.2C1216.3,99.5,1207.1,89.2,1207.6,75.8z M1235.5,52.3c16.2,7.3,9.5,25.2,2.6,36.2
			c-3.5,5.6-6.9,11-8.9,17.2c-6.2-17.7-2-36.5,0-54.9C1231.2,50.8,1233.3,51.3,1235.5,52.3z"/>
		<path class="st2" d="M1213.1,62.7c-3.2,4.2-4.7,9.9-3.5,15.1c0.1,0.5,0.9,0.5,0.9,0c-0.1-5.2,1-9.7,4-14
			C1215.3,62.8,1213.8,61.8,1213.1,62.7z"/>
		<path class="st2" d="M1218.9,59.8c-1.8,4-3.4,8.1-5.6,12c-0.4,0.7,0.6,1.5,1.1,0.8c2.4-3.8,4.7-7.9,6.1-12.1
			C1220.9,59.3,1219.4,58.8,1218.9,59.8z"/>
	</g>
	<g>
		<path class="st2" d="M1190.9,32.7c7.8-14.4,3.2-35.7-10.9-44.9c-14.3-9.3-34.4-1.5-43.1,11.9c-8.8,13.7-5.7,34.8,8.1,44
			c0.1,0.3,0.3,0.6,0.6,0.8C1161.5,53.6,1182,49.1,1190.9,32.7z M1138.3,3.2c7-13,25.5-21.4,39.2-13.5c13.5,7.8,18,28.1,10.9,41.4
			c-8,15-26.7,19.1-41.2,10.8c-0.3-0.2-0.6-0.2-0.9-0.2C1136.4,31.4,1130.8,17.1,1138.3,3.2z"/>
		<path class="st2" d="M1124.3,97.3c0.6,0,1.1-0.3,1.4-0.9c4.1-10.6,14.5-18.8,17.5-29.8c0.6-0.4,0.9-1.4,0.2-2
			c-0.4-0.5-0.9-0.9-1.4-1.4c0.6-1.2,1-2.5,1.5-3.8c0.6-1.5,1.4-3.1,1.9-4.7c17.1,7.4,38.5,3.6,50.4-11.6
			c13.1-16.8,11.5-40.9-2.9-56.2c-7.8-8.3-18.6-14.3-30.1-14.7c-12.4-0.5-21.9,5.5-29.8,14.5c-8.4,9.5-13.2,19.5-11.6,32.5
			c1.5,12.2,7.3,24.7,16.6,32.9c-0.5,0.8-1,1.7-1.6,2.5c-0.6,0.9-1.3,1.9-1.7,2.9c-0.5-0.3-1.1-0.5-1.7-0.5c-0.3,0-0.5,0.1-0.6,0.4
			c-0.2-0.2-0.6-0.2-0.8,0.1c-8.6,8.9-14.5,20.8-19.3,32.1c-0.1,0.3-0.1,0.5,0,0.8c-0.6,3.4,1.4,6.8,4.6,8.1
			C1118.3,99,1123.6,99.3,1124.3,97.3z M1139.8,48.2c-0.7-0.5-1.4-0.2-1.8,0.3c-6.3-8.1-11.5-16.5-13.4-26.9
			c-2.4-13,1.8-23.1,10.4-32.8c8.6-9.7,19.5-15.6,32.8-13.1c9.7,1.9,18.5,7.8,24.8,15.3c12.6,15,12.2,38.1-1.1,52.6
			C1178.3,57.9,1155.5,59,1139.8,48.2z M1137.9,55.5c0.5-1,1-1.9,1.5-2.9c0.3-0.1,0.6-0.4,0.7-0.7c1.4,0.9,2.8,1.6,4.3,2.3
			c-0.9,1.5-1.6,3-2.3,4.5c-0.5,1-1.1,2-1.6,3.1c-0.8-0.6-1.5-1.1-2.3-1.7c-0.6-0.5-1.2-1-1.9-1.5
			C1136.9,57.6,1137.3,56.5,1137.9,55.5z M1119.5,96.5c-1.2-0.1-2.3-0.5-3.2-1.2c-1.4-1.1-2.1-2.7-2.4-4.3c0.2-0.1,0.4-0.2,0.5-0.5
			c5-11.4,11.7-21.4,17.9-32.1c0.8,1.6,2.7,2.8,4,3.9c1.6,1.3,3.1,2.8,4.9,3.9c-3.1,4.8-6.1,9.5-9.4,14.2c-3.4,4.7-6.5,9.4-8.6,14.7
			c-0.7-0.1-1.5,0.6-1.3,1.4C1121.9,96.1,1120,96.5,1119.5,96.5z"/>
		<path class="st2" d="M1188.8,24c1.4-3.9,1.4-8.7,0.4-12.6c-0.2-0.7-1.3-0.6-1.2,0.1c0.4,4.3-0.1,7.8-1,12
			C1186.6,24.7,1188.4,25.2,1188.8,24z"/>
		<path class="st2" d="M1185.3,22.5c1.7-2.1,1.9-5.4,1.3-7.9c-0.2-0.7-1.4-0.6-1.4,0.2c0.1,1.2,0.1,2.5-0.2,3.7
			c-0.2,1.2-0.8,2.2-1.1,3.3C1183.8,22.4,1184.8,23.1,1185.3,22.5z"/>
		<path class="st2" d="M1140.5,18.9c-1-4.4-0.5-8.5,0.8-12.8c0.2-0.7-0.9-1.2-1.2-0.5c-2,4.3-2.3,9.2-1.5,13.8
			C1138.8,20.6,1140.7,20.1,1140.5,18.9z"/>
		<path class="st2" d="M1121.2,87.1c0.5-1.4,0.7-2.8,1.2-4.2c0.5-1.5,1.3-2.9,2-4.3c0.3-0.6-0.5-1-0.9-0.5c-1.7,2.4-3.4,5.8-3.6,8.8
			C1119.9,87.7,1121,87.8,1121.2,87.1z"/>
		<path class="st2" d="M1123.2,88.1c0.3-0.9,0.4-1.8,0.7-2.7c0.2-0.9,0.6-1.8,0.8-2.7c0.2-0.7-0.8-1.1-1.1-0.5
			c-0.9,1.7-1.7,3.8-2,5.7C1121.4,88.9,1122.9,89,1123.2,88.1z"/>
	</g>
	<g>
		<path class="st2" d="M1188.5,411.4c12.4,4.1,24.5,9.1,37,13c0.4,0.1,0.7,0,0.9-0.3c0.1,0.6,0.5,1,1.3,1
			c13.6-0.5,27.1-0.9,40.7-1.1c11.9-0.2,25.4,1.6,37.1-0.8c1.2,2.1,3.8,3,6.2,2c1.1-0.4,1.9-1.1,2.5-2c2.6,2.5,6.4,2.9,9.5,0.7
			c1.4-1,2.3-2.1,2.8-3.4c3.3,0.5,8.7,1.5,11-1.3c1.9-2.3,0.7-6.7,0.3-9.4c-0.7-3.8-1.6-8.4-5.1-10.7c-3.2-2.1-7.3-1.6-11-1.1
			c-0.5,0.1-0.7,0.4-0.8,0.7c-2.7-3.6-6.5-5.6-11.4-3.6c-1.2-1.1-2.7-1.7-4.6-1.3c-0.6,0.1-0.8,0.5-0.8,0.9c-0.1,0-0.1,0-0.2,0
			c-25.3-3.1-51.3-3-76.7-2.6c-0.2-0.1-0.5-0.2-0.8-0.1c-0.3,0.1-0.6,0.3-0.9,0.4c-0.1,0-0.1-0.1-0.2-0.1c-0.8-0.5-1.6,0.2-1.7,0.9
			c-11.9,4.7-23.6,10.2-35.2,15.6C1187.1,409.5,1187.5,411,1188.5,411.4z M1305,422c-11.5-2.6-25-0.8-36.6-0.7
			c-13.1,0.1-26.3,0.4-39.4,1c1.3-2.4,0.7-5.5-1.1-7.6c25,2.5,51.4,1.5,76.3,0c0.2,0,0.3-0.1,0.4-0.1c0.2,2.4,0.5,4.8,0.8,7.2
			C1305.3,421.7,1305.1,421.8,1305,422z M1231.5,409.5c0-2.2-1.4-3.8-3.1-5c24.8,2.2,50.1,1.7,75,1.9c0.2,0,0.4-0.1,0.6-0.2
			c0.2,2.2,0.3,4.4,0.5,6.6c-0.1,0-0.2-0.1-0.3-0.1c-25,0.4-50.3-0.4-75.3,0.6C1230.3,412.5,1231.5,411.7,1231.5,409.5z
			 M1322.3,400.4c2.3-0.3,5-0.7,7.2,0c3.9,1.2,5,5,5.8,8.6c0.6,2.9,1.4,5.7-0.2,8.2c-1.4,2.2-2.4,1.9-4.8,2.1
			c-1.2,0.1-2.3,0.1-3.5,0.2c0.5-1.9,0.4-4-0.1-6c-0.8-3.9-2.3-9.1-4.8-13C1322,400.4,1322.1,400.4,1322.3,400.4z M1323.4,409.7
			c0.6,1.8,1.3,3.7,1.5,5.6c0.6,6.6-4.4,9.8-10.2,7.3c1.1-1.9,1.4-4.2,1.3-6.3c-0.4-5.6-2.4-12.2-4.3-17.5c-0.2-0.6-0.5-1.2-0.8-1.8
			C1318.3,394.6,1321.5,404.2,1323.4,409.7z M1312.6,410.8c0.5,2,1.2,4.1,1.3,6.2c0.1,3.8-3.8,7.9-6.9,5.9c0.1-0.1,0.1-0.2,0.1-0.3
			c0.9-8.7-0.3-17.9-1.5-26.5C1310.2,395.7,1311.8,408,1312.6,410.8z M1303.2,396.5c0.3,2.6,0.5,5.1,0.7,7.7
			c-0.1-0.1-0.3-0.1-0.4-0.1c-25-0.3-50.1-1.7-75.1-0.8c1.4-2.6,0.9-5.9-0.7-8.4C1252.9,394.5,1278,396,1303.2,396.5z M1225,395.3
			c2.1,2.1,2.3,5.4,1.1,8.1c-1,0-1.7,1.5-0.6,2.1c2.1,1.1,5.5,3.7,2.2,5.9c-1,0.7-2.1,0.9-3.1,1.7c-0.6,0.5-0.4,1.5,0.2,1.8
			c2.8,1.5,3.4,4.7,2.3,7.4c-0.3,0.1-0.5,0.3-0.7,0.6c-0.1-0.1-0.2-0.3-0.3-0.3c-6.8-3.3-13.9-6-21.1-8.5c1.8-2.9,1.2-6.9-1-9.5
			C1211.1,401.6,1218.1,398.5,1225,395.3z M1201.8,405.7c2.3,2.2,2.8,5,1.8,8c-3.7-1.3-7.5-2.5-11.2-3.8
			C1195.6,408.5,1198.7,407.1,1201.8,405.7z"/>
		<path class="st2" d="M1214.4,416c2.4,0.5,4.7,0.9,7.1,1.7c0.4,0.1,0.7-0.6,0.3-0.7c-2.3-0.9-4.8-1.9-7.2-2.1
			C1213.9,414.8,1213.8,415.9,1214.4,416z"/>
		<path class="st2" d="M1211.8,413.2c1.8,1,4.1,1.6,6.2,1.7c0.6,0,0.8-1,0.1-1.1c-2-0.5-3.7-1.1-5.6-1.9
			C1211.7,411.4,1210.9,412.7,1211.8,413.2z"/>
	</g>
	<g>
		<path class="st2" d="M1252.3,499.2c-6.6-11-12.8-22.3-19.6-33.2c-0.4-0.6-0.9-0.7-1.4-0.6c-0.4-0.5-1-0.7-1.7-0.3
			c-29.3,17.3-59.1,33.8-89.3,49.5c-0.7,0.4-0.9,1.3-0.6,2c6.4,14.4,13.4,28.6,21,42.4c3.5,6.4,7,13,11,19.1
			c2.1,3.2,3.9,5.6,7.3,6.8c0,0.4,0.3,0.8,0.8,0.7c7.3-2.2,13.8-6.9,20.4-10.7c4.2-2.4,8.4-4.8,12.6-7.1c1.2,3.5,1.9,6.9,1.1,10.7
			c-0.8,3.9-3,6.3-5.3,9.3c-0.4,0.5-0.2,1.1,0.3,1.5c-0.1,0.1-0.2,0.2-0.2,0.4c0.1,1.8,0.9,3.8,2,5.3c0,0.4,0.4,0.8,0.9,0.6
			c0.1,0,0.2-0.1,0.2-0.1c0.1,0,0.2-0.1,0.3-0.1c17-7.1,33.2-17.1,48.8-26.9c0.5-0.3,0.7-1,0.4-1.5c-1.1-2-0.8-1.6-2.3-3.3
			c-0.2-0.3-0.5-0.4-0.8-0.4c0.2-0.9-0.4-1.8-1.5-1.5c-3.6,1.2-8-1.8-10.8-3.9c-2.1-1.6-3.8-3.5-5.4-5.6
			c10.2-5.7,20.5-11.4,30.8-17.1c0.7-0.4,0.9-1.1,0.6-1.8c0.1-0.2,0.1-0.5,0-0.9C1266,520.9,1258.9,510.2,1252.3,499.2z
			 M1166.2,563.1c-3.6-6.4-7.1-12.9-10.4-19.5c-2.9-5.6-5.6-11.3-8.3-17c-1.6-3.4-4.9-7.4-2.9-11c1-1.8,7-3.7,8.8-4.6
			c26.1-13.8,51.8-28.2,77.3-43.2c8.7,16.6,18.2,33.6,28.7,49.6c-29.8,17.6-60.6,33.3-90.5,50.7
			C1167.8,566.2,1167,564.5,1166.2,563.1z M1257.5,565.1c2.1,3.1-19,14-21.9,15.6c-7.8,4.4-15.8,8.4-23.5,13c-0.7-1.1-1.4-2.2-2-3.4
			C1226.5,583.3,1242.5,574.6,1257.5,565.1z M1246.6,561.1c2.1,1.4,4.8,3,7.5,3.3c-13.7,7.7-27.5,15.2-41.3,22.7
			c4.5-5.2,5.1-14.8,1.4-20.2c3.4-1.9,6.7-3.8,10.1-5.7c4.9-2.7,9.7-5.5,14.6-8.2C1240.7,556.3,1243.5,559.1,1246.6,561.1z
			 M1222.9,558.6c-7.6,4.3-15.2,8.6-22.7,12.9c-6.4,3.6-13.6,6.9-19.3,11.6c0,0-0.1,0-0.1-0.1c-4.7-1.7-8.2-7.6-11-13.1
			c31.4-14.5,61.5-32.5,91.2-50.1c2.9,4.3,5.8,8.5,8.8,12.6C1254,541.1,1238.4,549.9,1222.9,558.6z"/>
		<path class="st2" d="M1228.7,477.6c-0.6-0.9-1.9-0.6-2.2,0.1c-0.3-0.4-0.9-0.6-1.4-0.3c-24.6,13.9-49.6,27.4-73.8,42.2
			c-0.1,0.1-0.2,0.2-0.3,0.2c-0.4,0.3-0.7,0.8-0.4,1.4c1.3,3.2,3.4,5.3,5.1,8.2c1.8,3.2,2.7,6.9,4.4,10.1c1.9,3.4,3.8,6.6,5.2,10.3
			c1.4,3.6,1.6,5.2,4.1,7.8c-0.1,0.6,0.5,1.2,1.2,0.9c26.5-13.8,52.5-28.5,78.9-42.5c0.7-0.4,0.7-1,0.4-1.5c0.5,0,1-0.3,0.8-0.9
			C1245.5,500.6,1236.5,489.1,1228.7,477.6z M1169.9,557.1c-2.2-6.7-4.6-12.2-7.8-18.5c-1.5-2.9-2.3-6.1-3.9-9.1
			c-1.6-3.1-4-5.6-5.5-8.8c24.9-13,49.1-27.4,73.5-41.2c0.2-0.1,0.4-0.3,0.5-0.5c7.8,11.5,15.8,22.8,22.5,35
			c-0.2-0.1-0.5-0.1-0.8,0.1C1221.8,527.6,1195.3,541.5,1169.9,557.1z"/>
	</g>
	<g>
		<path class="st2" d="M752.7,495.3c5.9,2.1,12.3,2.4,18.4,1c2.7-0.6,5.4-1.5,7.9-2.7c3.7-1.7,8.5-6.2,12.6-6.6
			c3.6,11.5-1.8,24.3-10.4,33.1c-0.8,0.8,0.4,2.1,1.3,1.4c5.7-3.9,10.1-11.4,11.9-19.3c1.8,5.9,4.7,9.7,11.2,11.3
			c7.1,1.8,14.6,0,21.4-2.1c1.3-0.4,0.9-2-0.2-2.3c-6.9-2.2-10.3-9.7-17.3-12.1c-4.8-1.6-9.9-1.5-14.4,0.6c0.4-3.5,0.2-7-0.7-10.3
			c11.5-0.1,23.7-4.8,27.7-16.6c4-11.8-2-28.3-6.7-39.1c-4.4-10-10.8-22.6-22.1-26c-10.2-3-17.1,3.8-22.2,11.5
			c-6-0.4-12.1-2.7-18-1.2c-5.3,1.3-9.4,5.2-12.1,9.9c-6.9,11.6-8.9,28.9-7.8,42.2C734.3,480.5,740.8,491,752.7,495.3z M815.2,503.3
			c2.3,2.1,4.4,4.3,6.8,6c-9.1-1.8-18-3.4-25.3-9.7c-0.3-0.3-0.7-0.3-0.9-0.1c0-0.1-0.1-0.2-0.1-0.2
			C802.7,497.3,809.7,498.3,815.2,503.3z M821.9,510.5c-4.1,1.1-8.4,1.8-12.7,1.3c-2.4-0.3-5.1-0.9-7.2-2.1
			c-3.1-1.8-4.5-4.7-5.4-7.9C803.6,507.6,812.9,509.6,821.9,510.5z M735.7,468c-1.1-10.8,0.9-22.8,4.2-33.1
			c2.6-8.2,7.9-16.5,17.4-16.9c4.4-0.2,8.4,1,12.7,0.9c-0.2,0.3-0.4,0.6-0.6,0.9c-0.8,1.4,1.4,2.4,2.2,1.1
			c6.6-10.7,16.9-18.4,28.3-8.4c7.3,6.4,11.9,16.7,15.2,25.6c3.1,8.5,6.1,18.2,5.3,27.3c-1.2,13.8-14.4,19.2-26.6,20.3
			c-1.2-3.2-3-6-5.8-8.3c4.3-0.2,8.7-0.2,12.1-2.1c0.8-0.4,0.1-1.7-0.7-1.4c-8,3.4-23.4-2.4-26.9,8.8c-0.4,1.2,1.5,1.8,2.1,0.7
			c2.3-4.6,6.7-5.6,11.5-6c2,2.2,3.5,4.6,4.5,7c-3.2,0.4-5.1,2.3-8.1,4.2c-5.5,3.5-11.8,5.7-18.3,5.8
			C748.3,495,737.3,483.4,735.7,468z"/>
		<path class="st2" d="M787,413.8c1.9,0.3,3.6,0.3,5.4,1c1.8,0.8,3.4,2,4.7,3.5c0.5,0.7,1.6,0,1.1-0.8c-2.3-3.3-7-6.4-11.3-5.6
			C786,412.2,786.2,413.6,787,413.8z"/>
		<path class="st2" d="M783.5,417c3.2-0.6,5.9,0.1,8.7,1.8c0.5,0.3,1.1-0.4,0.7-0.9c-2.4-2.7-6.3-3.7-9.8-3
			C781.9,415.2,782.3,417.2,783.5,417z"/>
	</g>
	<g>
		<g>
			<path class="st2" d="M1241,183.5c0,0.2,0,0.3,0.1,0.5c-5.8,9.7-11.1,19.6-16.2,29.7c-0.2,0.4-0.1,0.7,0.1,1
				c0,1.6,1.1,3.3,2.4,4.1c1.6,0.9,3.3,0.7,4.7-0.3c0.1,0.6,1,0.9,1.5,0.3c1.2-1.6,2.4-3.3,3.6-5c18,12.2,38,21.8,57,32.3
				c7.5,4.1,24,11.3,26.1-2.4c5.5-7.1-12.5-15.7-16.6-18.1c-18.1-10.5-36.2-20.9-54.3-31.4c1-1.6,1.9-3.2,2.9-4.8
				c0.4-0.7,0.2-1.3-0.3-1.7C1253.4,182,1241.8,177.4,1241,183.5z M1267.4,226.8c0.4-0.1,0.6-0.4,0.7-0.9c0.3-2.7,0.6-5.2,1.7-7.7
				c0.6-1.5,4.4-9,5.1-3.4c0.2,1.9-2,5.2-2.9,6.8c-0.4,0.6-3.2,4.2-4.3,5.9c-0.1-0.1-0.3-0.1-0.4-0.1
				C1267.4,227.2,1267.4,227,1267.4,226.8z M1270.3,212.7c-2.8,3.7-4.6,8.5-4.3,13.2c0,0.4,0.2,0.7,0.5,0.8c0,0.3,0,0.5,0.1,0.8
				c0,0.1,0.1,0.2,0.2,0.2c0,0-0.1,0.1-0.1,0.1c-9.5-5.3-18.9-10.8-28.9-15.1c3.6-5.3,6.9-10.9,10.2-16.4
				c8.2,4.7,16.3,9.4,24.5,14.1C1271.7,211,1270.9,211.9,1270.3,212.7z M1316.9,244.7c-0.4,0.3-0.2,0.9,0.2,1.1
				c-7.5,10.3-36.2-10.2-43.1-14c-1.9-1-3.7-2.1-5.6-3.1c2.4-0.9,5.2-5.8,6-7.2c1.1-1.9,3.1-5.4,3.1-8.2l5.2,3
				c5.6,3.2,11.2,6.5,16.9,9.7C1303,228,1324.3,237.6,1316.9,244.7z M1250,187.7c-0.1,0.1-0.1,0.1-0.2,0.2
				c-5.8,9.3-12,18.7-16.9,28.6c-0.2-0.1-0.4-0.2-0.7,0c-1,0.7-2.6,1-3.7,0.3c-1.2-0.8-1-1.9-1.3-3.1c5.5-9.8,11.2-19.4,16.8-29.2
				c0.2-0.4,0.2-0.8,0.1-1.1c1.1-0.5,2.8,0.4,3.7,0.9C1249.1,185,1250.1,186.2,1250,187.7z"/>
		</g>
	</g>
	<g>
		<path class="st2" d="M316.4,451.1c-22.3,1.2-42.3,19.9-49,40.5c-7.2,22.1,1.3,44.3,19.7,57.9c19,14.1,46.7,17.8,62.9-1.8
			c0.3,0,0.7,0,1-0.3c17.6-12.5,22.4-35.9,15-55.6C358.7,472.6,338.6,449.9,316.4,451.1z M351.6,543.1c-0.4-0.1-0.8-0.1-1.2,0.3
			c-9.3,10.2-22.3,17-36.4,15c-13.4-1.9-26.8-10.6-35.5-20.8c-18.1-21.4-11.4-52.8,8.5-70.3c8.7-7.7,19.9-13.4,31.8-13.2
			c13.9,0.2,25.7,10.9,34.1,21.1C368.9,495,372.6,525.9,351.6,543.1z"/>
		<path class="st2" d="M315.6,462.9c-19.5-1.2-34.9,13.9-40.5,31.5c-2.8,8.7-3.7,17.8,0.3,26.2c4.1,8.5,11.7,15.8,18.8,21.8
			c7.1,6,15.8,11.3,25.3,11c10.4-0.3,18.1-6.9,25.1-13.8c4.2-0.9,7.8-7.5,9.4-10.8c4.1-8.4,4.7-18.4,2.3-27.4
			C351.8,483.9,334.7,464.1,315.6,462.9z M354.4,505.8c0.9,5,0.6,10.2-0.7,15.1c-0.8,3-6,17.4-10.6,15.7c-1.7-0.6-2.8,1.9-1.1,2.6
			c0,0,0,0,0,0c-7.1,5.9-15.2,11.7-24.6,11.1c-8.9-0.6-16.7-6.2-23.1-11.9c-7.7-6.8-16.7-15.6-18.4-26.2
			c-1.7-10.2,2.8-22.1,8.6-30.3c13-18.7,35.8-20.7,52.4-5.8C345.5,484.1,352.3,494.2,354.4,505.8z"/>
		<path class="st2" d="M320.4,471c-4.3-2.3-10.1-1.6-14,1.2c-0.8,0.6,0.1,1.8,1,1.3c3.9-2.4,8.1-2.5,12.2-0.7
			C320.8,473.4,321.5,471.6,320.4,471z"/>
	</g>
	<g>
		<path class="st2" d="M1008,70.8c-22.3,1.2-42.3,19.9-49,40.5c-7.2,22.1,1.3,44.3,19.7,57.9c19,14.1,46.7,17.8,62.9-1.8
			c0.3,0,0.7,0,1-0.3c17.6-12.5,22.4-35.9,15-55.6C1050.4,92.3,1030.2,69.6,1008,70.8z M1043.2,162.8c-0.4-0.1-0.8-0.1-1.2,0.3
			c-9.3,10.2-22.3,17-36.4,15c-13.4-1.9-26.8-10.6-35.5-20.8c-18.1-21.4-11.4-52.8,8.5-70.3c8.7-7.7,19.9-13.4,31.8-13.2
			c13.9,0.2,25.7,10.9,34.1,21.1C1060.5,114.6,1064.2,145.6,1043.2,162.8z"/>
		<path class="st2" d="M1007.2,82.6c-19.5-1.2-34.9,13.9-40.5,31.5c-2.8,8.7-3.7,17.8,0.3,26.2c4.1,8.5,11.7,15.8,18.8,21.8
			c7.1,6,15.8,11.3,25.3,11c10.4-0.3,18.1-6.9,25.1-13.8c4.2-0.9,7.8-7.5,9.4-10.8c4.1-8.4,4.7-18.4,2.3-27.4
			C1043.4,103.5,1026.3,83.8,1007.2,82.6z M1046,125.5c0.9,5,0.6,10.2-0.7,15.1c-0.8,3-6,17.4-10.6,15.7c-1.7-0.6-2.8,1.9-1.1,2.6
			c0,0,0,0,0,0c-7.1,5.9-15.2,11.7-24.6,11.1c-8.9-0.6-16.7-6.2-23.1-11.9c-7.7-6.8-16.7-15.6-18.4-26.2
			c-1.7-10.2,2.8-22.1,8.6-30.3c13-18.7,35.8-20.7,52.4-5.8C1037.1,103.7,1044,113.9,1046,125.5z"/>
		<path class="st2" d="M1027.1,110.3c-0.2-0.1-0.4-0.1-0.6-0.2c-0.4-0.4-1-0.5-1.5-0.4c-1.7-0.3-3.4-0.5-5.2-0.3
			c-1.8,0.2-1.4,2.7,0.3,2.7c0.9,0,1.6,0,2.4,0.1c-4.1,4.7-8.1,9.4-12.1,14.2c-1.7-1.4-3.9-2-5.8-0.9c-1.5-2.4-3.5-4.6-5.1-6.8
			c-3.2-4.4-6.4-8.8-9.6-13.1c0.8,0.2,1.6,0.3,2.5,0.5c1.5,0.4,2.2-2.1,0.7-2.6c-1.9-0.7-3.8-1.1-5.7-1.4l-0.5-0.7
			c-0.8-1-2.1-0.6-2.5,0.4c-0.1,0-0.1,0-0.2,0c-0.9-0.1-1.8,0.6-1.7,1.6c0.3,2.5,0.9,4.2,2.2,6.3c0.8,1.4,2.7,0.2,2.7-1.1
			c0-0.6,0-1.1,0-1.7c2.4,3.3,4.9,6.7,7.3,10c2.1,2.9,5.9,6.7,8,10.5c-0.9,1.6-0.7,2.9,0,3.9c0.4,3.9,5.6,6.6,8.9,2.4
			c1.6-2,1.3-4.2,0.2-5.9c3.1-3.3,6.2-6.6,9.2-10c0.5,0.6,1.4,0.9,2.1,0.4c2.1-1.8,3.6-3.8,4.8-6.3
			C1028.2,111.5,1027.8,110.5,1027.1,110.3z"/>
		<path class="st2" d="M1020.9,159.1c-3.7,3.5-8.3,5-13.3,4.4c-0.9-0.1-1.1,1.2-0.2,1.4c5.3,1.1,10.8-0.5,14.7-4.2
			C1023,159.8,1021.8,158.3,1020.9,159.1z"/>
		<path class="st2" d="M1020.7,155.8c-3.4,0.9-6.7,2.2-9.9,3.3c-0.9,0.3-0.4,1.7,0.6,1.4c3.3-1,6.8-1.9,10-3.1
			C1022.5,157,1021.8,155.5,1020.7,155.8z"/>
		<path class="st2" d="M1012,90.7c-4.3-2.3-10.1-1.6-14,1.2c-0.8,0.6,0.1,1.8,1,1.3c3.9-2.4,8.1-2.5,12.2-0.7
			C1012.4,93,1013.1,91.3,1012,90.7z"/>
	</g>
	<g>
		<path class="st2" d="M237.8,404.8c-5.7-4.2-12.8-3.6-18.3,0.7c-1.4,1.1-2.8,2.5-4,4c-10.3-16.8-28.9-27.7-48.5-29.5
			c-22.9-2.1-42.9,9.9-58.9,25.3c-15.8,15.3-26.7,34-25.9,56.6c0.9,24.4,14.2,47,32.5,62.7c-5.8,2-10.4,7.5-9.4,14.1
			c0.7,4.5,4.5,7.2,8.9,7.3c4.7,0.1,8.8-2.8,11.8-6.5c2.4,5.1,9.3,8,14.6,5.7c4.5-2,6.8-7.2,6.1-11.8c4.7,1.7,10.9-0.2,13.6-4.1
			c3.2-4.6,2.2-10.9-1.6-14.6c11.3-0.8,16.4-15.4,7.6-23.3c-6.9-6.2-15.9-3.4-20.3,3c-6-7-12.7-13.9-16-22.6
			c-4.3-11.3-1.3-23.1,5.8-32.5c7-9.2,17-15.7,28.9-14.6c10.9,1,19,7.5,26.3,15.1c-0.8,0.4-1.6,1-2.3,1.7c-3.2,3.2-3.8,8.4-2.7,12.6
			c1.1,4.5,5.1,6.8,9.6,5.8c3.7-0.8,6.3-3.5,8.3-6.5c2.3,5.8,9.7,4.8,13.9,1.2c2.1-1.9,4.1-4.6,3.4-7.6c-0.1-0.2-0.1-0.4-0.2-0.6
			c4.8-0.1,9.9-2.4,11.5-7.1c1.1-3.1,0.4-6.5-1.7-8.8C242.7,429.2,248.5,412.7,237.8,404.8z M85.3,464.1
			c-1.5-23.5,10-42.8,26.7-58.3c15.3-14.3,34.2-25.1,55.8-22.7c19.1,2.1,35.6,12.8,45.8,28.9c-1.8,2.8-3.1,6-2.8,9.2
			c-2.2-2.6-5.9-3.5-9.2-2.7c0.4-0.5,0.6-1.1,0.1-1.8c-20.3-26.4-60.9-28.8-83.7-4.4c-23.3,25-29.8,74.2,2.9,94.4
			c-2.6,5.2-2.2,11.7,0.4,17.1c-1.4-0.2-2.9-0.1-4.3,0.1c0-0.2-0.1-0.5-0.3-0.6C100.5,507.1,86.9,487.8,85.3,464.1z M130,499.1
			c-2.2,0.7-4.2,1.8-5.9,3.4c-0.8,0.8-1.5,1.6-2.1,2.4c-28.4-21.7-25.4-64.6-2.5-89.8c21.5-23.6,60.3-22.1,79.9,3.3
			c0.2,0.3,0.5,0.5,0.8,0.5c-0.9,0.4-1.8,1-2.6,1.7c-0.7,0.7-1.3,1.4-1.8,2.2c-18-22-51.6-17.9-69.4,2.6
			C107.9,446.9,109.2,479.9,130,499.1z M150.4,492.9c3.9-2.8,9.4-3.2,13.3-0.2c8.8,6.7,3.3,19-7,19.2c-0.6,0-1,0.4-1.1,1
			c-0.4,0.3-0.6,1-0.1,1.4c3.8,3,5.6,8.7,2.8,13c-3.2,5-8.9,4.1-13.3,1.8c-0.3-0.4-0.6-0.8-1-1.2c-0.5-0.5-1.5,0.2-1.2,0.8
			c-0.5,0.3-0.7,0.9-0.2,1.6c0.4,0.6,0.9,1.1,1.4,1.5c1,4.3-0.3,9.2-4.9,10.9c-4.9,1.8-9.4-1.5-11.3-5.9c0.3-0.6,0.7-1.1,0.9-1.7
			c0.6-1.3-1.2-2-2-1.2c-3.1,3.1-5.3,7.3-9.7,8.7c-5.1,1.6-9.8-1.9-8.7-7.3c1.3-6.4,8.2-10.1,14.3-9.1c0.2,0.1,0.4,0.1,0.6,0.1
			c0.1,0,0.1,0,0.2,0c1.1,0.2,1.5-1.4,0.5-1.8c0,0,0,0-0.1,0c-2.7-5.7-3.3-12.8,0.6-18.2c4.4-6,13.6-6.8,18.7-1.4
			c1.2,1.3,3.5-0.4,2.3-1.7c0,0-0.1-0.1-0.1-0.1C145.7,499.1,146.9,495.3,150.4,492.9z M136,434.6c-7.2,8.2-12,19.2-10.5,30.3
			c1.7,12.5,10.8,22.7,19.7,31c-0.9,1.7-1.4,3.6-1.6,5.6c-3.4-2.6-7.8-3.5-11.9-2.6c0-0.2,0-0.4-0.2-0.6
			c-17.2-19.1-20.9-46.7-5-67.9c16.6-22,49.8-26.8,68.1-4.4c-1.3,4.4,0.1,9.5,2.8,13.4c-1.1-0.4-2.2-0.6-3.4-0.5
			C179,419.6,152.9,415.4,136,434.6z M227.3,427.4c-0.7,0-1.2,0.3-1.4,0.8c-0.3,0.4-0.3,1,0.1,1.3c0.2,0.3,0.5,0.5,1,0.6
			c0.2,0,0.3,0,0.5,0.1c2.9,1.7,3.8,5.8,2.1,8.8c-2.5,4.4-7.7,4.5-12.1,4.3c-0.2,0-0.3,0-0.5,0.1c-0.1,0-0.1,0-0.2,0
			c-0.4,0-0.6,0.4-0.6,0.7c-0.3,0.6-0.2,1.4,0.6,1.6c0.6,0.2,1.2,0.3,1.8,0.4c1.1,2.1-1.5,5.5-3.3,6.8c-2.6,1.9-8.1,3.4-9.2-1
			c-0.1-0.6-0.5-0.9-1-1c0.2-0.4,0.4-0.7,0.6-1.1c0.7-1.4-1.6-2.8-2.4-1.4c-1.6,2.5-3,5.2-5.3,7c-3.4,2.6-8.2,2.2-9.4-2.4
			c-1.1-4.3,0.4-9.6,4-11.5c0.9,0.8,2.1,0.2,2.2-0.7c0.9-0.1,1.9-0.1,2.9,0.2c0.2,0.1,0.4-0.1,0.6-0.2c0.7,0.4,1.7-0.6,1.1-1.4
			c-2.5-4.2-4.3-9.3-1.8-14c2.5-4.8,9.4-6.1,11.9-0.6c0.5,1.1,1.7,1,2.3,0.3c0.6,0.3,1.6-0.3,1.3-1.2c-1.1-3.9,0.2-8,2.8-11.4
			c0,0,0.1-0.1,0.1-0.1c4.7-6.1,13.6-9.8,19.9-5.2C246.1,414.5,238.5,428,227.3,427.4z"/>
		<path class="st2" d="M224.9,411.7c-0.4,0.3-0.1,1.1,0.5,0.8c2.9-1.4,6-0.6,7.7,2.2c0.6,0.9,2.1,0,1.6-0.9
			C233,410.4,227.7,409.1,224.9,411.7z"/>
		<path class="st2" d="M170.4,391.1c-5.5-3-12.2-3.3-18-1.1c-0.7,0.3-0.3,1.3,0.4,1c5.8-1.9,11.6-1.2,17,1.6
			C170.7,393.1,171.3,391.6,170.4,391.1z"/>
		<path class="st2" d="M175,387.5c-3.2-1.6-7-2.3-10.5-2.4c-0.6,0-0.8,0.9-0.1,1c3.6,0.4,6.8,1.4,10.1,2.8
			C175.4,389.3,175.9,388,175,387.5z"/>
		<path class="st2" d="M112,476.3c0.1,5.1,1.9,10.1,5.3,13.9c0.3,0.4,0.9-0.1,0.6-0.5c-2.7-4.1-4.3-8.5-4.3-13.4
			C113.6,475.1,111.9,475.1,112,476.3z"/>
	</g>
	<g>
		<path class="st2" d="M871.7,70.4c-13.3,4.2-26.9,14.9-27.5,29.9c-0.7,18.2,18.6,21.4,26.1,34.9c0.8,1.4,2.8,0.1,2.1-1.3
			c-4.8-10.4-17.1-13.3-22.8-22.9c-10.4-17.7,9.8-34.6,25.3-38.4c8.6-2.1,18.6-0.9,23.8,7c5.9,8.9,2.3,17.8-3.6,25.3
			c-5.7,7.3-12,15.3-8.1,24.9c-0.2,0-0.3-0.1-0.5,0c-1.5,0.3-3,0.8-4.5,1.4c-0.9-11.9,0.5-22.6,4.5-33.6c1.8-0.4,3.5-1.1,5.2-2.3
			c1-0.8,0.1-2.4-1.1-1.7c-1,0.5-2,0.9-3.1,1.3c0.5-1.2,1-2.3,1.5-3.5c0.7-1.5-1.5-2.7-2.3-1.2c-1,1.8-1.9,3.6-2.6,5.5
			c-5.2,0.9-10.6,0.6-15.5,3.4c-1,0.6-1.9,1.2-2.7,1.9c-1-1.4-2.1-2.7-3.3-3.9c0.1-0.5,0-1.1-0.6-1.3c-0.6-0.3-1.3-0.6-1.9-1
			c-1.4-0.7-3,1.2-1.7,2.3c2.1,1.8,3.9,3.8,5.4,5.9c-2,2.2-3.5,4.8-4.5,7.7c-0.2,0.7,0.9,1.1,1.2,0.5c1.2-2.5,2.7-4.7,4.4-6.5
			c5.7,8.6,8.1,19.2,10.6,29.2c-1.1,0.5-2.2,1-3.3,1.5c-0.4,0.2-0.4,0.5-0.3,0.8c-0.1,0-0.1-0.1-0.2-0.1c-3,0.3-3.9,3.6-2.6,6.1
			c0.7,1.4,1.8,2.1,3.1,2.5c-1.6,1.4-1.8,3.5-0.6,5.3c0.8,1.1,1.8,1.7,3,2c5.9,6.5,16.5,3.1,17.8-5.6c0.1-0.6-0.3-1.1-0.8-1.2
			c2-2,2.8-4.4,0.6-6.7c-0.3-0.4-0.8-0.4-1.1-0.3c0.1-0.2,0.3-0.3,0.4-0.5c1.7-2.7,1.1-6.3-1.8-7.6c0.1-0.2,0.1-0.5-0.1-0.8
			c-4.8-11.6,6.7-19.5,11.8-28.3c3.1-5.4,4-11.4,2.1-17.4C899.4,69.3,884.4,66.4,871.7,70.4z M877.9,98.5c1.8-0.2,3.6-0.3,5.3-0.4
			c-3.9,10.7-5,22.6-2.9,33.7c-1,0.4-2,0.8-2.9,1.2c-1.3-10.3-4.2-21.6-10.2-30.4C870.2,100.4,873.7,98.9,877.9,98.5z M876.9,152.1
			c1-0.1,1.9-0.2,2.8-0.5c2.2-0.6,7.3-2.6,10.7-5.3C889,152.7,882.3,155.4,876.9,152.1z M883.9,147.6c-1.5,0.7-3.1,1.5-4.8,2
			c-0.4,0.1-0.7,0.2-1.1,0.3c-3.1,1-4.6-0.5-4.5-4.3c0.2-0.2,0.2-0.4,0.1-0.6c1.8,0.2,3.7-0.2,5.3-0.6c3.7-1,8.8-2.3,11.7-5.3
			c-0.1,0.3,0,0.7,0.2,1.1C893.4,143,885.5,146.8,883.9,147.6z M881.5,141c-1.5,0.5-2.9,1.1-4.5,1.4c-2.1,0.7-4.1,0.3-5.9-1.1
			c-1-1.6-0.7-3,0.9-4.2c0.3-0.1,0.4-0.4,0.4-0.6c0.2,0.1,0.4,0.2,0.6,0.1c1.1-0.3,2.1-0.6,3.2-0.9c0.3,0.7,1.5,0.5,1.4-0.3
			c0,0,0-0.1,0-0.1c1-0.3,2.1-0.6,3.1-1c0,0,0,0,0,0.1c0.2,0.8,1.5,0.6,1.4-0.2c0-0.1,0-0.2,0-0.3c1.8-0.6,3.5-1.4,5.1-2.2
			c0.4-0.2,0.5-0.6,0.5-0.9c0.1,0,0.2,0.1,0.3,0.1c0,0.3,0.2,0.6,0.5,0.8C895.3,135.6,883.9,140.2,881.5,141z"/>
		<path class="st2" d="M894.4,80.8c-3.2-4.4-9.6-5.5-14.5-3.6c-0.8,0.3-0.4,1.5,0.4,1.3c4.9-1.6,9,0.1,12.5,3.6
			C893.7,82.9,895.1,81.8,894.4,80.8z"/>
	</g>
	<g>
		<path class="st2" d="M568.9,465.8c-0.1,0.1-0.2,0.3-0.3,0.4c-0.1-0.4-0.3-0.8-0.6-1c0-0.1-0.1-0.3-0.1-0.4
			c-0.1-0.3-0.3-0.6-0.4-0.8c-0.6-1.3-2.9-0.5-2.4,0.9c-3.1-9.2-17.5-17.2-25.2-22.7c-6-4.3-12.1-8.4-17.6-13.3
			c-2.4-2.1-5.1-6.6-8.6-7.3c-6.6-1.4-16.9,7.9-21.3,12.1c-7.1,6.9-12,15.5-14.6,25c0,0.1,0,0.2,0,0.3c-6.9-0.4-17.6,11.8-21,16
			c-6.3,7.7-11,17.2-12,27.1c0,0.4,0.2,0.7,0.5,0.8c-0.1,0.4,0,0.9,0.4,1.2c16.7,13.7,32.6,28.4,49.1,42.4c0.7,0.6,1.7,0.2,1.9-0.5
			c0.2,0,0.3,0,0.5-0.1c0.1,0.8,1.1,1.5,1.9,0.7c10.5-11.2,20.8-22.6,31-34.1c2.9,4,9.7,3.9,13,0.1c3.1-3.7,2.5-9.9-0.8-13.4
			c10.1-8.3,18.7-18.9,26.9-29.1c1-0.6,1.1-0.8,2-2.5C572,466.2,570,464.4,568.9,465.8z M496.4,433.9c3.4-3,8.2-6.9,12.8-8.2
			c6.5-1.8,11,5.4,15.6,9.1c7.5,6,15.6,11.1,23.2,16.9c4.3,3.3,8.4,6.8,12,10.8c1.3,1.4,2.2,2.9,3.6,4c-8.2,3.7-15.5,9.4-21.1,16.4
			c-3.4,4.2-6.2,8.8-8.3,13.8c-2.1,4.9-1.9,5.5-4,5.8c-6.2-9.7-15.8-16.3-25.2-22.6c-6.2-4.2-12.5-8.3-18-13.3
			c-2-1.8-4.5-5.9-7.2-7.2c0-0.1,0.1-0.1,0.1-0.2C483.1,449.4,488.6,440.6,496.4,433.9z M495.8,544.1
			c-14.6-15.3-31.3-29.1-47.9-42.1c-0.4-0.3-0.8-0.4-1.2-0.3c3.2-9.8,7-18.9,13.9-26.7c3.4-3.8,7.4-7.3,11.7-10.1
			c6-3.8,6.7-1.7,11.4,2.7c13.8,12.8,31,20.4,43.1,35.1c-0.1,0-0.3,0-0.4,0C507.9,504.7,496.9,527.8,495.8,544.1z M566.6,468.5
			c-0.2,0.1-0.3,0.3-0.4,0.5c-8.3,9.8-17.4,18.9-25.6,28.8c-0.1-0.1-0.2-0.1-0.3-0.2c-1.3-0.7-2.6,1-1.6,2c2.5,2.7,4.5,6.2,2.7,9.9
			c-1.9,4-7.6,4.2-10.3,1.1c0.1-1.2-1.4-2.3-2.4-1.2c-10.5,11.5-20.8,23.1-31,34.9c0.9-9.3,4.2-17.9,9.9-25.4
			c5.6-7.3,14.8-15.8,24.7-12.6c0.8,0.2,1.6-0.3,1.8-1c4.9-17.5,16.7-29.8,32.8-37.4C567,468.1,566.8,468.3,566.6,468.5z"/>
		<path class="st2" d="M489,477.8c-10.1,6.1-17.3,16.9-20.9,28c-0.3,0.9,1.1,1.2,1.4,0.4c4.3-11.5,11.3-19.3,20.5-27
			C490.9,478.6,489.9,477.3,489,477.8z"/>
		<path class="st2" d="M513.3,434.2c-2.4-1.4-3.7-2.1-6.3-0.8c-3.6,1.8-6.6,6.6-9,9.7c-3.8,4.9-7,10.1-9.8,15.6
			c-0.4,0.9,0.8,1.6,1.3,0.8c0.1-0.2,0.2-0.3,0.3-0.5c0.1,0.1,0.1,0.3,0.3,0.4c2.5,2.6,5.2,5,7.9,7.4c1.7,1.6,3.9,4.6,6,5.5
			c1.4,0.6,1.4,1,3,0.6c2.5-0.7,6.8-7.9,8.4-9.8c4.3-5.2,8.6-10.4,12.9-15.6c0.6-0.7,0.5-1.5-0.3-2
			C523.2,441.8,518.5,437.3,513.3,434.2z M524.6,447.9c-0.2,2.3-5.9,7.1-7.4,8.9l-7.4,8.9c-0.6,0.7-2.9,4.4-3.7,4.5
			c-1.3,0.1-4.3-3.4-5.3-4.3c-3-2.8-5.9-5.5-9.1-8.2c-0.3-0.3-0.7-0.3-1.1-0.3c3.8-6.4,8.1-12.4,13.1-17.9c2.5-2.7,2.2-2.9,6.4-2.4
			c3.7,0.5,4.2,0.9,6.8,2.9C519.2,442,524.9,444.8,524.6,447.9z"/>
		<path class="st2" d="M532.3,451.9c-8.1,5.6-15,13-20.8,20.9c-0.5,0.6,0.6,1.5,1.1,0.9c6.2-7.7,13.2-14,20.9-20.2
			C534.4,452.8,533.2,451.2,532.3,451.9z"/>
		<path class="st2" d="M538.9,455.1c-8.9,5.9-16.5,14-22,23.1c-0.4,0.6,0.5,1.1,0.9,0.5c6.5-8.7,13.6-15.6,22.2-22.1
			C540.9,456,539.8,454.5,538.9,455.1z"/>
		<path class="st2" d="M545.8,464.2c-0.8,0-1.5-0.1-2.3-0.1c-1,0-1.2,1.1-0.6,1.7c-7.1,4.7-13.1,10.8-16.9,18.6
			c-0.4,0.7,0.7,1.4,1.1,0.7c4.9-7.9,10.9-14.3,19.2-18.8C547.3,465.7,546.9,464.2,545.8,464.2z"/>
		<path class="st2" d="M513.9,456.1c-3.7,3.2-7.2,7-10.5,10.6c-0.4,0.4,0.2,1,0.6,0.6c3.7-3.2,7.5-6.7,10.8-10.3
			C515.4,456.4,514.5,455.5,513.9,456.1z"/>
		<path class="st2" d="M510.8,453c-2,2.5-3.7,5.2-5.4,7.7c-0.4,0.6,0.6,1.2,1,0.6c1.9-2.4,3.9-4.8,5.6-7.4
			C512.5,453.2,511.3,452.4,510.8,453z"/>
		<path class="st2" d="M468.8,470.5c-3.9,3.4-7.1,7.7-9,12.4c-0.2,0.4,0.5,0.7,0.7,0.3c2.5-4.5,5.4-8.3,9.2-11.8
			C470.3,470.9,469.4,470,468.8,470.5z"/>
		<path class="st2" d="M473.7,470.9c-3.2,3.1-6.2,6.3-9.3,9.4c-0.6,0.6,0.3,1.4,0.9,0.9c3.2-3,6.5-6,9.6-9.1
			C475.6,471.3,474.5,470.1,473.7,470.9z"/>
	</g>
	<g>
		<path class="st2" d="M908.6,182.2c-16.3,12.3-21.4,34.8-10.3,52.3c10.2,16,32.4,21,47.8,10.3c0.3,0.3,0.8,0.4,1.4,0.1
			c18.7-9.8,25.4-32.5,14.1-50.8C949.8,175.3,926.8,168.5,908.6,182.2z M954.1,189.4c-0.6-0.1-1.2,0-1.5,0.8
			c-4.1,9.6-9.6,18.4-17.3,25.3c-0.8-0.8-1.6-1.8-2.3-3c-6.1-10.2,4-23.3,9.9-31.4C946.9,183,950.7,185.8,954.1,189.4z M919.9,179.6
			c6.7-2.2,13.7-2,20.2,0.4c-7.1,9.8-18.6,26.8-7.1,37.3c0,0,0.1,0,0.1,0.1c-0.3,0.3-0.6,0.6-1,0.8c-2.2,1.7-4.6,3.3-7.1,4.6
			c-1.1-2.1-2.1-4.3-2.9-6.5c-4.2-11.6-3.9-24.1-2.2-36.2C919.9,179.9,919.9,179.7,919.9,179.6z M908.4,186.1
			c2.7-2.3,5.5-4.1,8.5-5.4c-2.1,14.7-1.6,30.1,5.5,43.3c-1.3,0.6-2.5,1.2-3.8,1.7c-0.2,0.1-0.5,0.2-0.9,0.3c0-0.7-0.1-1.4-0.2-2.1
			c-1.6-9-13.3-11.6-20.6-13.9c-0.5-0.2-1,0-1.3,0.3C896.5,201.2,901,192.4,908.4,186.1z M895.4,212c0.1,0.1,0.3,0.2,0.5,0.3
			c4.8,1.9,11.1,3.1,15.3,6.4c2.6,2,3.7,5.1,3.8,8.3c-5.5,1.8-14.6,4-16.7-0.1c-0.2-0.3-0.5-0.4-0.7-0.3
			C895.8,221.9,895.1,216.9,895.4,212z M899.7,231.1c3.4,1.5,9.6,0.3,15.1-1.4c-0.7,4.6-3.3,9-7.1,10.9c-2.1-1.7-4.1-3.6-5.8-6
			C901.2,233.5,900.4,232.3,899.7,231.1z M909.3,241.8c4.5-1.9,7.5-7.6,8.2-12.9c2.5-0.8,4.7-1.7,6.2-2.4c0.1,0.2,0.2,0.4,0.3,0.5
			c1.9,3,12.1,14.9,19,16.7C932.1,249,919.1,248.6,909.3,241.8z M948.9,240.6c-0.1-0.1-0.3-0.1-0.5-0.1c-0.2-0.3-0.7-0.5-1-0.2
			c-4.4,4-14.8-7-17.3-9.9c-1.4-1.7-2.7-3.4-3.8-5.3c3.2-1.8,6.2-3.8,9-6.1c9.9,6,21.6-3.5,28.2-10.7
			C965.5,220.7,960.3,233.4,948.9,240.6z M963.3,206.5c-0.2,0-0.4,0-0.5,0.2c-5.9,5.5-17.1,14.8-25.2,10.4
			c7.7-7.1,13.6-16.2,17.6-25.9c0.1-0.2,0.1-0.4,0.1-0.6c0.6,0.7,1.2,1.4,1.7,2.1C960.2,197,962.3,201.7,963.3,206.5z"/>
		<path class="st2" d="M910.5,195.4c-0.6,4.7-0.3,9.7,1.1,14.2c0.2,0.6,1.2,0.4,1.1-0.3c-0.5-4.6-0.8-9-0.3-13.7
			C912.7,194.4,910.7,194.1,910.5,195.4z"/>
		<path class="st2" d="M908,193.1c-1.5,3.2-1.7,7.4-1.1,10.9c0.1,0.7,1.2,0.6,1.1-0.1c-0.1-1.7,0-3.4,0.2-5.2c0.3-1.7,0.8-3.3,1.3-5
			C909.9,192.7,908.5,192.1,908,193.1z"/>
		<path class="st2" d="M952.4,219.5c-2.6,3-6.1,4.6-10,5.2c-0.8,0.1-0.6,1.3,0.1,1.2c4.3-0.1,8.1-2.1,11.2-5
			C954.8,219.9,953.3,218.4,952.4,219.5z"/>
		<path class="st2" d="M954.4,223.2c-1.3,1-2.3,1.9-3.8,2.6c-1.4,0.6-2.9,1-4.5,1.2c-0.9,0.1-0.7,1.3,0.2,1.3c3.1-0.1,7-1.3,9.3-3.5
			C956.6,223.9,955.5,222.4,954.4,223.2z"/>
	</g>
	<g>
		<path class="st2" d="M1062-30c0.1-1-1.5-1.3-1.6-0.2c-0.4,3.1-1,6.2-1.6,9.3c-13,0.3-22.1,13.6-23.6,25.5
			c-2.1,16.8,9.9,29.7,22.4,39.1c1.1,0.9,2.8-0.4,2.3-1.7c-0.1-0.2-0.1-0.3-0.2-0.5c3.5-14.4,17.9-24,19.5-39
			c1.2-11.3-6.8-22.3-18.2-23.3C1061.4-23.9,1061.8-26.9,1062-30z M1038,6.1c0.9-10.7,9.4-23.3,20.3-24.1
			c-3.7,18.7-8.6,37.8-2.9,56.2C1045.6,30.1,1036.8,19.4,1038,6.1z M1066.9-16.2c15.8,8.1,8.3,25.6,0.9,36.3
			c-3.8,5.4-7.4,10.7-9.7,16.8c-5.4-18-0.3-36.5,2.5-54.9C1062.6-17.8,1064.7-17.3,1066.9-16.2z"/>
		<path class="st2" d="M1044-6.8c-3.4,4-5.1,9.7-4.1,14.9c0.1,0.5,0.9,0.6,0.9,0c0.2-5.2,1.5-9.6,4.7-13.8
			C1046.2-6.6,1044.8-7.7,1044-6.8z"/>
		<path class="st2" d="M1050-9.4c-2,4-3.8,7.9-6.1,11.7c-0.4,0.7,0.6,1.5,1.1,0.8c2.5-3.7,5.1-7.7,6.7-11.8
			C1052-9.8,1050.5-10.4,1050-9.4z"/>
	</g>
	<g>
		<path class="st2" d="M994.7,523.9c3.7-15.5,8.5-30.7,14.4-45.5c1.4-3.5,5.9-9.9,4.2-13.9c-1.5-3.3-7.4-4.5-10.2-5.5
			c-15.2-5.8-30.7-11.1-46.3-15.9c-15.6-4.8-31.3-9.3-47.2-12.9c-2.7-0.6-6-1.9-8.7-0.5c-4.6,2.5-5.9,12.1-7.4,16.5
			c-5.3,15-10.2,30.2-14.9,45.4c-1.6,5.2-7.7,17.4-2.2,22c0,0.5,0.2,0.9,0.8,1.1c16.8,6.5,34.8,10.8,52.1,15.9
			c17.4,5.2,34.8,10.4,52.2,15.6c0.3,0.1,0.6,0.1,0.8,0c0.2,0.6,0.8,1.1,1.7,0.9C993.2,544.9,993,531.2,994.7,523.9z M983.4,544.3
			C983.3,544.3,983.3,544.3,983.4,544.3c-0.1-0.4-0.4-0.7-0.9-0.8c-17.4-5.2-34.8-10.4-52.2-15.6c-16.9-5.1-33.9-11.2-51.1-15
			c0,0-0.1-0.1-0.1-0.1c-4.6-3.7,0.7-14.4,2-18.6c1.5-5.1,3.1-10.2,4.7-15.2c3.4-10.6,6.9-21.2,10.6-31.7c1.7-4.8,3.1-14.1,9.2-14.9
			c4.8-0.6,12.8,3.1,17.4,4.3c11.1,2.9,22,6,33,9.4c10.4,3.2,20.7,6.6,31,10.3c5.4,1.9,11.8,3.5,16.8,6.2c9.2,5.1,4.8,9.4,2,16.6
			c-4.1,10.4-7.6,20.9-10.6,31.7c-1.4,5.1-2.7,10.3-3.9,15.4C990.1,530.9,989.6,542.7,983.4,544.3z"/>
		<path class="st2" d="M1004.3,466.1c0.3-0.7,0.2-1.6-0.7-1.9c-15.9-5-32.1-9.6-48.1-14.2c-16-4.6-32-10.2-48.3-13.4
			c-0.3-0.1-0.6,0-0.8,0.2c-0.6-0.4-1.7-0.4-2,0.6c-8.4,22.5-16.9,45.6-22,69.1c0,0.1,0,0.2,0,0.3c-0.8,0.2-1,1.3-0.1,1.6
			c16.2,5.4,32.7,9.8,49,14.9c16.3,5.1,32.3,11,48.6,16.1c0.6,0.2,1.1,0,1.4-0.4c0.4,0.3,1.1,0.2,1.4-0.4
			c9-23.1,15.9-47.2,23.5-70.8C1006.6,466.4,1005.2,465.7,1004.3,466.1z M895,509.6c-2.2-4.6,9.1-1.7,10.6-1.3
			c1.5,0.4,3.7,0.7,4.2,2.2c0.3,1.1-0.3,2-0.4,3.1C904.6,512.2,899.9,510.9,895,509.6C895.1,509.6,895.1,509.6,895,509.6z
			 M1003.6,466.9c-7.6,23.3-16.2,46.6-22.5,70.3c-0.1-0.1-0.3-0.3-0.5-0.4c-15.8-6.3-32.3-11.2-48.6-16.2
			c-6.8-2.1-13.7-4.3-20.6-6.3c0.7-2.1,2.2-4.4,0.1-6.2c-2.5-2-7.3-2.6-10.4-3.2c-2.3-0.4-5.3-1-7.1,1c-0.9,1-1.2,2.2-0.8,3.3
			c-3-0.8-6-1.5-9.1-2.2c0,0,0,0,0,0c7.6-22.9,14.1-46.1,22.5-68.7c15.6,5.8,32.1,9.6,48,14.3c16,4.7,32,9.7,48.1,14.2
			c0.4,0.1,0.7,0,1-0.1C1003.7,466.7,1003.7,466.8,1003.6,466.9z"/>
		<path class="st2" d="M925.8,486.8c-2-0.8-4.2-1.2-6.4-1.3c1.5-1.5,2.8-3.3,3.7-5.3c1-2,2.5-5.2,1.1-7.3c-2.6-4.2-8.7-0.8-8.8,3.3
			c0,0.9,1.3,1.2,1.6,0.3c0.4-1.5,2.1-4,4.1-3c2.2,1,0.3,4.5-0.3,5.7c-1.4,2.7-3.4,4.8-5.7,6.6c-1,0.7-0.2,2.4,0.9,2.4
			c3.1,0.1,6,0.6,9,1.3C926.7,489.7,927.4,487.4,925.8,486.8z"/>
		<path class="st2" d="M963.6,493.1c0.5-3.1-1.3-5.9-4-7.2c0.9-1.4,0.9-3.2-0.1-4.6c-2.2-2.9-7-3-9,0.1c-0.4,0.7,0.5,1.5,1.1,0.9
			c0.8-1,1.9-1.5,3.3-1.4c2.6,0.2,3.1,1.6,1.6,4.3c-1.7,0-1.8,2.6-0.1,2.6c2.4,0,4.7,1.9,4.5,4.5c-0.1,1.9-1.5,3-3.2,3.3
			c-0.2-0.1-0.4-0.2-0.7-0.3c-0.9-0.1-1.9-0.1-2.8-0.1c-1.7,0-1.9,2.2-0.5,2.8C957.7,499.8,962.8,497.5,963.6,493.1z"/>
		<path class="st2" d="M995.4,468.2c-2.8-0.9-5.7-1.4-8.5-2c-0.9-0.2-1.3,1.1-0.4,1.4c2.8,0.8,5.6,1.7,8.4,2.2
			C995.9,470,996.4,468.5,995.4,468.2z"/>
		<path class="st2" d="M995.6,471.7c-2.5-0.4-4.9-0.9-7.3-1.7c-0.8-0.3-1.4,1-0.6,1.3c2.4,1.1,5,2,7.6,2.3
			C996.4,473.7,996.7,471.9,995.6,471.7z"/>
	</g>
	<g>
		<path class="st2" d="M725.7,30.6c-15.3-5.9-35.9,1.4-43.1,16.5c-7.4,15.4,3,34.3,17.3,41.2c14.7,7,35.2,1.2,42.6-13.7
			c0.3-0.1,0.5-0.3,0.7-0.7C750.3,57,743.2,37.3,725.7,30.6z M703.2,86.5c-13.8-5.3-24.5-22.6-18.4-37.1c6-14.4,25.6-21.4,39.7-16.1
			c15.9,6.1,22.4,24.1,16,39.4c-0.1,0.3-0.1,0.6-0.1,0.9C731.4,84.7,717.9,92.1,703.2,86.5z"/>
		<path class="st2" d="M798.3,88.3c-0.1-0.6-0.4-1.1-1.1-1.3c-11.1-2.7-20.5-12-31.8-13.6c-0.5-0.5-1.5-0.7-2.1,0
			c-0.4,0.5-0.8,1-1.2,1.6c-1.3-0.4-2.6-0.6-3.9-1c-1.6-0.4-3.2-1-4.9-1.3c5.2-17.9-1.3-38.7-18-48.5c-18.3-10.8-42-6.2-55.4,10.1
			c-7.2,8.8-11.8,20.3-10.7,31.8c1.1,12.3,8.3,21,18.2,27.7c10.5,7.1,21,10.6,33.7,7.4c11.9-3,23.6-10.4,30.5-20.7
			c0.9,0.4,1.8,0.8,2.7,1.2c1,0.4,2,1,3.1,1.4c-0.2,0.6-0.3,1.2-0.3,1.8c0,0.3,0.2,0.5,0.4,0.5c-0.1,0.3-0.1,0.6,0.2,0.8
			c10,7.4,22.5,11.7,34.3,15.1c0.3,0.1,0.5,0,0.8-0.1c3.4,0.1,6.5-2.3,7.4-5.6C800.7,94.1,800.4,88.8,798.3,88.3z M747.6,79.2
			c-0.4,0.8,0,1.4,0.5,1.8c-7.3,7.3-14.9,13.5-25,16.7c-12.6,4-23.2,1.1-33.8-6.1c-10.8-7.3-18-17.4-17.1-30.9
			c0.6-9.8,5.4-19.3,12-26.5c13.2-14.4,36.2-17,52.3-5.6C752.4,39.9,756.3,62.3,747.6,79.2z M755.1,80.2c-1-0.4-2-0.7-3.1-1.1
			c-0.2-0.3-0.5-0.5-0.8-0.6c0.7-1.5,1.2-3,1.7-4.6c1.6,0.7,3.2,1.2,4.8,1.7c1.1,0.4,2.2,0.8,3.3,1.2c-0.5,0.8-0.9,1.7-1.4,2.5
			c-0.4,0.6-0.9,1.3-1.3,2.1C757.3,81,756.2,80.6,755.1,80.2z M798.1,93.2c0.1,1.2-0.2,2.3-0.8,3.3c-0.9,1.5-2.4,2.4-4,2.9
			c-0.1-0.2-0.3-0.4-0.6-0.5c-11.9-3.5-22.7-8.9-34.1-13.7c1.5-1,2.4-3.1,3.3-4.5c1.1-1.7,2.4-3.5,3.3-5.3
			c5.1,2.5,10.2,4.8,15.2,7.5c5.1,2.7,10.1,5.2,15.7,6.7c0,0.7,0.8,1.4,1.6,1.1C797.4,90.9,798.1,92.7,798.1,93.2z"/>
		<path class="st2" d="M717.4,33.7c-4-0.9-8.8-0.3-12.6,1.2c-0.6,0.3-0.4,1.4,0.3,1.2c4.2-1,7.8-0.9,12-0.5
			C718.3,35.8,718.6,34,717.4,33.7z"/>
		<path class="st2" d="M716.3,37.4c-2.3-1.4-5.6-1.2-8-0.3c-0.7,0.3-0.4,1.5,0.3,1.3c1.2-0.2,2.4-0.4,3.7-0.3
			c1.2,0.1,2.2,0.5,3.4,0.7C716.5,38.9,717,37.8,716.3,37.4z"/>
		<path class="st2" d="M718.5,82.3c-4.3,1.5-8.4,1.6-12.8,0.9c-0.7-0.1-1.1,1-0.4,1.2c4.5,1.4,9.4,1.1,13.9-0.3
			C720.4,83.7,719.6,81.9,718.5,82.3z"/>
		<path class="st2" d="M788.6,92.7c-1.4-0.3-2.9-0.4-4.3-0.7c-1.5-0.3-3-0.9-4.5-1.4c-0.6-0.2-1,0.6-0.4,0.9
			c2.6,1.4,6.2,2.7,9.2,2.5C789.4,93.9,789.3,92.8,788.6,92.7z"/>
		<path class="st2" d="M789.4,90.6c-0.9-0.2-1.9-0.2-2.8-0.3c-0.9-0.1-1.8-0.3-2.8-0.5c-0.7-0.1-1,0.9-0.3,1.2
			c1.8,0.7,4,1.2,5.9,1.3C790.3,92.3,790.3,90.8,789.4,90.6z"/>
	</g>
	<g>
		<path class="st2" d="M794.3,44.4c6.6-11.2,14.1-22,20.6-33.4c0.2-0.3,0.1-0.7-0.1-0.9c0.6,0,1.1-0.3,1.2-1.1
			c2.4-13.4,4.9-26.7,7.6-40c2.4-11.6,7-24.5,7.1-36.4c2.3-0.8,3.7-3.1,3.3-5.7c-0.2-1.1-0.7-2.1-1.4-2.9c3-2,4.2-5.6,2.7-9.1
			c-0.6-1.5-1.6-2.7-2.8-3.5c1.2-3.1,3.4-8.2,1.1-11c-1.9-2.3-6.4-2.1-9.1-2.2c-3.9-0.2-8.6-0.2-11.5,2.7c-2.7,2.7-3.1,6.8-3.4,10.5
			c0,0.5,0.2,0.8,0.5,0.9c-4.1,1.9-6.9,5.1-6,10.4c-1.3,0.9-2.2,2.2-2.3,4.3c0,0.6,0.3,0.9,0.7,1c0,0.1,0,0.1,0,0.2
			c-8.4,24.1-13.8,49.5-18.8,74.4c-0.2,0.2-0.3,0.5-0.2,0.8c0.1,0.3,0.1,0.7,0.2,1c-0.1,0.1-0.1,0.1-0.2,0.2
			c-0.7,0.7-0.2,1.6,0.5,1.8c2.1,12.7,5,25.2,7.8,37.8C792.2,45.4,793.8,45.3,794.3,44.4z M829.4-67.2c-4.9,10.7-6.1,24.2-8.5,35.6
			c-2.6,12.9-5.1,25.8-7.4,38.7c-2.1-1.8-5.2-1.9-7.7-0.6c7.8-23.9,12.4-49.9,16.1-74.6c0-0.2,0-0.3,0-0.5c2.4,0.3,4.8,0.6,7.2,0.7
			C829.2-67.5,829.2-67.3,829.4-67.2z M801.7,2c-2.2-0.5-4,0.5-5.6,2c7.4-23.8,12.3-48.6,17.7-72.9c0.1-0.2,0-0.4-0.1-0.6
			c2.2,0.3,4.3,0.6,6.5,0.9c0,0.1-0.1,0.2-0.1,0.3c-5,24.5-11.1,49.1-15.4,73.7C804.4,3.8,803.7,2.5,801.7,2z M811.9-88.6
			c0.2-2.3,0.4-5,1.5-7.1c2-3.6,6-3.8,9.6-3.8c2.9,0,5.8-0.2,8,1.9c1.8,1.8,1.3,2.7,1,5.2c-0.2,1.1-0.3,2.3-0.5,3.4
			c-1.7-0.9-3.8-1.2-5.9-1.2c-4,0-9.4,0.4-13.8,1.9C811.9-88.4,811.9-88.5,811.9-88.6z M821.2-87.8c1.9-0.2,3.9-0.5,5.8-0.3
			c6.6,0.8,8.7,6.4,5,11.5c-1.6-1.5-3.8-2.3-5.9-2.6c-5.6-0.8-12.4-0.2-18,0.5c-0.7,0.1-1.3,0.2-1.9,0.4
			C805.4-86,815.5-87.1,821.2-87.8z M820-77c2.1-0.1,4.3-0.3,6.3,0.1c3.7,0.7,6.9,5.3,4.3,8c-0.1-0.1-0.2-0.1-0.3-0.2
			c-8.3-2.7-17.6-3.5-26.3-4.1C804.8-77.8,817.1-76.8,820-77z M804.1-70.8c2.6,0.3,5.1,0.6,7.7,1c-0.1,0.1-0.1,0.2-0.2,0.4
			c-5.6,24.3-12.3,48.6-16.7,73.2c-2.2-1.9-5.6-2.1-8.3-1.1C791.5-22.1,798.3-46.3,804.1-70.8z M786.3,5.3c2.5-1.6,5.8-1.1,8.2,0.6
			c-0.2,1,1.1,2,2,1c1.5-1.8,4.8-4.6,6.3-0.9c0.4,1.1,0.5,2.3,1,3.3c0.3,0.7,1.4,0.7,1.8,0.2c2.1-2.4,5.3-2.3,7.7-0.6
			c0.1,0.3,0.2,0.6,0.4,0.8c-0.1,0-0.3,0.1-0.4,0.3c-4.6,6-8.8,12.4-12.8,18.8c-2.4-2.4-6.5-2.6-9.5-1
			C789.5,20.3,788,12.8,786.3,5.3z M791.6,30.2c2.6-1.7,5.5-1.6,8.2-0.1c-2,3.4-4.1,6.8-6,10.1C793,36.9,792.3,33.6,791.6,30.2z"/>
		<path class="st2" d="M804.4,20.1c1-2.2,1.9-4.4,3.2-6.5c0.2-0.4-0.4-0.8-0.6-0.4c-1.4,2-2.8,4.2-3.6,6.6
			C803.1,20.3,804.1,20.7,804.4,20.1z"/>
		<path class="st2" d="M801.1,22c1.4-1.6,2.4-3.7,3-5.7c0.2-0.6-0.8-1-1-0.4c-0.9,1.8-1.9,3.4-3.1,5.1
			C799.3,21.8,800.4,22.8,801.1,22z"/>
	</g>
	<g>
		<path class="st2" d="M651.1,375.2c-22.4-1.3-44.5,13.1-52.7,33.9c-8.3,21.1-2.8,46.3,13.3,62.1c19.4,19.2,51.4,24.3,74.1,8.7
			c0.4,0.7,1.3,1,2,0.4c18.2-15.3,26.4-39.9,19-62.8C699.3,393.8,676,376.6,651.1,375.2z M654.2,378.8c15.1,1.5,29.9,9.1,39.9,21.2
			c1.6,1.9,3,4,4.3,6c-0.7,3.7-0.6,5.3-3.2,8.4c-2.7,3.2-3.9,3.1-7.6,2c-3.8-1.2-6.9-3.5-10.4-5.4c-2.5-1.4-5.7-2.3-7.2,0.1
			c-0.2-0.1-0.5,0-0.8,0.2c-6.2,5,7.3,7,8.7,8c2.8,2,3,6.2,6.4,7.3c3.4,1.1,8.8-0.8,12.4-1.8c0,0.1,0,0.2,0,0.3
			c1.6,6.1-0.1,11.8-1.7,17.7c-1.8,6.9-6.1,28.4-18.3,18.5c-7.2-5.8-5.5-16.5-15.1-20c-0.2-0.7-1.2-1.3-1.9-0.7
			c-1.5,1.3-3.2,2.6-5,3.5c-3.8,1.8-5.4,2-8.7-0.5c-3.2-2.4-3.4-3.1-2.9-6.9c0.3-2.7,1.3-5.5,2.8-7.8c4.1-6.2,11-9,17.2-12.6
			c0.1-0.1,0.1-0.1,0.2-0.2c0,0,0.1,0,0.1,0c0.1,0,0.2-0.1,0.3-0.1c0.8-0.2,0.7-1.2,0.2-1.6c-0.3-0.3-0.4-1.4-0.8-1.9
			c-0.4-0.4-1-0.7-1.5-0.8c-1.8-0.6-4.1-0.6-6-0.5c-3.3,0.2-6,1.7-7.2,4.6c-0.3-0.5-0.9-0.7-1.5-0.3c-1.6,1.1-2.9,2.7-4.9,3
			c-1.8,0.2-3.6-1.1-4.1-2.8c-0.5-1.7,0.3-3.7,1.8-4.7c1.8-1.3,4.1-0.8,5.9,0.2c0.4,0.2,1,0,1.1-0.5c0.7-0.1,1.2-0.9,0.9-1.6
			c-2-4.9,4.9-7.5,5.8-12.1c0.9-1.1-0.4-2.9-1.7-1.9c-1.9,1.6-3.7,1.1-5.2-1.5c-0.1-1.1,0.1-2.1,0.5-3.1c0.4-1.4,1-2.7,1.6-4
			C650,383.3,651.8,380.9,654.2,378.8z M600.2,413.7c2.7,3.4,4.2,6.8,3.5,11.6c0,0.3,0.1,0.6,0.4,0.8c-0.6,0.6-0.7,1.8,0.3,2.3
			c2.3,1.3,6.2,0.8,8.2,2.3c0.8,2.2,1.5,4.4,2.3,6.6c-0.9,1.4-2,2.7-3.4,3.7c-0.9,0.9-2,1.6-2.6,2.8c-3.1,5.1,3.6,12.2-2.7,16
			C597.4,445.8,595.5,428.7,600.2,413.7z M615.5,470.8c1.8,0.3,5.4,1.7,6.8,1.4c1.9-0.3,3.4-1.7,5.1-2.1c3.4-0.6,6.1,0.9,9,1.6
			c3.1,0.7,5.5,0.6,8.7,0.5c2.5-0.5,5-0.4,7.5,0.3l2.7,7c0.1,2.1-1.4,4.4-2,6.4C639.5,485.5,625.9,480.3,615.5,470.8z M687.5,476.8
			c-9.9,6.2-21.2,9.2-32.4,9.1c1-1.7,2.5-5.6,2.6-6c0.5-2.2,0.8-4.6-0.3-6.7c-2.2-4.2-7.3-4.3-11.5-4c-2.9,0.3-5.3,0.9-8.3-0.2
			c-1.5-0.5-2.6-1.7-4.1-2.2c-1.9-0.6-3.4-0.6-5.4,0c-1.5,0.4-2.7,1.4-4.2,1.8c-2.2,0.6-4.8-0.8-6.8-0.7c-1.9,0.1-1.9-0.5-3.6,0.8
			c0,0,0,0.1-0.1,0.1c-2.2-2.2-4.3-4.7-6.1-7.4c-0.1-0.1-0.2-0.3-0.3-0.4c2.6-1.2,4.3-3.5,4.4-6.5c0.1-1.9-0.9-3.8-1-5.7
			c-0.1-5.5,4.1-6,6.3-9.7c1.6-2.6,2-6.1,0.1-8.7c-2.6-3.6-7.8-3-11.5-4.6c-0.1,0-0.1,0-0.2,0c0,0,0-0.1,0.1-0.1
			c1.5-4.9,0.1-11.5-4.1-14.8c0.8-2.1,1.8-4.2,2.8-6.2c1.2,5.2,9.9,11.1,14.2,6.3c1.3-1.5,1.7-3.4,1.6-5.3c0-1.4-1-3.6-0.7-4.9
			c0.4-1.6,2.1-2.6,3-3.7c2.6-3.2,3-7.7-1-9.9c-1.3-0.7-2.2,1.2-1.2,2.1c0.2,1.9,0.3,3.8,0.5,5.7c-0.6,0.7-1.2,1.4-1.9,2
			c-0.4,0.4-0.8,0.7-1.2,1.1c-0.7,0.9-0.9,1.4-0.9,2.6c0,2,1.9,6,0.5,7.7l-5.6,1.5c-0.7-0.4-1.4-0.8-2.1-1.2
			c-1.7-1.2-4.4-4.5-3.5-6.9c3.1-4.9,7-9.2,11.8-12.9c10-7.6,21.9-10.8,33.7-10.2c-1.5,1.4-2.8,3-3.9,4.9c-1.5,2.6-3.5,6-3.7,9.1
			c-0.3,4,3.4,6.6,6.8,5.9c-0.5,0.7-1.1,1.4-1.7,2c-1.2,1.2-2.6,2.2-3.5,3.8c-0.8,1.4-1.1,3.2-0.5,4.6c-4.1-2.2-9.9,0.9-9.5,6.2
			c0.2,2.7,2.3,5.1,4.9,5.7c2.9,0.7,6.3-1,8-3.5c0.3,0.5,1,0.6,1.3-0.1c1.4-3,3.8-4.1,7-3.9c2.1,0.1,4.5,0.1,5.5,2.1c0,0,0,0,0,0.1
			c-11.5,3.4-22.8,11.9-21.5,25.2c1.2,11.7,14.3,7.8,20.5,2c8.9,4.9,7.8,16.7,15.7,22.4c3.8,2.8,8.9,3.5,12.6,0.2
			c4.9-4.4,6.2-13.4,7.9-19.4c2-7.2,4.5-14.4,1.9-21.7c-0.1-0.4-0.4-0.6-0.7-0.7c-0.1-0.3-0.3-0.6-0.8-0.5c-2.9,0.3-5.8,0.7-8.6,1.2
			c-3.8,0.6-5.5-2.4-7.6-5c-1-1.2-2.1-2.1-3.5-2.8c-0.9-0.5-6.8-1.7-7.2-3.1c0.1-0.1,0.2-0.2,0.3-0.3c1.7-3.6,11.2,3.8,13.2,4.8
			c2.7,1.3,5.5,2.2,8.5,2c5.6-0.3,7.7-5,8.2-9.9C712,432.1,706.5,459.8,687.5,476.8z"/>
		<path class="st2" d="M677,388.4c-0.7-0.1-1.1,1-0.3,1.3c0.8,0.2,8.6,2.9,8,3.9c-0.6,1,0.6,1.9,1.4,1.1
			C689.2,391.4,678.6,388.7,677,388.4z"/>
		<path class="st2" d="M679.2,391.9c-0.7-0.1-1,1-0.3,1.2c2.4,0.9,4,2.3,5.4,4.4c0.5,0.8,2,0,1.5-0.9
			C684.5,394.3,682,392.4,679.2,391.9z"/>
		<path class="st2" d="M674.1,476.9c-1.4,0.7-2.7,1.6-4.1,2.1c-1.6,0.6-3.3,0.8-5,1c-0.6,0.1-0.6,1,0,1.1c3.3,0.2,7.3-0.7,9.9-2.8
			C675.6,477.7,674.9,476.4,674.1,476.9z"/>
		<path class="st2" d="M674.3,474.3c-1.1,0.3-2.1,0.7-3.1,1.1c-1,0.4-2.1,0.7-3.1,1.2c-0.4,0.2-0.3,0.8,0.2,0.8
			c1.1-0.1,2.1-0.5,3.2-0.7c1.2-0.3,2.3-0.5,3.5-0.9C675.8,475.4,675.2,474,674.3,474.3z"/>
		<path class="st2" d="M620.3,434.9c-0.1,1.2,0.2,2.4-0.1,3.7c-0.2,1.3-0.8,2.6-1.5,3.7c-0.4,0.7,0.5,1.5,1.1,0.8
			c1.8-2.1,3.1-5.7,2.3-8.5C621.8,433.8,620.4,434,620.3,434.9z"/>
		<path class="st2" d="M625.2,432.6c-0.4,2.6-1,4.9-2.3,7.3c-0.4,0.7,0.8,1.3,1.2,0.7c1.5-2.3,2.7-5,3.1-7.7
			C627.4,431.6,625.4,431.3,625.2,432.6z"/>
	</g>
	<g>
		<path class="st2" d="M482.4,337.2c-3.9-12.2-7.4-24.6-11.6-36.8c-0.2-0.6-0.7-0.9-1.2-0.9c-0.3-0.6-0.9-0.9-1.6-0.7
			c-32.5,10.2-65.2,19.6-98.1,28.1c-0.8,0.2-1.1,1-1,1.8c3,15.5,6.6,30.8,10.9,46c2,7,3.9,14.2,6.4,21.1c1.3,3.5,2.5,6.4,5.6,8.3
			c-0.1,0.4,0.1,0.9,0.6,0.9c7.6-0.5,15-3.6,22.3-5.8c4.6-1.4,9.3-2.7,13.9-4.1c0.4,3.7,0.3,7.2-1.4,10.6c-1.7,3.6-4.4,5.4-7.3,7.9
			c-0.5,0.4-0.4,1.1,0,1.5c-0.1,0.1-0.2,0.2-0.2,0.3c-0.3,1.8,0,3.9,0.7,5.6c-0.1,0.4,0.2,0.8,0.8,0.8c0.1,0,0.2,0,0.3,0
			c0.1,0,0.2,0,0.3-0.1c18.2-3.1,36.2-9.2,53.6-15.2c0.6-0.2,0.9-0.8,0.8-1.4c-0.6-2.2-0.4-1.8-1.5-3.7c-0.2-0.3-0.4-0.5-0.7-0.5
			c0.4-0.8,0-1.9-1.1-1.8c-3.8,0.4-7.4-3.6-9.6-6.3c-1.7-2-2.9-4.3-4-6.6c11.3-3.3,22.5-6.5,33.8-9.7c0.8-0.2,1.1-0.9,1-1.6
			c0.2-0.2,0.3-0.5,0.2-0.9C490.9,361.5,486.3,349.4,482.4,337.2z M384.1,380c-2.1-7.1-4-14.2-5.8-21.3c-1.5-6.1-3-12.3-4.3-18.4
			c-0.8-3.7-3.1-8.4-0.3-11.4c1.4-1.5,7.7-2,9.6-2.5c28.5-7.5,56.9-15.7,85-24.6c4.7,18.1,10.2,36.9,16.7,54.8
			c-33,10.4-66.6,18.8-99.6,28.9C385,383.4,384.6,381.5,384.1,380z M472.6,402.6c1.4,3.5-21.7,9.4-24.8,10.3
			c-8.6,2.5-17.3,4.7-25.8,7.3c-0.5-1.2-0.8-2.5-1.2-3.8C438.3,413.3,455.8,408.4,472.6,402.6z M462.9,396.3c1.7,1.8,4,4,6.5,4.9
			c-15.1,4.4-30.2,8.5-45.3,12.8c5.6-4.1,8.3-13.2,5.9-19.4c3.7-1.1,7.4-2.2,11.1-3.3c5.4-1.6,10.7-3.1,16.1-4.7
			C458.3,390.2,460.3,393.5,462.9,396.3z M440.3,388.4c-8.4,2.5-16.7,4.9-25,7.4c-7,2.1-14.8,3.6-21.4,6.9c0,0-0.1-0.1-0.1-0.1
			c-4.2-2.7-6.3-9.2-7.8-15.2c33.8-7,67.2-17.8,100.1-28.2c1.8,4.8,3.7,9.6,5.7,14.3C474.6,378.4,457.5,383.4,440.3,388.4z"/>
		<path class="st2" d="M442.4,377.9c-1.8-1.7-5.9-1.8-7.1,0.7c-1.3,1.5-1.7,3.8-0.6,5.6c1.5,2.5,5.2,3.1,7.4,1.3
			C444.3,383.6,444.5,379.8,442.4,377.9z M440.7,383.4c-1.1,1.2-3.2,0.8-4.1-0.5c-0.6-0.9-0.5-1.9-0.1-2.8c0,0,0,0,0,0
			c1.2-0.7,2.4-1.5,3.8-0.6C441.7,380.2,441.8,382.3,440.7,383.4z"/>
		<path class="st2" d="M464.3,310.8c-0.4-1-1.7-1-2.2-0.4c-0.2-0.5-0.7-0.8-1.3-0.6c-27.1,8-54.5,15.5-81.4,24.5
			c-0.1,0-0.2,0.1-0.3,0.2c-0.5,0.2-0.8,0.6-0.7,1.3c0.6,3.4,2.2,5.9,3.2,9.2c1.1,3.5,1.1,7.3,2,10.9c1,3.8,2.2,7.3,2.7,11.2
			c0.5,3.8,0.4,5.4,2.2,8.5c-0.2,0.5,0.2,1.3,0.9,1.1c28.9-7.5,57.6-15.9,86.4-23.6c0.7-0.2,0.9-0.9,0.7-1.4c0.5,0.1,1.1-0.1,1-0.7
			C475.5,337,469.3,323.8,464.3,310.8z M389.1,374.9c-0.7-7-1.7-12.9-3.5-19.8c-0.8-3.2-0.9-6.5-1.7-9.7c-0.9-3.4-2.7-6.4-3.4-9.9
			c27.2-7.1,54-15.6,80.9-23.5c0.3-0.1,0.5-0.2,0.6-0.4c5,13,10.3,25.8,14,39.2c-0.2-0.1-0.5-0.2-0.8-0.1
			C446.3,358,417.3,365.5,389.1,374.9z"/>
		<path class="st2" d="M395,333.3c-1.5,0.4-2.8,1.1-4.3,1.6c-1.5,0.5-3,0.7-4.4,1.1c-0.5,0.2-0.4,1,0.1,1c2.9,0.1,6.7-0.9,9.1-2.6
			C396.1,334,395.7,333.1,395,333.3z"/>
		<path class="st2" d="M396.7,335.2c-2.1,1.5-4.3,2.3-6.8,2.8c-0.7,0.1-0.5,1.2,0.2,1.2c2.7-0.1,5.3-1.1,7.4-2.6
			C398.3,336,397.5,334.6,396.7,335.2z"/>
		<path class="st2" d="M467.5,358.5c-3.5,0.7-7,2-10.3,3.2c-0.5,0.2-0.3,0.8,0.2,0.7c3.4-0.7,7.1-1.5,10.4-2.8
			C468.6,359.4,468.3,358.4,467.5,358.5z"/>
		<path class="st2" d="M467.7,356.2c-2.5,0.5-4.9,1.5-7.1,2.7c-0.6,0.3,0,1.1,0.5,0.8c2.3-1,4.6-1.6,7-2.2
			C468.9,357.4,468.5,356.1,467.7,356.2z"/>
		<path class="st2" d="M446.8,380.2c0.4,1.3,0.2,2.6-1.1,3.4c-0.5,0.3,0,1,0.5,0.7c1.5-0.8,2.5-2.8,1.8-4.5
			C447.7,379.2,446.5,379.5,446.8,380.2z"/>
		<path class="st2" d="M450.9,379.5c-0.3-0.8-1.7-0.5-1.4,0.4c0.4,1,0.3,2.1-0.6,2.9c-0.4,0.3,0,1,0.5,0.7
			C450.7,382.7,451.5,381,450.9,379.5z"/>
		<path class="st2" d="M440.3,406.4c-2.8,0.9-5.6,1.7-8.3,2.7c-0.4,0.2-0.2,0.7,0.2,0.6c2.8-0.5,5.7-1.4,8.5-2.1
			C441.5,407.5,441.1,406.1,440.3,406.4z"/>
		<path class="st2" d="M440.4,403.9c-2,0.6-3.9,1.3-5.9,1.9c-0.5,0.2-0.3,0.9,0.2,0.8c2-0.5,4-1,6-1.6
			C441.5,404.8,441.2,403.7,440.4,403.9z"/>
	</g>
	<g>
		<path class="st2" d="M980.7-39.5c-3.9-12.2-7.4-24.6-11.6-36.8c-0.2-0.6-0.7-0.9-1.2-0.9c-0.3-0.6-0.9-0.9-1.6-0.7
			C933.7-67.7,901-58.3,868-49.8c-0.8,0.2-1.1,1-1,1.8c3,15.5,6.6,30.8,10.9,46c2,7,3.9,14.2,6.4,21.1c1.3,3.5,2.5,6.4,5.6,8.3
			c-0.1,0.4,0.1,0.9,0.6,0.9c7.6-0.5,15-3.6,22.3-5.8c4.6-1.4,9.3-2.7,13.9-4.1c0.4,3.7,0.3,7.2-1.4,10.6c-1.7,3.6-4.4,5.4-7.3,7.9
			c-0.5,0.4-0.4,1.1,0,1.5c-0.1,0.1-0.2,0.2-0.2,0.3c-0.3,1.8,0,3.9,0.7,5.6c-0.1,0.4,0.2,0.8,0.8,0.8c0.1,0,0.2,0,0.3,0
			c0.1,0,0.2,0,0.3-0.1c18.2-3.1,36.2-9.2,53.6-15.2c0.6-0.2,0.9-0.8,0.8-1.4c-0.6-2.2-0.4-1.8-1.5-3.7c-0.2-0.3-0.4-0.5-0.7-0.5
			c0.4-0.8,0-1.9-1.1-1.8c-3.8,0.4-7.4-3.6-9.6-6.3c-1.7-2-2.9-4.3-4-6.6c11.3-3.3,22.5-6.5,33.8-9.7c0.8-0.2,1.1-0.9,1-1.6
			c0.2-0.2,0.3-0.5,0.2-0.9C989.2-15.2,984.6-27.3,980.7-39.5z M882.4,3.3c-2.1-7.1-4-14.2-5.8-21.3c-1.5-6.1-3-12.3-4.3-18.4
			c-0.8-3.7-3.1-8.4-0.3-11.4c1.4-1.5,7.7-2,9.6-2.5c28.5-7.5,56.9-15.7,85-24.6c4.7,18.1,10.2,36.9,16.7,54.8
			c-33,10.4-66.6,18.8-99.6,28.9C883.3,6.8,882.8,4.9,882.4,3.3z M970.8,25.9c1.4,3.5-21.7,9.4-24.8,10.3
			c-8.6,2.5-17.3,4.7-25.8,7.3c-0.5-1.2-0.8-2.5-1.2-3.8C936.5,36.7,954.1,31.8,970.8,25.9z M961.1,19.6c1.7,1.8,4,4,6.5,4.9
			c-15.1,4.4-30.2,8.5-45.3,12.8c5.6-4.1,8.3-13.2,5.9-19.4c3.7-1.1,7.4-2.2,11.1-3.3c5.4-1.6,10.7-3.1,16.1-4.7
			C956.5,13.6,958.6,16.9,961.1,19.6z M938.6,11.8c-8.4,2.5-16.7,4.9-25,7.4c-7,2.1-14.8,3.6-21.4,6.9c0,0-0.1-0.1-0.1-0.1
			c-4.2-2.7-6.3-9.2-7.8-15.2c33.8-7,67.2-17.8,100.1-28.2c1.8,4.8,3.7,9.6,5.7,14.3C972.9,1.8,955.7,6.8,938.6,11.8z"/>
		<path class="st2" d="M940.6,1.2c-1.8-1.7-5.9-1.8-7.1,0.7c-1.3,1.5-1.7,3.8-0.6,5.6c1.5,2.5,5.2,3.1,7.4,1.3
			C942.6,6.9,942.8,3.2,940.6,1.2z M939,6.7c-1.1,1.2-3.2,0.8-4.1-0.5c-0.6-0.9-0.5-1.9-0.1-2.8c0,0,0,0,0,0
			c1.2-0.7,2.4-1.5,3.8-0.6C940,3.6,940,5.6,939,6.7z"/>
		<path class="st2" d="M945,3.6c0.4,1.3,0.2,2.6-1.1,3.4c-0.5,0.3,0,1,0.5,0.7c1.5-0.8,2.5-2.8,1.8-4.5C945.9,2.5,944.8,2.8,945,3.6
			z"/>
		<path class="st2" d="M949.2,2.9c-0.3-0.8-1.7-0.5-1.4,0.4c0.4,1,0.3,2.1-0.6,2.9c-0.4,0.3,0,1,0.5,0.7
			C949,6.1,949.8,4.3,949.2,2.9z"/>
		<path class="st2" d="M938.6,29.8c-2.8,0.9-5.6,1.7-8.3,2.7c-0.4,0.2-0.2,0.7,0.2,0.6c2.8-0.5,5.7-1.4,8.5-2.1
			C939.8,30.9,939.4,29.5,938.6,29.8z"/>
		<path class="st2" d="M938.7,27.3c-2,0.6-3.9,1.3-5.9,1.9c-0.5,0.2-0.3,0.9,0.2,0.8c2-0.5,4-1,6-1.6
			C939.8,28.2,939.4,27.1,938.7,27.3z"/>
	</g>
	<g>
		<path class="st2" d="M255.4,382.6c5.8,2.4,12.2,2.9,18.3,1.9c2.8-0.5,5.4-1.3,8-2.3c3.7-1.5,8.7-5.8,12.9-6c3,11.7-3,24.2-12,32.6
			c-0.8,0.8,0.3,2.1,1.2,1.5c5.8-3.7,10.6-10.9,12.8-18.7c1.5,5.9,4.3,9.9,10.7,11.8c7,2.1,14.5,0.7,21.5-1.1c1.3-0.3,1-1.9,0-2.3
			c-6.8-2.6-9.8-10.1-16.7-12.8c-4.7-1.9-9.8-1.9-14.4-0.1c0.5-3.5,0.5-7-0.2-10.3c11.5,0.4,23.9-3.7,28.4-15.3
			c4.6-11.6-0.7-28.3-4.9-39.4c-4-10.2-9.7-23.1-20.9-27c-10.1-3.5-17.2,3-22.7,10.5c-6-0.7-11.9-3.3-17.9-2
			c-5.4,1.1-9.6,4.8-12.6,9.3c-7.4,11.3-10.3,28.5-9.7,41.8C237.7,366.9,243.7,377.7,255.4,382.6z M317.5,393.5
			c2.2,2.2,4.2,4.5,6.5,6.3c-9-2.2-17.9-4.2-24.8-10.8c-0.3-0.3-0.6-0.3-0.9-0.2c0-0.1-0.1-0.2-0.1-0.2
			C305.2,386.9,312.2,388.2,317.5,393.5z M323.8,401c-4.2,0.9-8.5,1.4-12.7,0.7c-2.4-0.4-5.1-1.1-7.1-2.4c-3-1.9-4.2-4.9-5.1-8.1
			C305.7,397.3,314.9,399.7,323.8,401z M239.7,354.5c-0.6-10.8,2-22.8,5.7-32.9c3-8.1,8.7-16.1,18.2-16.1c4.4,0,8.4,1.3,12.7,1.5
			c-0.2,0.3-0.4,0.6-0.6,0.9c-0.9,1.3,1.3,2.5,2.2,1.2c7.1-10.4,17.7-17.6,28.7-7.1c7,6.7,11.1,17.2,14,26.3
			c2.7,8.6,5.2,18.5,4,27.6c-1.9,13.8-15.3,18.5-27.5,19c-1-3.2-2.7-6.2-5.4-8.5c4.3,0,8.7,0.2,12.2-1.5c0.8-0.4,0.2-1.7-0.6-1.4
			c-8.2,3.1-23.2-3.5-27.3,7.6c-0.4,1.2,1.5,1.9,2.1,0.8c2.5-4.5,7-5.3,11.8-5.4c1.9,2.3,3.3,4.8,4.2,7.2c-3.2,0.2-5.2,2-8.3,3.8
			c-5.6,3.2-12,5.1-18.5,5C251,382.1,240.6,370,239.7,354.5z"/>
		<path class="st2" d="M252.4,375c2,3.6,7.4,4.9,11.1,4.1c0.6-0.1,0.5-1.2-0.2-1.2c-1.9,0.2-3.8,0-5.5-0.7c-1.8-0.8-2.8-2-4.1-3.3
			C252.9,373.3,251.9,374.1,252.4,375z"/>
		<path class="st2" d="M259.8,375.6c0.6,0,0.8-1,0.1-1.1c-2-0.3-3.4-1.4-4.5-3c-0.5-0.8-1.7-0.1-1.3,0.8
			C255.2,374.3,257.6,375.6,259.8,375.6z"/>
		<path class="st2" d="M293.4,302.7c1.9,0.4,3.6,0.4,5.4,1.3c1.8,0.9,3.3,2.1,4.5,3.7c0.5,0.7,1.6,0,1.1-0.7
			c-2.2-3.4-6.7-6.8-11.1-6.1C292.4,301.1,292.5,302.6,293.4,302.7z"/>
		<path class="st2" d="M289.7,305.8c3.3-0.5,5.9,0.3,8.6,2.2c0.5,0.3,1.2-0.4,0.8-0.8c-2.3-2.8-6.2-4-9.7-3.4
			C288.2,303.9,288.5,306,289.7,305.8z"/>
	</g>
	<g>
		<g>
			<path class="st2" d="M47.5,427.2c-0.1,0.1-0.2,0.2-0.3,0.4c-11,2.3-22,5.1-32.8,8.3c-0.4,0.1-0.6,0.4-0.7,0.7
				c-1.2,1.1-1.7,3-1.3,4.5c0.4,1.8,1.8,2.9,3.4,3.3c-0.4,0.5,0,1.4,0.8,1.3c2-0.2,4.1-0.5,6.1-0.8c3.3,21.4,9.8,42.7,15.1,63.8
				c2.1,8.3,8,25.3,19.5,17.5c8.9-0.8,3-19.8,1.9-24.5c-4.6-20.4-9.2-40.8-13.8-61.1c1.8-0.4,3.7-0.8,5.5-1.2c0.8-0.2,1.1-0.8,1-1.4
				C56.9,435.2,52.5,423.6,47.5,427.2z M33.6,475.9c0.3,0.2,0.8,0.2,1.2-0.1c2.2-1.6,4.3-3.1,6.8-4c1.6-0.6,9.6-2.9,5.9,1.5
				c-1.2,1.5-5.1,2.1-6.9,2.5c-0.7,0.1-5.3,0.5-7.3,0.9c0-0.1-0.1-0.3-0.2-0.4C33.3,476.2,33.4,476,33.6,475.9z M45.9,468.5
				c-4.6,0.5-9.4,2.4-12.6,5.8c-0.3,0.3-0.3,0.6-0.3,0.9c-0.2,0.2-0.3,0.4-0.5,0.6c-0.1,0.1-0.1,0.2,0,0.3c0,0-0.1,0-0.1,0
				c-2.5-10.6-5-21.2-8.5-31.4c6.3-1,12.7-2.3,19-3.7c2.1,9.2,4.2,18.4,6.3,27.6C48.1,468.4,46.9,468.4,45.9,468.5z M54.1,524.5
				c-0.5,0-0.8,0.5-0.6,0.9c-12.7,1.5-17.1-33.5-19.1-41.1c-0.5-2.1-1-4.1-1.5-6.2c2.3,1.1,7.8-0.1,9.4-0.5c2.2-0.5,6.1-1.4,8.1-3.3
				l1.3,5.8c1.4,6.3,2.9,12.7,4.3,19C56.9,502.8,64.3,525,54.1,524.5z M50.5,436.6c-0.1,0-0.2,0-0.3,0c-10.8,2.1-21.9,3.9-32.5,7
				c0-0.2-0.2-0.4-0.5-0.5c-1.2-0.3-2.5-1.2-2.7-2.5c-0.2-1.4,0.7-2.1,1.4-3.1c10.9-2.6,21.9-5,32.8-7.5c0.4-0.1,0.7-0.3,0.9-0.6
				c1.1,0.5,1.6,2.3,1.9,3.3C51.8,434.1,51.6,435.6,50.5,436.6z"/>
		</g>
		<path class="st2" d="M44.1,451.6c-0.3-0.9-1.6-0.6-1.4,0.3c0.4,2.3,1,4.7,1.7,6.8c0.2,0.7,1.2,0.5,1.1-0.2
			C45.1,456.2,44.7,453.8,44.1,451.6z"/>
		<path class="st2" d="M40.8,449.5c-0.4-1-1.9-0.2-1.5,0.8c0.9,2.3,1.6,4.6,2.2,6.9c0.1,0.5,1,0.5,0.9-0.1
			C42.3,454.6,41.8,451.9,40.8,449.5z"/>
	</g>
</g>
</svg>
