<svg xmlns="http://www.w3.org/2000/svg" xmlns:xlink="http://www.w3.org/1999/xlink" viewBox="0 0 666.67 500"><defs><style>.cls-1{fill:none;}.cls-2{fill:#0f2820;}.cls-3{fill:#12382d;}.cls-4{fill:#387561;}.cls-5{fill:#2b5649;}.cls-6{fill:url(#New_Pattern_Swatch_7);}</style><pattern id="New_Pattern_Swatch_7" data-name="New Pattern Swatch 7" width="226.25" height="148.6" patternTransform="translate(89.24 0.97)" patternUnits="userSpaceOnUse" viewBox="0 0 226.25 148.6"><rect class="cls-1" width="226.25" height="148.6"/><rect class="cls-2" x="113.13" y="111.45" width="226.25" height="74.3"/><polygon class="cls-3" points="226 116.13 113.31 147.7 226 179.26 338.7 147.7 226 116.13"/><polygon class="cls-4" points="226 131.64 168.21 147.83 226 164.02 283.79 147.83 226 131.64"/><polygon class="cls-5" points="137.97 144.12 125.17 147.7 137.97 151.28 150.76 147.7 137.97 144.12"/><polygon class="cls-3" points="137.97 145.69 130.79 147.7 137.97 149.71 145.14 147.7 137.97 145.69"/><polygon class="cls-4" points="137.97 146.89 134.61 147.83 137.97 148.77 141.32 147.83 137.97 146.89"/><path class="cls-5" d="M226.52,124.57c-.14-.42-3.45.72-3.93.89,0,0-.06,0-.06,0h-.05c-.07,0-.15-.15-.11,0l-2.18.56c-2.38.23-5.49.23-6,.21-.64,0-3.73-.23-4.69.34s.43,1.46.43,1.46a23.35,23.35,0,0,0-2.68.44,4.73,4.73,0,0,0-1.81.84,18.69,18.69,0,0,0-9.66,2c-1.78.07-3.9.16-7.68.62-1.75.22-3.21.43-4.45.65l-.09,0c-2.76-.51-7.48-.5-9.45,1.44-1.18,1.15-.07,2.25,1,3a3.91,3.91,0,0,1-1.46.88,3.5,3.5,0,0,1-2.24,0,4.94,4.94,0,0,1-.95-.48c-2.75,2.38-.39,3.38-.39,3.38-1.48.92-4.94,1-4.94,1,1.57-2.26-1.49-2.16-3.07-2.58s-1.35-1.58-1.35-1.58c-2.62,1.8-1.06,3.23-1.06,3.23-4.05.34-5.82,3.47-7.78,5.12a6.09,6.09,0,0,1-4.07,1.47s1.76,1.23,4.9-.43,4.22-3.32,13-4.07c6.58-.57,9.56-3.5,10-4-1.75,2.82,1.6,3.33,5.4,2.35a12.44,12.44,0,0,0,4.25-2.62,28.89,28.89,0,0,1,8-4.71c6.44.28,10.25-1.8,12.06-3.21A14.86,14.86,0,0,0,210,130c0,.26-.17,2.51,3.15.26a39.23,39.23,0,0,1,5.35-2.92l4.26-1.09C223,126.17,226.66,125,226.52,124.57Z"/><path class="cls-5" d="M226.52,171.09c-.14.42-3.45-.73-3.93-.89,0,0-.06,0-.06,0h-.05c-.07,0-.15.15-.11,0l-2.18-.56a58.23,58.23,0,0,0-6-.21c-.64,0-3.73.23-4.69-.34s.43-1.46.43-1.46a23.35,23.35,0,0,1-2.68-.44,4.73,4.73,0,0,1-1.81-.84,18.69,18.69,0,0,1-9.66-2c-1.78-.08-3.9-.16-7.68-.62-1.75-.22-3.21-.43-4.45-.65l-.09,0c-2.76.51-7.48.5-9.45-1.44-1.18-1.15-.07-2.25,1-3a4.07,4.07,0,0,0-1.46-.89,3.56,3.56,0,0,0-2.24.05,5.6,5.6,0,0,0-.95.47c-2.75-2.37-.39-3.37-.39-3.37-1.48-.92-4.94-1-4.94-1,1.57,2.26-1.49,2.16-3.07,2.58s-1.35,1.58-1.35,1.58c-2.62-1.8-1.06-3.23-1.06-3.23-4.05-.34-5.82-3.48-7.78-5.12a6.09,6.09,0,0,0-4.07-1.47s1.76-1.23,4.9.43,4.22,3.32,13,4.07c6.58.57,9.56,3.5,10,4-1.75-2.82,1.6-3.33,5.4-2.35a12.44,12.44,0,0,1,4.25,2.62,29.15,29.15,0,0,0,8,4.71c6.44-.28,10.25,1.8,12.06,3.21a14.86,14.86,0,0,1,4.61.73c0-.26-.17-2.51,3.15-.26a38.13,38.13,0,0,0,5.35,2.91l4.26,1.1C223,169.49,226.66,170.65,226.52,171.09Z"/><polygon class="cls-5" points="226.52 120.22 218.68 123.44 226.52 126.66 234.37 123.44 226.52 120.22"/><polygon class="cls-3" points="226.52 121.64 222.13 123.44 226.52 125.25 230.92 123.44 226.52 121.64"/><polygon class="cls-4" points="226.52 122.72 224.47 123.56 226.52 124.4 228.58 123.56 226.52 122.72"/><polygon class="cls-5" points="228.88 140.69 226 133.68 223.13 140.69 226 147.7 228.88 140.69"/><polygon class="cls-3" points="227.61 140.69 226 136.76 224.39 140.69 226 144.62 227.61 140.69"/><polygon class="cls-4" points="226.65 140.69 225.9 138.85 225.14 140.69 225.9 142.53 226.65 140.69"/><polygon class="cls-5" points="218.5 151.07 225.51 148.19 218.5 145.32 211.49 148.19 218.5 151.07"/><polygon class="cls-3" points="218.5 149.81 222.43 148.19 218.5 146.58 214.57 148.19 218.5 149.81"/><polygon class="cls-4" points="218.5 148.84 220.34 148.09 218.5 147.34 216.66 148.09 218.5 148.84"/><polygon class="cls-4" points="222.73 155.53 225.65 148.54 218.66 151.47 215.74 158.46 222.73 155.53"/><polygon class="cls-4" points="218.66 144.92 225.65 147.85 222.73 140.85 215.74 137.93 218.66 144.92"/><polygon class="cls-3" points="219.56 144.03 223.47 145.67 221.84 141.75 217.91 140.11 219.56 144.03"/><polygon class="cls-4" points="220.24 143.35 222.07 144.11 221.3 142.28 219.47 141.51 220.24 143.35"/><polygon class="cls-5" points="203.89 143.82 202.21 139.71 200.52 143.82 202.21 147.94 203.89 143.82"/><polygon class="cls-3" points="203.15 143.82 202.21 141.51 201.26 143.82 202.21 146.13 203.15 143.82"/><polygon class="cls-4" points="202.59 143.82 202.14 142.74 201.7 143.82 202.14 144.9 202.59 143.82"/><polygon class="cls-5" points="203.89 152.63 202.21 148.51 200.52 152.63 202.21 156.75 203.89 152.63"/><polygon class="cls-5" points="206.61 149.91 210.72 148.22 206.61 146.54 202.5 148.22 206.61 149.91"/><polygon class="cls-3" points="206.61 149.17 208.92 148.22 206.61 147.28 204.3 148.22 206.61 149.17"/><polygon class="cls-4" points="206.61 148.61 207.69 148.16 206.61 147.72 205.53 148.16 206.61 148.61"/><polygon class="cls-5" points="197.8 149.91 201.92 148.22 197.8 146.54 193.69 148.22 197.8 149.91"/><polygon class="cls-3" points="197.8 149.17 200.11 148.22 197.8 147.28 195.49 148.22 197.8 149.17"/><polygon class="cls-4" points="197.8 148.61 198.88 148.16 197.8 147.72 196.72 148.16 197.8 148.61"/><polygon class="cls-4" points="206.51 146.3 208.23 142.2 204.13 143.92 202.41 148.02 206.51 146.3"/><polygon class="cls-3" points="205.99 145.78 206.95 143.48 204.65 144.44 203.69 146.74 205.99 145.78"/><polygon class="cls-4" points="205.59 145.38 206.04 144.3 204.96 144.75 204.51 145.83 205.59 145.38"/><polygon class="cls-4" points="200.28 152.53 202 148.43 197.9 150.15 196.18 154.25 200.28 152.53"/><polygon class="cls-4" points="204.13 152.53 208.23 154.25 206.51 150.15 202.41 148.43 204.13 152.53"/><polygon class="cls-4" points="197.9 146.3 202 148.02 200.28 143.92 196.18 142.2 197.9 146.3"/><polygon class="cls-3" points="198.42 145.78 200.72 146.74 199.76 144.44 197.46 143.48 198.42 145.78"/><polygon class="cls-4" points="198.82 145.38 199.9 145.83 199.45 144.75 198.37 144.3 198.82 145.38"/><path class="cls-3" d="M192.65,115.05H125.28l-1,.42c-.18.07-.41.18-.65.3-.42.21-.83.44-.93.5a21.4,21.4,0,0,0-3.42,2.7c-1,.84-3.26,4.81-1.43,6.77a3,3,0,0,0,3.91.23,2.45,2.45,0,0,0,.29-3.55,2.19,2.19,0,0,0-1.71-.73s.45-4,8.88-4.88c0,0-3.88.79-3.06,3.21s3.39,2.18,5.75.24a11.47,11.47,0,0,1,4.06-2c3.15-.94,7.67-1.54,14-2.18l.11,0h0l1.75-.29.11,0c-.42.21-.83.44-.93.5a21.4,21.4,0,0,0-3.42,2.7c-1,.84-3.26,4.81-1.43,6.77a3,3,0,0,0,3.91.23,2.45,2.45,0,0,0,.29-3.55,2.19,2.19,0,0,0-1.71-.73s.45-4,8.88-4.88c0,0-3.88.79-3.06,3.21s3.39,2.18,5.75.24a11.47,11.47,0,0,1,4.06-2c3.15-.94,7.67-1.54,14-2.18l1.86-.31.11,0c-.42.21-.83.44-.93.5A21.4,21.4,0,0,0,176,119c-1,.84-3.27,4.81-1.43,6.77a3,3,0,0,0,3.91.23,2.45,2.45,0,0,0,.29-3.55,2.19,2.19,0,0,0-1.71-.73,3.11,3.11,0,0,1,.59-1.32c.87-1.26,3-3,8.29-3.56,0,0-3.41.69-3.16,2.78a2.41,2.41,0,0,0,.1.43,2.29,2.29,0,0,0,2.28,1.74,4.22,4.22,0,0,0,1.69-.39,7.74,7.74,0,0,0,1.78-1.11,11.47,11.47,0,0,1,4.06-2c3.15-.94,7.67-1.54,14-2.18l16.43-1.06H192.65Z"/><polygon class="cls-5" points="137.6 124.78 135.72 120.18 133.83 124.78 135.72 129.38 137.6 124.78"/><polygon class="cls-3" points="136.78 124.78 135.72 122.2 134.66 124.78 135.72 127.36 136.78 124.78"/><polygon class="cls-4" points="136.14 124.78 135.65 123.58 135.15 124.78 135.65 125.99 136.14 124.78"/><polygon class="cls-5" points="137.6 134.63 135.72 130.03 133.83 134.63 135.72 139.23 137.6 134.63"/><polygon class="cls-3" points="136.78 134.63 135.72 132.05 134.66 134.63 135.72 137.21 136.78 134.63"/><polygon class="cls-4" points="136.14 134.63 135.65 133.43 135.15 134.63 135.65 135.84 136.14 134.63"/><polygon class="cls-5" points="140.64 131.59 145.24 129.71 140.64 127.82 136.04 129.71 140.64 131.59"/><polygon class="cls-3" points="140.64 130.77 143.22 129.71 140.64 128.65 138.06 129.71 140.64 130.77"/><polygon class="cls-4" points="140.64 130.13 141.85 129.64 140.64 129.14 139.44 129.64 140.64 130.13"/><polygon class="cls-5" points="130.79 131.59 135.39 129.71 130.79 127.82 126.19 129.71 130.79 131.59"/><polygon class="cls-3" points="130.79 130.77 133.37 129.71 130.79 128.65 128.21 129.71 130.79 130.77"/><polygon class="cls-4" points="130.79 130.13 132 129.64 130.79 129.14 129.59 129.64 130.79 130.13"/><polygon class="cls-4" points="140.53 127.56 142.45 122.97 137.87 124.89 135.95 129.48 140.53 127.56"/><polygon class="cls-3" points="139.95 126.97 141.03 124.4 138.45 125.48 137.38 128.05 139.95 126.97"/><polygon class="cls-4" points="139.5 126.53 140 125.32 138.8 125.83 138.3 127.03 139.5 126.53"/><polygon class="cls-4" points="133.57 134.53 135.49 129.94 130.9 131.85 128.98 136.44 133.57 134.53"/><polygon class="cls-3" points="132.98 133.94 134.06 131.37 131.49 132.44 130.41 135.01 132.98 133.94"/><polygon class="cls-4" points="132.54 133.49 133.04 132.29 131.84 132.79 131.33 133.99 132.54 133.49"/><polygon class="cls-4" points="137.87 134.53 142.45 136.44 140.53 131.85 135.95 129.94 137.87 134.53"/><polygon class="cls-3" points="138.45 133.94 141.03 135.01 139.95 132.44 137.38 131.37 138.45 133.94"/><polygon class="cls-4" points="138.9 133.49 140.1 133.99 139.6 132.79 138.4 132.29 138.9 133.49"/><polygon class="cls-4" points="130.9 127.56 135.49 129.48 133.57 124.89 128.98 122.97 130.9 127.56"/><polygon class="cls-3" points="131.49 126.97 134.06 128.05 132.98 125.48 130.41 124.4 131.49 126.97"/><polygon class="cls-4" points="131.93 126.53 133.14 127.03 132.63 125.83 131.43 125.32 131.93 126.53"/><path class="cls-4" d="M149.8,130.74a17.06,17.06,0,0,1,10.93-5.1,19.64,19.64,0,0,1-5.32,5.16c-2.39,1.46-6.24,2.54-7.1,2.44C148.22,132.42,149.27,131.31,149.8,130.74Z"/><path class="cls-4" d="M121.47,132.06a17,17,0,0,1,8.94,8.1,19.54,19.54,0,0,1-6.82-2.9c-2.28-1.63-4.76-4.76-5-5.6C119.3,131.26,120.73,131.8,121.47,132.06Z"/><path class="cls-5" d="M118.82,136.55a12.09,12.09,0,0,1,6.35,5.75,13.84,13.84,0,0,1-4.84-2.06,13.26,13.26,0,0,1-3.55-4C117.29,136,118.3,136.37,118.82,136.55Z"/><path class="cls-3" d="M116.38,139.58a8.75,8.75,0,0,1,4.6,4.15,9.76,9.76,0,0,1-3.51-1.49,9.62,9.62,0,0,1-2.57-2.87C115.27,139.16,116,139.44,116.38,139.58Z"/><path class="cls-5" d="M164.54,122.45a10.69,10.69,0,0,1,6.88-3.2,12.45,12.45,0,0,1-3.35,3.24,11.53,11.53,0,0,1-4.46,1.53C163.55,123.51,164.21,122.81,164.54,122.45Z"/><path class="cls-3" d="M159.88,129.94a17,17,0,0,1,10.93-5.09,19.79,19.79,0,0,1-5.32,5.16c-2.39,1.46-6.24,2.54-7.1,2.43C158.3,131.63,159.35,130.51,159.88,129.94Z"/><path class="cls-5" d="M200.87,120.21a10.9,10.9,0,0,1,7-3.27,12.39,12.39,0,0,1-3.42,3.31,12,12,0,0,1-4.55,1.57C199.86,121.29,200.53,120.58,200.87,120.21Z"/><path class="cls-4" d="M191.07,122.77a12.62,12.62,0,0,1,8.06-3.76,14.36,14.36,0,0,1-3.92,3.81,13.75,13.75,0,0,1-5.24,1.8C189.9,124,190.68,123.2,191.07,122.77Z"/><rect class="cls-2" x="-113.13" y="111.45" width="226.25" height="74.3"/><polygon class="cls-3" points="-0.25 116.13 -112.95 147.7 -0.25 179.26 112.45 147.7 -0.25 116.13"/><polygon class="cls-4" points="-0.25 131.64 -58.04 147.83 -0.25 164.02 57.54 147.83 -0.25 131.64"/><polygon class="cls-5" points="88.44 144.12 75.65 147.7 88.44 151.28 101.24 147.7 88.44 144.12"/><polygon class="cls-3" points="88.44 145.69 81.27 147.7 88.44 149.71 95.62 147.7 88.44 145.69"/><polygon class="cls-4" points="88.44 146.89 85.09 147.83 88.44 148.77 91.8 147.83 88.44 146.89"/><path class="cls-5" d="M.27,124.57c-.14-.42-3.45.72-3.94.89,0,0-.05,0-.05,0h0c-.07,0-.16-.15-.11,0l-2.18.56c-2.39.23-5.49.23-6,.21-.65,0-3.73-.23-4.69.34s.43,1.46.43,1.46a23.35,23.35,0,0,0-2.68.44,4.66,4.66,0,0,0-1.81.84,18.76,18.76,0,0,0-9.67,2c-1.77.07-3.89.16-7.67.62-1.75.22-3.21.43-4.45.65l-.09,0c-2.76-.51-7.48-.5-9.45,1.44-1.18,1.15-.08,2.25,1,3a3.91,3.91,0,0,1-1.46.88,3.49,3.49,0,0,1-2.24,0,4.94,4.94,0,0,1-.95-.48c-2.75,2.38-.39,3.38-.39,3.38-1.48.92-4.94,1-4.94,1,1.56-2.26-1.49-2.16-3.07-2.58s-1.36-1.58-1.36-1.58c-2.61,1.8-1,3.23-1,3.23-4.05.34-5.82,3.47-7.78,5.12a6.11,6.11,0,0,1-4.07,1.47s1.76,1.23,4.9-.43,4.22-3.32,13-4.07c6.58-.57,9.55-3.5,10-4-1.75,2.82,1.6,3.33,5.4,2.35a12.44,12.44,0,0,0,4.25-2.62,28.89,28.89,0,0,1,8-4.71c6.44.28,10.25-1.8,12.06-3.21a14.86,14.86,0,0,0,4.61-.73c-.05.26-.18,2.51,3.15.26a39.23,39.23,0,0,1,5.35-2.92l4.26-1.09C-3.24,126.17.41,125,.27,124.57Z"/><path class="cls-5" d="M.27,171.09c-.14.42-3.45-.73-3.94-.89,0,0-.05,0-.05,0h0c-.07,0-.16.15-.11,0l-2.18-.56a58.29,58.29,0,0,0-6-.21c-.65,0-3.73.23-4.69-.34s.43-1.46.43-1.46a23.35,23.35,0,0,1-2.68-.44,4.66,4.66,0,0,1-1.81-.84,18.76,18.76,0,0,1-9.67-2c-1.77-.08-3.89-.16-7.67-.62-1.75-.22-3.21-.43-4.45-.65l-.09,0c-2.76.51-7.48.5-9.45-1.44-1.18-1.15-.08-2.25,1-3a4.07,4.07,0,0,0-1.46-.89,3.56,3.56,0,0,0-2.24.05,5.6,5.6,0,0,0-.95.47c-2.75-2.37-.39-3.37-.39-3.37-1.48-.92-4.94-1-4.94-1,1.56,2.26-1.49,2.16-3.07,2.58s-1.36,1.58-1.36,1.58c-2.61-1.8-1-3.23-1-3.23-4.05-.34-5.82-3.48-7.78-5.12a6.11,6.11,0,0,0-4.07-1.47s1.76-1.23,4.9.43,4.22,3.32,13,4.07c6.58.57,9.55,3.5,10,4-1.75-2.82,1.6-3.33,5.4-2.35A12.44,12.44,0,0,1-40.9,157a29.15,29.15,0,0,0,8,4.71c6.44-.28,10.25,1.8,12.06,3.21a14.86,14.86,0,0,1,4.61.73c-.05-.26-.18-2.51,3.15-.26a38.13,38.13,0,0,0,5.35,2.91l4.26,1.1C-3.24,169.49.41,170.65.27,171.09Z"/><path class="cls-5" d="M.28,171.09c.13.42,3.45-.73,3.93-.89,0,0,0,0,0,0h.06c.07,0,.15.15.11,0l2.17-.56a58.47,58.47,0,0,1,6-.21c.64,0,3.73.23,4.68-.34s-.43-1.46-.43-1.46a23.67,23.67,0,0,0,2.69-.44,4.8,4.8,0,0,0,1.81-.84,18.69,18.69,0,0,0,9.66-2c1.77-.08,3.9-.16,7.68-.62,1.74-.22,3.2-.43,4.45-.65l.09,0c2.76.51,7.48.5,9.45-1.44,1.18-1.15.07-2.25-1-3a4,4,0,0,1,1.45-.89,3.59,3.59,0,0,1,2.25.05,5.48,5.48,0,0,1,.94.47c2.76-2.37.4-3.37.4-3.37,1.48-.92,4.94-1,4.94-1-1.57,2.26,1.49,2.16,3.07,2.58s1.35,1.58,1.35,1.58c2.62-1.8,1.06-3.23,1.06-3.23,4-.34,5.82-3.48,7.77-5.12A6.11,6.11,0,0,1,79,148.27s-1.76-1.23-4.9.43-4.21,3.32-13,4.07c-6.59.57-9.56,3.5-10,4,1.75-2.82-1.61-3.33-5.41-2.35A12.55,12.55,0,0,0,41.44,157a28.86,28.86,0,0,1-8,4.71c-6.43-.28-10.24,1.8-12.06,3.21a14.92,14.92,0,0,0-4.61.73c0-.26.18-2.51-3.14-.26a39.28,39.28,0,0,1-5.35,2.91L4,169.42C3.78,169.49.13,170.65.28,171.09Z"/><path class="cls-5" d="M.28,124.57c.13-.42,3.45.72,3.93.89,0,0,0,0,0,0h.06c.07,0,.15-.15.11,0l2.17.56c2.39.23,5.5.23,6,.21.64,0,3.73-.23,4.68.34s-.43,1.46-.43,1.46a23.67,23.67,0,0,1,2.69.44,4.8,4.8,0,0,1,1.81.84,18.69,18.69,0,0,1,9.66,2c1.77.07,3.9.16,7.68.62,1.74.22,3.2.43,4.45.65l.09,0c2.76-.51,7.48-.5,9.45,1.44,1.18,1.15.07,2.25-1,3a3.87,3.87,0,0,0,1.45.88,3.53,3.53,0,0,0,2.25,0,4.84,4.84,0,0,0,.94-.48c2.76,2.38.4,3.38.4,3.38,1.48.92,4.94,1,4.94,1-1.57-2.26,1.49-2.16,3.07-2.58s1.35-1.58,1.35-1.58c2.62,1.8,1.06,3.23,1.06,3.23,4,.34,5.82,3.47,7.77,5.12A6.11,6.11,0,0,0,79,147.39s-1.76,1.23-4.9-.43-4.21-3.32-13-4.07c-6.59-.57-9.56-3.5-10-4,1.75,2.82-1.61,3.33-5.41,2.35a12.55,12.55,0,0,1-4.25-2.62,28.61,28.61,0,0,0-8-4.71c-6.43.28-10.24-1.8-12.06-3.21a14.92,14.92,0,0,1-4.61-.73c0,.26.18,2.51-3.14.26a40.46,40.46,0,0,0-5.35-2.92L4,126.24C3.78,126.17.13,125,.28,124.57Z"/><polygon class="cls-5" points="0.27 120.22 -7.57 123.44 0.27 126.66 8.11 123.44 0.27 120.22"/><polygon class="cls-3" points="0.27 121.64 -4.13 123.44 0.27 125.25 4.67 123.44 0.27 121.64"/><polygon class="cls-4" points="0.27 122.72 -1.78 123.56 0.27 124.4 2.33 123.56 0.27 122.72"/><polygon class="cls-5" points="2.63 140.69 -0.25 133.68 -3.13 140.69 -0.25 147.7 2.63 140.69"/><polygon class="cls-3" points="1.36 140.69 -0.25 136.76 -1.86 140.69 -0.25 144.62 1.36 140.69"/><polygon class="cls-4" points="0.4 140.69 -0.35 138.85 -1.11 140.69 -0.35 142.53 0.4 140.69"/><polygon class="cls-5" points="7.25 151.07 14.26 148.19 7.25 145.32 0.24 148.19 7.25 151.07"/><polygon class="cls-3" points="7.25 149.81 11.18 148.19 7.25 146.58 3.32 148.19 7.25 149.81"/><polygon class="cls-4" points="7.25 148.84 9.09 148.09 7.25 147.34 5.41 148.09 7.25 148.84"/><polygon class="cls-4" points="7.09 144.92 10.01 137.93 3.02 140.85 0.1 147.85 7.09 144.92"/><polygon class="cls-3" points="6.2 144.03 7.83 140.11 3.91 141.75 2.27 145.67 6.2 144.03"/><polygon class="cls-4" points="5.51 143.35 6.28 141.51 4.45 142.28 3.68 144.11 5.51 143.35"/><polygon class="cls-4" points="3.02 155.53 10.01 158.46 7.09 151.47 0.1 148.54 3.02 155.53"/><polygon class="cls-5" points="25.45 143.82 23.76 139.71 22.07 143.82 23.76 147.94 25.45 143.82"/><polygon class="cls-3" points="24.71 143.82 23.76 141.51 22.81 143.82 23.76 146.13 24.71 143.82"/><polygon class="cls-4" points="24.14 143.82 23.7 142.74 23.25 143.82 23.7 144.9 24.14 143.82"/><polygon class="cls-5" points="25.45 152.63 23.76 148.51 22.07 152.63 23.76 156.75 25.45 152.63"/><polygon class="cls-5" points="28.16 149.91 32.28 148.22 28.16 146.54 24.05 148.22 28.16 149.91"/><polygon class="cls-3" points="28.16 149.17 30.47 148.22 28.16 147.28 25.86 148.22 28.16 149.17"/><polygon class="cls-4" points="28.16 148.61 29.24 148.16 28.16 147.72 27.09 148.16 28.16 148.61"/><polygon class="cls-5" points="19.36 149.91 23.47 148.22 19.36 146.54 15.24 148.22 19.36 149.91"/><polygon class="cls-3" points="19.36 149.17 21.66 148.22 19.36 147.28 17.05 148.22 19.36 149.17"/><polygon class="cls-4" points="19.36 148.61 20.43 148.16 19.36 147.72 18.28 148.16 19.36 148.61"/><polygon class="cls-4" points="28.07 146.3 29.78 142.2 25.68 143.92 23.96 148.02 28.07 146.3"/><polygon class="cls-3" points="27.54 145.78 28.51 143.48 26.2 144.44 25.24 146.74 27.54 145.78"/><polygon class="cls-4" points="27.14 145.38 27.59 144.3 26.52 144.75 26.07 145.83 27.14 145.38"/><polygon class="cls-4" points="21.84 152.53 23.55 148.43 19.45 150.15 17.73 154.25 21.84 152.53"/><polygon class="cls-4" points="25.68 152.53 29.78 154.25 28.07 150.15 23.96 148.43 25.68 152.53"/><polygon class="cls-4" points="19.45 146.3 23.55 148.02 21.84 143.92 17.73 142.2 19.45 146.3"/><polygon class="cls-3" points="19.98 145.78 22.28 146.74 21.31 144.44 19.01 143.48 19.98 145.78"/><polygon class="cls-4" points="20.38 145.38 21.45 145.83 21 144.75 19.93 144.3 20.38 145.38"/><path class="cls-3" d="M34.21,115.05h67.37l1,.42c.18.07.41.18.65.3.41.21.83.44.92.5a21.66,21.66,0,0,1,3.43,2.7c1,.84,3.26,4.81,1.42,6.77a3,3,0,0,1-3.9.23,2.45,2.45,0,0,1-.29-3.55,2.19,2.19,0,0,1,1.71-.73s-.45-4-8.88-4.88c0,0,3.87.79,3,3.21s-3.38,2.18-5.74.24a11.55,11.55,0,0,0-4.06-2c-3.15-.94-7.68-1.54-14-2.18l-.12,0h0L75,115.8l-.11,0c.41.21.83.44.92.5a21.66,21.66,0,0,1,3.43,2.7c1,.84,3.26,4.81,1.42,6.77a3,3,0,0,1-3.9.23,2.45,2.45,0,0,1-.29-3.55,2.19,2.19,0,0,1,1.71-.73s-.45-4-8.88-4.88c0,0,3.87.79,3,3.21s-3.38,2.18-5.74.24a11.55,11.55,0,0,0-4.06-2c-3.15-.94-7.68-1.54-14-2.18l-1.86-.31-.11,0c.41.21.83.44.92.5A21.66,21.66,0,0,1,50.9,119c1,.84,3.26,4.81,1.42,6.77a3,3,0,0,1-3.9.23,2.45,2.45,0,0,1-.29-3.55,2.19,2.19,0,0,1,1.71-.73,3.29,3.29,0,0,0-.59-1.32c-.87-1.26-3-3-8.29-3.56,0,0,3.4.69,3.15,2.78a1.41,1.41,0,0,1-.1.43,2.28,2.28,0,0,1-2.28,1.74,4.21,4.21,0,0,1-1.68-.39,7.54,7.54,0,0,1-1.78-1.11,11.55,11.55,0,0,0-4.06-2c-3.15-.94-7.68-1.54-14-2.18L3.73,115.05H34.21Z"/><polygon class="cls-5" points="89.25 124.78 91.14 120.18 93.03 124.78 91.14 129.38 89.25 124.78"/><polygon class="cls-3" points="90.08 124.78 91.14 122.2 92.2 124.78 91.14 127.36 90.08 124.78"/><polygon class="cls-4" points="90.71 124.78 91.21 123.58 91.7 124.78 91.21 125.99 90.71 124.78"/><polygon class="cls-5" points="89.25 134.63 91.14 130.03 93.03 134.63 91.14 139.23 89.25 134.63"/><polygon class="cls-3" points="90.08 134.63 91.14 132.05 92.2 134.63 91.14 137.21 90.08 134.63"/><polygon class="cls-4" points="90.71 134.63 91.21 133.43 91.7 134.63 91.21 135.84 90.71 134.63"/><polygon class="cls-5" points="86.22 131.59 81.61 129.71 86.22 127.82 90.82 129.71 86.22 131.59"/><polygon class="cls-3" points="86.22 130.77 83.63 129.71 86.22 128.65 88.8 129.71 86.22 130.77"/><polygon class="cls-4" points="86.22 130.13 85.01 129.64 86.22 129.14 87.42 129.64 86.22 130.13"/><polygon class="cls-5" points="96.06 131.59 91.46 129.71 96.06 127.82 100.67 129.71 96.06 131.59"/><polygon class="cls-3" points="96.06 130.77 93.48 129.71 96.06 128.65 98.65 129.71 96.06 130.77"/><polygon class="cls-4" points="96.06 130.13 94.86 129.64 96.06 129.14 97.27 129.64 96.06 130.13"/><polygon class="cls-4" points="86.32 127.56 84.4 122.97 88.99 124.89 90.91 129.48 86.32 127.56"/><polygon class="cls-3" points="86.91 126.97 85.83 124.4 88.41 125.48 89.48 128.05 86.91 126.97"/><polygon class="cls-4" points="87.36 126.53 86.85 125.32 88.06 125.83 88.56 127.03 87.36 126.53"/><polygon class="cls-4" points="93.29 134.53 91.37 129.94 95.96 131.85 97.88 136.44 93.29 134.53"/><polygon class="cls-3" points="93.87 133.94 92.8 131.37 95.37 132.44 96.45 135.01 93.87 133.94"/><polygon class="cls-4" points="94.32 133.49 93.82 132.29 95.02 132.79 95.52 133.99 94.32 133.49"/><polygon class="cls-4" points="88.99 134.53 84.4 136.44 86.32 131.85 90.91 129.94 88.99 134.53"/><polygon class="cls-3" points="88.41 133.94 85.83 135.01 86.91 132.44 89.48 131.37 88.41 133.94"/><polygon class="cls-4" points="87.96 133.49 86.76 133.99 87.26 132.79 88.46 132.29 87.96 133.49"/><polygon class="cls-4" points="95.96 127.56 91.37 129.48 93.29 124.89 97.88 122.97 95.96 127.56"/><polygon class="cls-3" points="95.37 126.97 92.8 128.05 93.87 125.48 96.45 124.4 95.37 126.97"/><polygon class="cls-4" points="94.92 126.53 93.72 127.03 94.22 125.83 95.43 125.32 94.92 126.53"/><path class="cls-4" d="M77.06,130.74a17.06,17.06,0,0,0-10.93-5.1,19.5,19.5,0,0,0,5.32,5.16c2.38,1.46,6.23,2.54,7.1,2.44C78.64,132.42,77.59,131.31,77.06,130.74Z"/><path class="cls-4" d="M105.39,132.06a17,17,0,0,0-8.94,8.1,19.62,19.62,0,0,0,6.82-2.9c2.27-1.63,4.76-4.76,5-5.6C107.56,131.26,106.12,131.8,105.39,132.06Z"/><path class="cls-5" d="M108,136.55a12.13,12.13,0,0,0-6.35,5.75,13.89,13.89,0,0,0,4.85-2.06,13.26,13.26,0,0,0,3.55-4C109.57,136,108.55,136.37,108,136.55Z"/><path class="cls-3" d="M110.47,139.58a8.73,8.73,0,0,0-4.59,4.15,9.91,9.91,0,0,0,3.51-1.49,9.41,9.41,0,0,0,2.56-2.87C111.59,139.16,110.85,139.44,110.47,139.58Z"/><path class="cls-5" d="M62.31,122.45a10.69,10.69,0,0,0-6.87-3.2,12.45,12.45,0,0,0,3.35,3.24A11.53,11.53,0,0,0,63.25,124C63.31,123.51,62.65,122.81,62.31,122.45Z"/><path class="cls-3" d="M67,129.94a17,17,0,0,0-10.93-5.09A19.65,19.65,0,0,0,61.37,130c2.38,1.46,6.23,2.54,7.1,2.43C68.56,131.63,67.51,130.51,67,129.94Z"/><path class="cls-5" d="M26,120.21a10.92,10.92,0,0,0-7-3.27,12.49,12.49,0,0,0,3.41,3.31,12,12,0,0,0,4.56,1.57C27,121.29,26.32,120.58,26,120.21Z"/><path class="cls-4" d="M35.79,122.77A12.64,12.64,0,0,0,27.72,119a14.39,14.39,0,0,0,3.93,3.81,13.75,13.75,0,0,0,5.24,1.8C37,124,36.18,123.2,35.79,122.77Z"/><rect class="cls-2" y="37.15" width="226.25" height="74.3"/><polygon class="cls-3" points="112.88 41.83 0.18 73.4 112.88 104.96 225.57 73.4 112.88 41.83"/><polygon class="cls-4" points="112.88 57.34 55.08 73.53 112.88 89.71 170.67 73.53 112.88 57.34"/><polygon class="cls-5" points="24.84 69.81 12.05 73.4 24.84 76.98 37.64 73.4 24.84 69.81"/><polygon class="cls-3" points="24.84 71.39 17.67 73.4 24.84 75.41 32.02 73.4 24.84 71.39"/><polygon class="cls-4" points="24.84 72.59 21.49 73.53 24.84 74.47 28.2 73.53 24.84 72.59"/><polygon class="cls-5" points="201.57 69.81 188.78 73.4 201.57 76.98 214.37 73.4 201.57 69.81"/><polygon class="cls-3" points="201.57 71.39 194.4 73.4 201.57 75.41 208.75 73.4 201.57 71.39"/><polygon class="cls-4" points="201.57 72.59 198.22 73.53 201.57 74.47 204.93 73.53 201.57 72.59"/><path class="cls-5" d="M113.39,50.27c-.13-.42-3.45.72-3.93.88,0,0,0,0,0,0h-.06c-.07,0-.15-.15-.1,0l-2.18.56c-2.39.22-5.5.23-6,.21-.64,0-3.73-.23-4.68.33s.43,1.47.43,1.47a23.67,23.67,0,0,0-2.69.44,4.8,4.8,0,0,0-1.81.84,18.8,18.8,0,0,0-9.66,2c-1.77.08-3.9.17-7.68.63-1.74.21-3.2.43-4.45.64h-.09c-2.76-.52-7.48-.5-9.45,1.43-1.18,1.15-.07,2.25,1,3a4,4,0,0,1-1.45.88,3.6,3.6,0,0,1-2.25,0,4.84,4.84,0,0,1-.94-.48c-2.76,2.38-.39,3.38-.39,3.38-1.49.91-4.94,1-4.94,1,1.56-2.25-1.5-2.15-3.07-2.57s-1.36-1.58-1.36-1.58c-2.62,1.8-1.06,3.23-1.06,3.23-4,.34-5.82,3.47-7.77,5.12a6.11,6.11,0,0,1-4.07,1.47s1.76,1.23,4.9-.44,4.21-3.32,13-4.07c6.59-.56,9.56-3.5,10-4C60.82,67.43,64.18,67.93,68,67a12.27,12.27,0,0,0,4.25-2.61,28.37,28.37,0,0,1,8-4.71c6.43.28,10.24-1.8,12.06-3.21a14.92,14.92,0,0,0,4.61-.73c0,.26-.18,2.51,3.14.26A40.46,40.46,0,0,1,105.4,53l4.26-1.1C109.89,51.87,113.54,50.71,113.39,50.27Z"/><path class="cls-5" d="M113.39,96.78c-.13.42-3.45-.72-3.93-.88,0,0,0,0,0,0l-.06,0c-.07,0-.15.16-.1,0l-2.18-.56c-2.39-.23-5.5-.24-6-.22-.64,0-3.73.23-4.68-.33s.43-1.47.43-1.47a21.93,21.93,0,0,1-2.69-.43A5,5,0,0,1,92.33,92a18.79,18.79,0,0,1-9.66-2c-1.77-.08-3.9-.16-7.68-.62-1.74-.22-3.2-.44-4.45-.65l-.09,0c-2.76.51-7.48.5-9.45-1.44-1.18-1.15-.07-2.25,1-2.95a3.89,3.89,0,0,0-1.45-.89,3.52,3.52,0,0,0-2.25,0,5.48,5.48,0,0,0-.94.47c-2.76-2.38-.39-3.37-.39-3.37-1.49-.92-4.94-1-4.94-1,1.56,2.26-1.5,2.16-3.07,2.58s-1.36,1.58-1.36,1.58C45,82,46.55,80.56,46.55,80.56c-4-.35-5.82-3.48-7.77-5.12A6.15,6.15,0,0,0,34.71,74s1.76-1.23,4.9.44,4.21,3.32,13,4.07c6.59.57,9.56,3.5,10,4-1.75-2.82,1.61-3.33,5.41-2.35a12.23,12.23,0,0,1,4.25,2.62,28.86,28.86,0,0,0,8,4.71c6.43-.28,10.24,1.8,12.06,3.21a14.71,14.71,0,0,1,4.61.72c0-.25-.18-2.51,3.14-.26A39.34,39.34,0,0,0,105.4,94l4.26,1.1C109.89,95.19,113.54,96.34,113.39,96.78Z"/><path class="cls-5" d="M113.4,96.78c.14.42,3.45-.72,3.94-.88,0,0,0,0,0,0l0,0c.07,0,.16.16.11,0l2.18-.56c2.39-.23,5.5-.24,6-.22.64,0,3.72.23,4.68-.33s-.43-1.47-.43-1.47a21.66,21.66,0,0,0,2.68-.43,4.81,4.81,0,0,0,1.81-.84,18.86,18.86,0,0,0,9.67-2c1.77-.08,3.89-.16,7.68-.62,1.74-.22,3.2-.44,4.44-.65l.09,0c2.76.51,7.49.5,9.46-1.44,1.18-1.15.07-2.25-1-2.95a4,4,0,0,1,1.46-.89,3.49,3.49,0,0,1,2.24,0,5.6,5.6,0,0,1,1,.47c2.75-2.38.39-3.37.39-3.37,1.48-.92,4.94-1,4.94-1-1.56,2.26,1.5,2.16,3.07,2.58s1.36,1.58,1.36,1.58c2.61-1.8,1.05-3.23,1.05-3.23,4-.35,5.83-3.48,7.78-5.12A6.15,6.15,0,0,1,192.09,74s-1.76-1.23-4.9.44-4.22,3.32-13,4.07c-6.58.57-9.55,3.5-10,4,1.75-2.82-1.6-3.33-5.4-2.35a12.23,12.23,0,0,0-4.25,2.62,29.15,29.15,0,0,1-8,4.71c-6.44-.28-10.25,1.8-12.06,3.21a14.65,14.65,0,0,0-4.61.72c.05-.25.18-2.51-3.15-.26A38.18,38.18,0,0,1,121.39,94l-4.26,1.1C116.91,95.19,113.26,96.34,113.4,96.78Z"/><path class="cls-5" d="M113.4,50.27c.14-.42,3.45.72,3.94.88,0,0,0,0,0,0h0c.07,0,.16-.15.11,0l2.18.56c2.39.22,5.5.23,6,.21.64,0,3.72-.23,4.68.33s-.43,1.47-.43,1.47a23.35,23.35,0,0,1,2.68.44,4.66,4.66,0,0,1,1.81.84,18.86,18.86,0,0,1,9.67,2c1.77.08,3.89.17,7.68.63,1.74.21,3.2.43,4.44.64h.09c2.76-.52,7.49-.5,9.46,1.43,1.18,1.15.07,2.25-1,3a4.13,4.13,0,0,0,1.46.88,3.56,3.56,0,0,0,2.24,0,4.94,4.94,0,0,0,1-.48c2.75,2.38.39,3.38.39,3.38,1.48.91,4.94,1,4.94,1-1.56-2.25,1.5-2.15,3.07-2.57s1.36-1.58,1.36-1.58c2.61,1.8,1.05,3.23,1.05,3.23,4,.34,5.83,3.47,7.78,5.12a6.11,6.11,0,0,0,4.07,1.47s-1.76,1.23-4.9-.44-4.22-3.32-13-4.07c-6.58-.56-9.55-3.5-10-4,1.75,2.82-1.6,3.32-5.4,2.34a12.27,12.27,0,0,1-4.25-2.61,28.65,28.65,0,0,0-8-4.71c-6.44.28-10.25-1.8-12.06-3.21a14.86,14.86,0,0,1-4.61-.73c.05.26.18,2.51-3.15.26A39.23,39.23,0,0,0,121.39,53l-4.26-1.1C116.91,51.87,113.26,50.71,113.4,50.27Z"/><polygon class="cls-5" points="113.4 45.92 105.56 49.14 113.4 52.36 121.24 49.14 113.4 45.92"/><polygon class="cls-3" points="113.4 47.34 109 49.14 113.4 50.94 117.8 49.14 113.4 47.34"/><polygon class="cls-4" points="113.4 48.41 111.34 49.26 113.4 50.1 115.45 49.26 113.4 48.41"/><polygon class="cls-5" points="113.4 93.66 105.56 96.88 113.4 100.09 121.24 96.88 113.4 93.66"/><polygon class="cls-3" points="113.4 95.07 109 96.88 113.4 98.68 117.8 96.88 113.4 95.07"/><polygon class="cls-4" points="113.4 96.15 111.34 96.99 113.4 97.84 115.45 96.99 113.4 96.15"/><polygon class="cls-5" points="115.75 66.39 112.88 59.38 110 66.39 112.88 73.4 115.75 66.39"/><polygon class="cls-3" points="114.49 66.39 112.88 62.46 111.26 66.39 112.88 70.32 114.49 66.39"/><polygon class="cls-4" points="113.53 66.39 112.77 64.55 112.02 66.39 112.77 68.23 113.53 66.39"/><polygon class="cls-5" points="115.75 81.39 112.88 74.39 110 81.39 112.88 88.41 115.75 81.39"/><polygon class="cls-3" points="114.49 81.39 112.88 77.46 111.26 81.39 112.88 85.33 114.49 81.39"/><polygon class="cls-4" points="113.53 81.39 112.77 79.56 112.02 81.39 112.77 83.23 113.53 81.39"/><polygon class="cls-5" points="120.38 76.77 127.39 73.89 120.38 71.02 113.37 73.89 120.38 76.77"/><polygon class="cls-3" points="120.38 75.5 124.31 73.89 120.38 72.28 116.45 73.89 120.38 75.5"/><polygon class="cls-4" points="120.38 74.54 122.22 73.79 120.38 73.03 118.54 73.79 120.38 74.54"/><polygon class="cls-5" points="105.37 76.77 112.38 73.89 105.37 71.02 98.36 73.89 105.37 76.77"/><polygon class="cls-3" points="105.37 75.5 109.3 73.89 105.37 72.28 101.44 73.89 105.37 75.5"/><polygon class="cls-4" points="105.37 74.54 107.21 73.79 105.37 73.03 103.53 73.79 105.37 74.54"/><polygon class="cls-4" points="120.22 70.62 123.14 63.63 116.15 66.55 113.22 73.54 120.22 70.62"/><polygon class="cls-3" points="119.32 69.73 120.96 65.81 117.04 67.45 115.4 71.37 119.32 69.73"/><polygon class="cls-4" points="118.64 69.05 119.41 67.21 117.57 67.98 116.81 69.81 118.64 69.05"/><polygon class="cls-4" points="109.6 81.23 112.53 74.24 105.54 77.16 102.61 84.16 109.6 81.23"/><polygon class="cls-3" points="108.71 80.34 110.35 76.42 106.43 78.06 104.79 81.98 108.71 80.34"/><polygon class="cls-4" points="108.03 79.66 108.8 77.82 106.96 78.59 106.2 80.42 108.03 79.66"/><polygon class="cls-4" points="116.15 81.23 123.14 84.16 120.22 77.16 113.22 74.24 116.15 81.23"/><polygon class="cls-3" points="117.04 80.34 120.96 81.98 119.32 78.06 115.4 76.42 117.04 80.34"/><polygon class="cls-4" points="117.72 79.66 119.56 80.42 118.79 78.59 116.95 77.82 117.72 79.66"/><polygon class="cls-4" points="105.54 70.62 112.53 73.54 109.6 66.55 102.61 63.63 105.54 70.62"/><polygon class="cls-3" points="106.43 69.73 110.35 71.37 108.71 67.45 104.79 65.81 106.43 69.73"/><polygon class="cls-4" points="107.11 69.05 108.94 69.81 108.18 67.98 106.34 67.21 107.11 69.05"/><polygon class="cls-5" points="90.77 69.52 89.08 65.4 87.39 69.52 89.08 73.63 90.77 69.52"/><polygon class="cls-3" points="90.03 69.52 89.08 67.21 88.13 69.52 89.08 71.83 90.03 69.52"/><polygon class="cls-4" points="89.46 69.52 89.02 68.44 88.58 69.52 89.02 70.6 89.46 69.52"/><polygon class="cls-5" points="90.77 78.33 89.08 74.21 87.39 78.33 89.08 82.44 90.77 78.33"/><polygon class="cls-3" points="90.03 78.33 89.08 76.02 88.13 78.33 89.08 80.64 90.03 78.33"/><polygon class="cls-4" points="89.46 78.33 89.02 77.25 88.58 78.33 89.02 79.41 89.46 78.33"/><polygon class="cls-5" points="93.48 75.61 97.6 73.92 93.48 72.23 89.37 73.92 93.48 75.61"/><polygon class="cls-3" points="93.48 74.87 95.79 73.92 93.48 72.98 91.18 73.92 93.48 74.87"/><polygon class="cls-4" points="93.48 74.3 94.56 73.86 93.48 73.42 92.41 73.86 93.48 74.3"/><polygon class="cls-5" points="84.67 75.61 88.79 73.92 84.67 72.23 80.56 73.92 84.67 75.61"/><polygon class="cls-3" points="84.67 74.87 86.98 73.92 84.67 72.98 82.37 73.92 84.67 74.87"/><polygon class="cls-4" points="84.67 74.3 85.75 73.86 84.67 73.42 83.6 73.86 84.67 74.3"/><polygon class="cls-4" points="93.39 72 95.1 67.9 91 69.61 89.28 73.72 93.39 72"/><polygon class="cls-3" points="92.86 71.48 93.83 69.18 91.53 70.14 90.56 72.44 92.86 71.48"/><polygon class="cls-4" points="92.46 71.08 92.91 70 91.84 70.45 91.39 71.53 92.46 71.08"/><polygon class="cls-4" points="87.16 78.23 88.88 74.13 84.77 75.84 83.06 79.95 87.16 78.23"/><polygon class="cls-3" points="86.64 77.71 87.6 75.41 85.3 76.37 84.33 78.67 86.64 77.71"/><polygon class="cls-4" points="86.23 77.31 86.69 76.23 85.61 76.68 85.16 77.76 86.23 77.31"/><polygon class="cls-4" points="91 78.23 95.1 79.95 93.39 75.84 89.28 74.13 91 78.23"/><polygon class="cls-3" points="91.53 77.71 93.83 78.67 92.86 76.37 90.56 75.41 91.53 77.71"/><polygon class="cls-4" points="91.92 77.31 93 77.76 92.55 76.68 91.47 76.23 91.92 77.31"/><polygon class="cls-4" points="84.77 72 88.88 73.72 87.16 69.61 83.06 67.9 84.77 72"/><polygon class="cls-3" points="85.3 71.48 87.6 72.44 86.64 70.14 84.33 69.18 85.3 71.48"/><polygon class="cls-4" points="85.7 71.08 86.77 71.53 86.32 70.45 85.25 70 85.7 71.08"/><polygon class="cls-5" points="138.57 69.52 136.88 65.4 135.2 69.52 136.88 73.63 138.57 69.52"/><polygon class="cls-3" points="137.83 69.52 136.88 67.21 135.94 69.52 136.88 71.83 137.83 69.52"/><polygon class="cls-4" points="137.27 69.52 136.82 68.44 136.38 69.52 136.82 70.6 137.27 69.52"/><polygon class="cls-5" points="138.57 78.33 136.88 74.21 135.2 78.33 136.88 82.44 138.57 78.33"/><polygon class="cls-3" points="137.83 78.33 136.88 76.02 135.94 78.33 136.88 80.64 137.83 78.33"/><polygon class="cls-4" points="137.27 78.33 136.82 77.25 136.38 78.33 136.82 79.41 137.27 78.33"/><polygon class="cls-5" points="141.29 75.61 145.41 73.92 141.29 72.23 137.18 73.92 141.29 75.61"/><polygon class="cls-3" points="141.29 74.87 143.6 73.92 141.29 72.98 138.98 73.92 141.29 74.87"/><polygon class="cls-4" points="141.29 74.3 142.37 73.86 141.29 73.42 140.21 73.86 141.29 74.3"/><polygon class="cls-5" points="132.48 75.61 136.6 73.92 132.48 72.23 128.37 73.92 132.48 75.61"/><polygon class="cls-3" points="132.48 74.87 134.79 73.92 132.48 72.98 130.17 73.92 132.48 74.87"/><polygon class="cls-4" points="132.48 74.3 133.56 73.86 132.48 73.42 131.4 73.86 132.48 74.3"/><polygon class="cls-4" points="141.19 72 142.91 67.9 138.81 69.61 137.09 73.72 141.19 72"/><polygon class="cls-3" points="140.67 71.48 141.63 69.18 139.33 70.14 138.37 72.44 140.67 71.48"/><polygon class="cls-4" points="140.27 71.08 140.72 70 139.64 70.45 139.19 71.53 140.27 71.08"/><polygon class="cls-4" points="134.97 78.23 136.68 74.13 132.58 75.84 130.86 79.95 134.97 78.23"/><polygon class="cls-3" points="134.44 77.71 135.4 75.41 133.1 76.37 132.14 78.67 134.44 77.71"/><polygon class="cls-4" points="134.04 77.31 134.49 76.23 133.41 76.68 132.96 77.76 134.04 77.31"/><polygon class="cls-4" points="138.81 78.23 142.91 79.95 141.19 75.84 137.09 74.13 138.81 78.23"/><polygon class="cls-3" points="139.33 77.71 141.63 78.67 140.67 76.37 138.37 75.41 139.33 77.71"/><polygon class="cls-4" points="139.73 77.31 140.81 77.76 140.36 76.68 139.28 76.23 139.73 77.31"/><polygon class="cls-4" points="132.58 72 136.68 73.72 134.97 69.61 130.86 67.9 132.58 72"/><polygon class="cls-3" points="133.1 71.48 135.4 72.44 134.44 70.14 132.14 69.18 133.1 71.48"/><polygon class="cls-4" points="133.5 71.08 134.58 71.53 134.13 70.45 133.05 70 133.5 71.08"/><path class="cls-3" d="M79.52,40.75H12.15l-1,.41-.65.31c-.41.21-.83.44-.92.5a20.91,20.91,0,0,0-3.42,2.7c-1,.83-3.27,4.81-1.43,6.76a3,3,0,0,0,3.9.24,2.46,2.46,0,0,0,.29-3.56,2.2,2.2,0,0,0-1.71-.72s.46-4,8.88-4.88c0,0-3.87.78-3.05,3.21s3.38,2.18,5.74.24a11.55,11.55,0,0,1,4.06-2c3.15-.94,7.68-1.54,14-2.18l.12,0h0l1.75-.29.1,0c-.41.21-.83.44-.92.5a20.91,20.91,0,0,0-3.42,2.7c-1,.83-3.27,4.81-1.43,6.76a3,3,0,0,0,3.9.24,2.46,2.46,0,0,0,.29-3.56,2.2,2.2,0,0,0-1.71-.72s.46-4,8.88-4.88c0,0-3.87.78-3.05,3.21s3.38,2.18,5.74.24a11.55,11.55,0,0,1,4.06-2c3.15-.94,7.68-1.54,14-2.18l1.87-.31.1,0c-.41.21-.83.44-.92.5a21.66,21.66,0,0,0-3.43,2.7c-1,.83-3.26,4.81-1.42,6.76a3,3,0,0,0,3.9.24,2.46,2.46,0,0,0,.29-3.56,2.2,2.2,0,0,0-1.71-.72,3.29,3.29,0,0,1,.59-1.32c.87-1.26,3-3,8.29-3.56,0,0-3.4.69-3.15,2.78a1.89,1.89,0,0,0,.1.43A2.3,2.3,0,0,0,72,47.46a4.21,4.21,0,0,0,1.68-.39A7.54,7.54,0,0,0,75.46,46a11.55,11.55,0,0,1,4.06-2c3.15-.94,7.68-1.54,14-2.18L110,40.75H79.52Z"/><polygon class="cls-5" points="24.48 50.48 22.59 45.88 20.7 50.48 22.59 55.08 24.48 50.48"/><polygon class="cls-3" points="23.65 50.48 22.59 47.9 21.53 50.48 22.59 53.06 23.65 50.48"/><polygon class="cls-4" points="23.02 50.48 22.52 49.27 22.03 50.48 22.52 51.69 23.02 50.48"/><polygon class="cls-5" points="24.48 60.33 22.59 55.73 20.7 60.33 22.59 64.93 24.48 60.33"/><polygon class="cls-3" points="23.65 60.33 22.59 57.75 21.53 60.33 22.59 62.91 23.65 60.33"/><polygon class="cls-4" points="23.02 60.33 22.52 59.12 22.03 60.33 22.52 61.54 23.02 60.33"/><polygon class="cls-5" points="27.52 57.29 32.12 55.41 27.52 53.52 22.91 55.41 27.52 57.29"/><polygon class="cls-3" points="27.52 56.46 30.1 55.41 27.52 54.35 24.94 55.41 27.52 56.46"/><polygon class="cls-4" points="27.52 55.83 28.72 55.34 27.52 54.84 26.31 55.34 27.52 55.83"/><polygon class="cls-5" points="17.67 57.29 22.27 55.41 17.67 53.52 13.06 55.41 17.67 57.29"/><polygon class="cls-3" points="17.67 56.46 20.25 55.41 17.67 54.35 15.09 55.41 17.67 56.46"/><polygon class="cls-4" points="17.67 55.83 18.87 55.34 17.67 54.84 16.46 55.34 17.67 55.83"/><polygon class="cls-4" points="27.41 53.26 29.33 48.67 24.74 50.59 22.82 55.18 27.41 53.26"/><polygon class="cls-3" points="26.82 52.67 27.9 50.1 25.32 51.17 24.25 53.75 26.82 52.67"/><polygon class="cls-4" points="26.38 52.22 26.88 51.02 25.68 51.52 25.17 52.73 26.38 52.22"/><polygon class="cls-4" points="20.44 60.22 22.36 55.63 17.77 57.55 15.86 62.14 20.44 60.22"/><polygon class="cls-3" points="19.86 59.64 20.93 57.06 18.36 58.14 17.28 60.71 19.86 59.64"/><polygon class="cls-4" points="19.41 59.19 19.91 57.99 18.71 58.49 18.21 59.69 19.41 59.19"/><polygon class="cls-4" points="24.74 60.22 29.33 62.14 27.41 57.55 22.82 55.63 24.74 60.22"/><polygon class="cls-3" points="25.32 59.64 27.9 60.71 26.82 58.14 24.25 57.06 25.32 59.64"/><polygon class="cls-4" points="25.77 59.19 26.98 59.69 26.47 58.49 25.27 57.99 25.77 59.19"/><polygon class="cls-4" points="17.77 53.26 22.36 55.18 20.44 50.59 15.86 48.67 17.77 53.26"/><polygon class="cls-3" points="18.36 52.67 20.93 53.75 19.86 51.17 17.28 50.1 18.36 52.67"/><polygon class="cls-4" points="18.81 52.22 20.01 52.73 19.51 51.52 18.3 51.02 18.81 52.22"/><path class="cls-4" d="M36.67,56.44a17,17,0,0,1,10.93-5.1,19.5,19.5,0,0,1-5.32,5.16C39.9,58,36.05,59,35.18,58.94,35.09,58.12,36.14,57,36.67,56.44Z"/><path class="cls-4" d="M8.34,57.76a17,17,0,0,1,8.94,8.1A19.81,19.81,0,0,1,10.46,63c-2.27-1.63-4.76-4.76-5-5.6C6.18,57,7.61,57.5,8.34,57.76Z"/><path class="cls-5" d="M5.7,62.25A12.13,12.13,0,0,1,12.05,68,13.89,13.89,0,0,1,7.2,65.94a13.26,13.26,0,0,1-3.55-4C4.16,61.68,5.18,62.06,5.7,62.25Z"/><path class="cls-3" d="M3.26,65.27a8.76,8.76,0,0,1,4.59,4.16,10.15,10.15,0,0,1-3.5-1.49,9.46,9.46,0,0,1-2.57-2.87C2.15,64.86,2.88,65.14,3.26,65.27Z"/><path class="cls-5" d="M51.42,48.15a10.7,10.7,0,0,1,6.87-3.21A12.3,12.3,0,0,1,55,48.19a11.51,11.51,0,0,1-4.47,1.53C50.42,49.21,51.09,48.51,51.42,48.15Z"/><path class="cls-3" d="M46.75,55.64a17.06,17.06,0,0,1,10.93-5.1,19.68,19.68,0,0,1-5.32,5.17c-2.38,1.46-6.23,2.53-7.1,2.43C45.17,57.32,46.22,56.21,46.75,55.64Z"/><path class="cls-5" d="M87.75,45.91a10.88,10.88,0,0,1,7-3.27A13,13,0,0,1,91.35,46a11.74,11.74,0,0,1-4.56,1.56C86.73,47,87.41,46.27,87.75,45.91Z"/><path class="cls-4" d="M77.94,48.47A12.62,12.62,0,0,1,86,44.71a14.4,14.4,0,0,1-3.93,3.81,13.77,13.77,0,0,1-5.23,1.8C76.78,49.71,77.55,48.89,77.94,48.47Z"/><path class="cls-3" d="M147.34,40.75h67.37l1,.41c.18.08.42.19.65.31.42.21.83.44.93.5a21.4,21.4,0,0,1,3.42,2.7c1,.83,3.27,4.81,1.43,6.76a3,3,0,0,1-3.91.24,2.46,2.46,0,0,1-.28-3.56,2.18,2.18,0,0,1,1.7-.72s-.45-4-8.88-4.88c0,0,3.88.78,3.06,3.21s-3.39,2.18-5.75.24A11.41,11.41,0,0,0,204,44c-3.16-.94-7.68-1.54-14-2.18l-.12,0h0l-1.75-.29-.11,0c.42.21.83.44.93.5a21.4,21.4,0,0,1,3.42,2.7c1,.83,3.27,4.81,1.43,6.76a3,3,0,0,1-3.91.24,2.46,2.46,0,0,1-.28-3.56,2.18,2.18,0,0,1,1.7-.72s-.45-4-8.87-4.88c0,0,3.87.78,3.05,3.21s-3.39,2.18-5.74.24a11.55,11.55,0,0,0-4.06-2c-3.16-.94-7.68-1.54-14-2.18l-1.87-.31-.11,0c.42.21.83.44.93.5a21.4,21.4,0,0,1,3.42,2.7c1,.83,3.27,4.81,1.43,6.76a3,3,0,0,1-3.91.24,2.46,2.46,0,0,1-.28-3.56,2.18,2.18,0,0,1,1.7-.72,3.16,3.16,0,0,0-.58-1.32c-.88-1.26-3-3-8.29-3.56,0,0,3.4.69,3.15,2.78a2.63,2.63,0,0,1-.1.43,2.3,2.3,0,0,1-2.28,1.74,4.21,4.21,0,0,1-1.68-.39A7.34,7.34,0,0,1,151.4,46a11.55,11.55,0,0,0-4.06-2c-3.16-.94-7.68-1.54-14-2.18l-16.44-1.06h30.48Z"/><polygon class="cls-5" points="202.38 50.48 204.27 45.88 206.15 50.48 204.27 55.08 202.38 50.48"/><polygon class="cls-3" points="203.21 50.48 204.27 47.9 205.32 50.48 204.27 53.06 203.21 50.48"/><polygon class="cls-4" points="203.84 50.48 204.34 49.27 204.83 50.48 204.34 51.69 203.84 50.48"/><polygon class="cls-5" points="202.38 60.33 204.27 55.73 206.15 60.33 204.27 64.93 202.38 60.33"/><polygon class="cls-3" points="203.21 60.33 204.27 57.75 205.32 60.33 204.27 62.91 203.21 60.33"/><polygon class="cls-4" points="203.84 60.33 204.34 59.12 204.83 60.33 204.34 61.54 203.84 60.33"/><polygon class="cls-5" points="199.34 57.29 194.74 55.41 199.34 53.52 203.94 55.41 199.34 57.29"/><polygon class="cls-3" points="199.34 56.46 196.76 55.41 199.34 54.35 201.92 55.41 199.34 56.46"/><polygon class="cls-4" points="199.34 55.83 198.13 55.34 199.34 54.84 200.55 55.34 199.34 55.83"/><polygon class="cls-5" points="209.19 57.29 204.59 55.41 209.19 53.52 213.79 55.41 209.19 57.29"/><polygon class="cls-3" points="209.19 56.46 206.61 55.41 209.19 54.35 211.77 55.41 209.19 56.46"/><polygon class="cls-4" points="209.19 55.83 207.99 55.34 209.19 54.84 210.4 55.34 209.19 55.83"/><polygon class="cls-4" points="199.45 53.26 197.53 48.67 202.12 50.59 204.04 55.18 199.45 53.26"/><polygon class="cls-3" points="200.03 52.67 198.96 50.1 201.53 51.17 202.61 53.75 200.03 52.67"/><polygon class="cls-4" points="200.48 52.22 199.98 51.02 201.18 51.52 201.69 52.73 200.48 52.22"/><polygon class="cls-4" points="206.41 60.22 204.5 55.63 209.08 57.55 211 62.14 206.41 60.22"/><polygon class="cls-3" points="207 59.64 205.92 57.06 208.5 58.14 209.57 60.71 207 59.64"/><polygon class="cls-4" points="207.45 59.19 206.94 57.99 208.15 58.49 208.65 59.69 207.45 59.19"/><polygon class="cls-4" points="202.12 60.22 197.53 62.14 199.45 57.55 204.04 55.63 202.12 60.22"/><polygon class="cls-3" points="201.53 59.64 198.96 60.71 200.03 58.14 202.61 57.06 201.53 59.64"/><polygon class="cls-4" points="201.09 59.19 199.88 59.69 200.38 58.49 201.59 57.99 201.09 59.19"/><polygon class="cls-4" points="209.08 53.26 204.5 55.18 206.41 50.59 211 48.67 209.08 53.26"/><polygon class="cls-3" points="208.5 52.67 205.92 53.75 207 51.17 209.57 50.1 208.5 52.67"/><polygon class="cls-4" points="208.05 52.22 206.85 52.73 207.35 51.52 208.55 51.02 208.05 52.22"/><path class="cls-4" d="M190.19,56.44a17,17,0,0,0-10.94-5.1,19.64,19.64,0,0,0,5.32,5.16c2.39,1.46,6.24,2.54,7.1,2.44C191.77,58.12,190.71,57,190.19,56.44Z"/><path class="cls-4" d="M218.52,57.76a17.06,17.06,0,0,0-9,8.1A19.78,19.78,0,0,0,216.4,63c2.27-1.63,4.76-4.76,5-5.6C220.68,57,219.25,57.5,218.52,57.76Z"/><path class="cls-5" d="M221.16,62.25A12.13,12.13,0,0,0,214.81,68a13.84,13.84,0,0,0,4.84-2.06,13.32,13.32,0,0,0,3.56-4C222.7,61.68,221.68,62.06,221.16,62.25Z"/><path class="cls-3" d="M223.6,65.27A8.76,8.76,0,0,0,219,69.43a10.15,10.15,0,0,0,3.5-1.49,9.46,9.46,0,0,0,2.57-2.87C224.71,64.86,224,65.14,223.6,65.27Z"/><path class="cls-5" d="M175.44,48.15a10.7,10.7,0,0,0-6.87-3.21,12.16,12.16,0,0,0,3.34,3.25,11.51,11.51,0,0,0,4.47,1.53C176.43,49.21,175.77,48.51,175.44,48.15Z"/><path class="cls-3" d="M180.11,55.64a17.08,17.08,0,0,0-10.94-5.1,19.72,19.72,0,0,0,5.33,5.17c2.38,1.46,6.23,2.53,7.1,2.43C181.69,57.32,180.63,56.21,180.11,55.64Z"/><path class="cls-5" d="M139.11,45.91a10.9,10.9,0,0,0-7-3.27A12.83,12.83,0,0,0,135.51,46a11.74,11.74,0,0,0,4.56,1.56C140.13,47,139.45,46.27,139.11,45.91Z"/><path class="cls-4" d="M148.91,48.47a12.57,12.57,0,0,0-8.06-3.76,14.5,14.5,0,0,0,3.92,3.81,13.75,13.75,0,0,0,5.24,1.8C150.08,49.71,149.3,48.89,148.91,48.47Z"/><path class="cls-3" d="M147.34,108h67.37l1-.42a7,7,0,0,0,.65-.3l.93-.5a22.67,22.67,0,0,0,3.42-2.7c1-.84,3.27-4.81,1.43-6.77a3,3,0,0,0-3.91-.23,2.45,2.45,0,0,0-.28,3.55,2.18,2.18,0,0,0,1.7.72s-.45,4.05-8.88,4.88c0,0,3.88-.78,3.06-3.21s-3.39-2.17-5.75-.23a11.24,11.24,0,0,1-4.05,2c-3.16,1-7.68,1.55-14,2.19l-.12,0h0l-1.75.29-.11,0c.42-.21.83-.44.93-.5a22.67,22.67,0,0,0,3.42-2.7c1-.84,3.27-4.81,1.43-6.77a3,3,0,0,0-3.91-.23,2.45,2.45,0,0,0-.28,3.55,2.21,2.21,0,0,0,1.7.73s-.45,4-8.87,4.87c0,0,3.87-.78,3.05-3.21s-3.39-2.17-5.74-.23a11.38,11.38,0,0,1-4.06,2c-3.16,1-7.68,1.55-14,2.19l-1.87.31-.11,0c.42-.21.83-.44.93-.5a22.67,22.67,0,0,0,3.42-2.7c1-.84,3.27-4.81,1.43-6.77a3,3,0,0,0-3.91-.23,2.45,2.45,0,0,0-.28,3.55,2.21,2.21,0,0,0,1.7.73,3.22,3.22,0,0,1-.58,1.32c-.88,1.26-3,3-8.29,3.55,0,0,3.4-.68,3.15-2.77a2.73,2.73,0,0,0-.1-.44,2.29,2.29,0,0,0-2.28-1.73,4.36,4.36,0,0,0-1.68.38,7.72,7.72,0,0,0-1.78,1.12,11.38,11.38,0,0,1-4.06,2c-3.16,1-7.68,1.55-14,2.19L116.86,108h30.48Z"/><polygon class="cls-5" points="202.38 98.27 204.27 102.87 206.15 98.27 204.27 93.67 202.38 98.27"/><polygon class="cls-3" points="203.21 98.27 204.27 100.85 205.32 98.27 204.27 95.69 203.21 98.27"/><polygon class="cls-4" points="203.84 98.27 204.34 99.47 204.83 98.27 204.34 97.06 203.84 98.27"/><polygon class="cls-5" points="202.38 88.42 204.27 93.02 206.15 88.42 204.27 83.81 202.38 88.42"/><polygon class="cls-3" points="203.21 88.42 204.27 91 205.32 88.42 204.27 85.84 203.21 88.42"/><polygon class="cls-4" points="203.84 88.42 204.34 89.62 204.83 88.42 204.34 87.21 203.84 88.42"/><polygon class="cls-5" points="199.34 91.45 194.74 93.34 199.34 95.23 203.94 93.34 199.34 91.45"/><polygon class="cls-3" points="199.34 92.28 196.76 93.34 199.34 94.4 201.92 93.34 199.34 92.28"/><polygon class="cls-4" points="199.34 92.92 198.13 93.41 199.34 93.91 200.55 93.41 199.34 92.92"/><polygon class="cls-5" points="209.19 91.45 204.59 93.34 209.19 95.23 213.79 93.34 209.19 91.45"/><polygon class="cls-3" points="209.19 92.28 206.61 93.34 209.19 94.4 211.77 93.34 209.19 92.28"/><polygon class="cls-4" points="209.19 92.92 207.99 93.41 209.19 93.91 210.4 93.41 209.19 92.92"/><polygon class="cls-4" points="199.45 95.49 197.53 100.08 202.12 98.16 204.04 93.57 199.45 95.49"/><polygon class="cls-3" points="200.03 96.08 198.96 98.65 201.53 97.57 202.61 95 200.03 96.08"/><polygon class="cls-4" points="200.48 96.52 199.98 97.73 201.18 97.22 201.69 96.02 200.48 96.52"/><polygon class="cls-4" points="206.41 88.52 204.5 93.11 209.08 91.19 211 86.61 206.41 88.52"/><polygon class="cls-3" points="207 89.11 205.92 91.68 208.5 90.61 209.57 88.03 207 89.11"/><polygon class="cls-4" points="207.45 89.56 206.94 90.76 208.15 90.26 208.65 89.05 207.45 89.56"/><polygon class="cls-4" points="202.12 88.52 197.53 86.61 199.45 91.19 204.04 93.11 202.12 88.52"/><polygon class="cls-3" points="201.53 89.11 198.96 88.03 200.03 90.61 202.61 91.68 201.53 89.11"/><polygon class="cls-4" points="201.09 89.56 199.88 89.05 200.38 90.26 201.59 90.76 201.09 89.56"/><polygon class="cls-4" points="209.08 95.49 204.5 93.57 206.41 98.16 211 100.08 209.08 95.49"/><polygon class="cls-3" points="208.5 96.08 205.92 95 207 97.57 209.57 98.65 208.5 96.08"/><polygon class="cls-4" points="208.05 96.52 206.85 96.02 207.35 97.22 208.55 97.73 208.05 96.52"/><path class="cls-4" d="M190.19,92.31a17.08,17.08,0,0,1-10.94,5.1,19.83,19.83,0,0,1,5.32-5.17c2.39-1.46,6.24-2.53,7.1-2.43C191.77,90.63,190.71,91.74,190.19,92.31Z"/><path class="cls-4" d="M218.52,91a17.06,17.06,0,0,1-9-8.1,19.59,19.59,0,0,1,6.83,2.9c2.27,1.63,4.76,4.76,5,5.6C220.68,91.79,219.25,91.25,218.52,91Z"/><path class="cls-5" d="M221.16,86.5a12.13,12.13,0,0,1-6.35-5.75,13.84,13.84,0,0,1,4.84,2.06,13.21,13.21,0,0,1,3.56,4C222.7,87.06,221.68,86.68,221.16,86.5Z"/><path class="cls-3" d="M223.6,83.47A8.74,8.74,0,0,1,219,79.32a10,10,0,0,1,3.5,1.48,9.46,9.46,0,0,1,2.57,2.88C224.71,83.88,224,83.61,223.6,83.47Z"/><path class="cls-5" d="M175.44,100.6a10.74,10.74,0,0,1-6.87,3.2,12.26,12.26,0,0,1,3.34-3.24A11.51,11.51,0,0,1,176.38,99C176.43,99.54,175.77,100.24,175.44,100.6Z"/><path class="cls-3" d="M180.11,93.11a17.07,17.07,0,0,1-10.94,5.09A19.68,19.68,0,0,1,174.5,93c2.38-1.46,6.23-2.54,7.1-2.43C181.69,91.42,180.63,92.53,180.11,93.11Z"/><path class="cls-5" d="M139.11,102.84a11,11,0,0,1-7,3.27,12.53,12.53,0,0,1,3.42-3.31,12,12,0,0,1,4.56-1.57C140.13,101.76,139.45,102.47,139.11,102.84Z"/><path class="cls-4" d="M148.91,100.28a12.56,12.56,0,0,1-8.06,3.75,14.46,14.46,0,0,1,3.92-3.8,13.58,13.58,0,0,1,5.24-1.8C150.08,99,149.3,99.85,148.91,100.28Z"/><path class="cls-3" d="M79.52,108H12.15l-1-.42-.65-.3c-.41-.22-.83-.44-.92-.5a22.12,22.12,0,0,1-3.42-2.7c-1-.84-3.27-4.81-1.43-6.77a3,3,0,0,1,3.9-.23,2.45,2.45,0,0,1,.29,3.55,2.2,2.2,0,0,1-1.71.72s.46,4.05,8.88,4.88c0,0-3.87-.78-3.05-3.21s3.38-2.17,5.74-.23a11.38,11.38,0,0,0,4.06,2c3.15,1,7.68,1.55,14,2.19l.12,0h0l1.75.29.1,0c-.41-.21-.83-.44-.92-.5a22.12,22.12,0,0,1-3.42-2.7c-1-.84-3.27-4.81-1.43-6.77a3,3,0,0,1,3.9-.23,2.45,2.45,0,0,1,.29,3.55,2.23,2.23,0,0,1-1.71.73s.46,4,8.88,4.87c0,0-3.87-.78-3.05-3.21s3.38-2.17,5.74-.23a11.38,11.38,0,0,0,4.06,2c3.15,1,7.68,1.55,14,2.19l1.87.31.1,0c-.41-.21-.83-.44-.92-.5a23,23,0,0,1-3.43-2.7c-1-.84-3.26-4.81-1.42-6.77a3,3,0,0,1,3.9-.23,2.45,2.45,0,0,1,.29,3.55,2.23,2.23,0,0,1-1.71.73,3.35,3.35,0,0,0,.59,1.32c.87,1.26,3,3,8.29,3.55,0,0-3.4-.68-3.15-2.77a2,2,0,0,1,.1-.44A2.29,2.29,0,0,1,72,101.29a4.36,4.36,0,0,1,1.68.38,7.94,7.94,0,0,1,1.78,1.12,11.38,11.38,0,0,0,4.06,2c3.15,1,7.68,1.55,14,2.19L110,108H79.52Z"/><polygon class="cls-5" points="24.48 98.27 22.59 102.87 20.7 98.27 22.59 93.67 24.48 98.27"/><polygon class="cls-3" points="23.65 98.27 22.59 100.85 21.53 98.27 22.59 95.69 23.65 98.27"/><polygon class="cls-4" points="23.02 98.27 22.52 99.47 22.03 98.27 22.52 97.06 23.02 98.27"/><polygon class="cls-5" points="24.48 88.42 22.59 93.02 20.7 88.42 22.59 83.81 24.48 88.42"/><polygon class="cls-3" points="23.65 88.42 22.59 91 21.53 88.42 22.59 85.84 23.65 88.42"/><polygon class="cls-4" points="23.02 88.42 22.52 89.62 22.03 88.42 22.52 87.21 23.02 88.42"/><polygon class="cls-5" points="27.52 91.45 32.12 93.34 27.52 95.23 22.91 93.34 27.52 91.45"/><polygon class="cls-3" points="27.52 92.28 30.1 93.34 27.52 94.4 24.94 93.34 27.52 92.28"/><polygon class="cls-4" points="27.52 92.92 28.72 93.41 27.52 93.91 26.31 93.41 27.52 92.92"/><polygon class="cls-5" points="17.67 91.45 22.27 93.34 17.67 95.23 13.06 93.34 17.67 91.45"/><polygon class="cls-3" points="17.67 92.28 20.25 93.34 17.67 94.4 15.09 93.34 17.67 92.28"/><polygon class="cls-4" points="17.67 92.92 18.87 93.41 17.67 93.91 16.46 93.41 17.67 92.92"/><polygon class="cls-4" points="27.41 95.49 29.33 100.08 24.74 98.16 22.82 93.57 27.41 95.49"/><polygon class="cls-3" points="26.82 96.08 27.9 98.65 25.32 97.57 24.25 95 26.82 96.08"/><polygon class="cls-4" points="26.38 96.52 26.88 97.73 25.68 97.22 25.17 96.02 26.38 96.52"/><polygon class="cls-4" points="20.44 88.52 22.36 93.11 17.77 91.19 15.86 86.61 20.44 88.52"/><polygon class="cls-3" points="19.86 89.11 20.93 91.68 18.36 90.61 17.28 88.03 19.86 89.11"/><polygon class="cls-4" points="19.41 89.56 19.91 90.76 18.71 90.26 18.21 89.05 19.41 89.56"/><polygon class="cls-4" points="24.74 88.52 29.33 86.61 27.41 91.19 22.82 93.11 24.74 88.52"/><polygon class="cls-3" points="25.32 89.11 27.9 88.03 26.82 90.61 24.25 91.68 25.32 89.11"/><polygon class="cls-4" points="25.77 89.56 26.98 89.05 26.47 90.26 25.27 90.76 25.77 89.56"/><polygon class="cls-4" points="17.77 95.49 22.36 93.57 20.44 98.16 15.86 100.08 17.77 95.49"/><polygon class="cls-3" points="18.36 96.08 20.93 95 19.86 97.57 17.28 98.65 18.36 96.08"/><polygon class="cls-4" points="18.81 96.52 20.01 96.02 19.51 97.22 18.3 97.73 18.81 96.52"/><path class="cls-4" d="M36.67,92.31a17.06,17.06,0,0,0,10.93,5.1,19.68,19.68,0,0,0-5.32-5.17c-2.38-1.46-6.23-2.53-7.1-2.43C35.09,90.63,36.14,91.74,36.67,92.31Z"/><path class="cls-4" d="M8.34,91a17,17,0,0,0,8.94-8.1,19.62,19.62,0,0,0-6.82,2.9c-2.27,1.63-4.76,4.76-5,5.6C6.18,91.79,7.61,91.25,8.34,91Z"/><path class="cls-5" d="M5.7,86.5a12.13,12.13,0,0,0,6.35-5.75A13.89,13.89,0,0,0,7.2,82.81a13.14,13.14,0,0,0-3.55,4C4.16,87.06,5.18,86.68,5.7,86.5Z"/><path class="cls-3" d="M3.26,83.47a8.74,8.74,0,0,0,4.59-4.15,10,10,0,0,0-3.5,1.48,9.46,9.46,0,0,0-2.57,2.88C2.15,83.88,2.88,83.61,3.26,83.47Z"/><path class="cls-5" d="M51.42,100.6a10.74,10.74,0,0,0,6.87,3.2A12.41,12.41,0,0,0,55,100.56,11.51,11.51,0,0,0,50.48,99C50.42,99.54,51.09,100.24,51.42,100.6Z"/><path class="cls-3" d="M46.75,93.11A17,17,0,0,0,57.68,98.2,19.65,19.65,0,0,0,52.36,93c-2.38-1.46-6.23-2.54-7.1-2.43C45.17,91.42,46.22,92.53,46.75,93.11Z"/><path class="cls-5" d="M87.75,102.84a10.93,10.93,0,0,0,7,3.27,12.67,12.67,0,0,0-3.42-3.31,12,12,0,0,0-4.56-1.57C86.73,101.76,87.41,102.47,87.75,102.84Z"/><path class="cls-4" d="M77.94,100.28A12.6,12.6,0,0,0,86,104a14.36,14.36,0,0,0-3.93-3.8,13.6,13.6,0,0,0-5.23-1.8C76.78,99,77.55,99.85,77.94,100.28Z"/><rect class="cls-2" x="113.13" y="-37.15" width="226.25" height="74.3"/><polygon class="cls-3" points="226 -32.47 113.31 -0.91 226 30.66 338.7 -0.91 226 -32.47"/><polygon class="cls-4" points="226 -16.96 168.21 -0.78 226 15.41 283.79 -0.78 226 -16.96"/><polygon class="cls-5" points="137.97 -4.49 125.17 -0.91 137.97 2.68 150.76 -0.91 137.97 -4.49"/><polygon class="cls-3" points="137.97 -2.92 130.79 -0.91 137.97 1.1 145.14 -0.91 137.97 -2.92"/><polygon class="cls-4" points="137.97 -1.72 134.61 -0.78 137.97 0.16 141.32 -0.78 137.97 -1.72"/><path class="cls-5" d="M226.52,22.48c-.14.42-3.45-.72-3.93-.88,0,0-.06,0-.06,0l-.05,0c-.07,0-.15.16-.11,0L220.19,21c-2.38-.22-5.49-.23-6-.21-.64,0-3.73.23-4.69-.33S210,19,210,19a24.41,24.41,0,0,1-2.68-.43,4.75,4.75,0,0,1-1.81-.85,18.8,18.8,0,0,1-9.66-2c-1.78-.08-3.9-.16-7.68-.63-1.75-.21-3.21-.43-4.45-.64h-.09c-2.76.52-7.48.5-9.45-1.43-1.18-1.15-.07-2.25,1-2.95a3.93,3.93,0,0,0-1.46-.89,3.56,3.56,0,0,0-2.24,0,5.59,5.59,0,0,0-.95.48c-2.75-2.38-.39-3.38-.39-3.38-1.48-.91-4.94-1-4.94-1,1.57,2.25-1.49,2.16-3.07,2.58s-1.35,1.57-1.35,1.57c-2.62-1.8-1.06-3.23-1.06-3.23-4.05-.34-5.82-3.47-7.78-5.11a6.14,6.14,0,0,0-4.07-1.48s1.76-1.23,4.9.44,4.22,3.32,13,4.07c6.58.56,9.56,3.5,10,4-1.75-2.82,1.6-3.33,5.4-2.35a12.23,12.23,0,0,1,4.25,2.62,29.15,29.15,0,0,0,8,4.71c6.44-.29,10.25,1.8,12.06,3.21a14.65,14.65,0,0,1,4.61.72c0-.26-.17-2.51,3.15-.26a39.23,39.23,0,0,0,5.35,2.92l4.26,1.1C223,20.89,226.66,22,226.52,22.48Z"/><polygon class="cls-5" points="226.52 19.36 218.68 22.57 226.52 25.79 234.37 22.57 226.52 19.36"/><polygon class="cls-3" points="226.52 20.77 222.13 22.57 226.52 24.38 230.92 22.57 226.52 20.77"/><polygon class="cls-4" points="226.52 21.85 224.47 22.69 226.52 23.53 228.58 22.69 226.52 21.85"/><polygon class="cls-5" points="228.88 7.09 226 0.08 223.13 7.09 226 14.1 228.88 7.09"/><polygon class="cls-3" points="227.61 7.09 226 3.16 224.39 7.09 226 11.02 227.61 7.09"/><polygon class="cls-4" points="226.65 7.09 225.9 5.25 225.14 7.09 225.9 8.93 226.65 7.09"/><polygon class="cls-5" points="218.5 2.47 225.51 -0.41 218.5 -3.29 211.49 -0.41 218.5 2.47"/><polygon class="cls-3" points="218.5 1.2 222.43 -0.41 218.5 -2.02 214.57 -0.41 218.5 1.2"/><polygon class="cls-4" points="218.5 0.24 220.34 -0.52 218.5 -1.27 216.66 -0.52 218.5 0.24"/><polygon class="cls-4" points="222.73 6.93 225.65 -0.06 218.66 2.86 215.74 9.85 222.73 6.93"/><polygon class="cls-3" points="221.84 6.04 223.47 2.12 219.56 3.75 217.91 7.67 221.84 6.04"/><polygon class="cls-4" points="221.16 5.36 221.92 3.52 220.09 4.29 219.32 6.12 221.16 5.36"/><polygon class="cls-5" points="203.89 4.03 202.21 -0.09 200.52 4.03 202.21 8.14 203.89 4.03"/><polygon class="cls-3" points="203.15 4.03 202.21 1.72 201.26 4.03 202.21 6.33 203.15 4.03"/><polygon class="cls-4" points="202.59 4.03 202.14 2.95 201.7 4.03 202.14 5.1 202.59 4.03"/><polygon class="cls-5" points="206.61 1.31 210.72 -0.38 206.61 -2.07 202.5 -0.38 206.61 1.31"/><polygon class="cls-3" points="206.61 0.57 208.92 -0.38 206.61 -1.33 204.3 -0.38 206.61 0.57"/><polygon class="cls-5" points="197.8 1.31 201.92 -0.38 197.8 -2.07 193.69 -0.38 197.8 1.31"/><polygon class="cls-3" points="197.8 0.57 200.11 -0.38 197.8 -1.33 195.49 -0.38 197.8 0.57"/><polygon class="cls-4" points="200.28 3.93 202 -0.17 197.9 1.54 196.18 5.64 200.28 3.93"/><polygon class="cls-3" points="199.76 3.4 200.72 1.1 198.42 2.06 197.46 4.37 199.76 3.4"/><polygon class="cls-4" points="199.36 3 199.81 1.93 198.74 2.38 198.28 3.45 199.36 3"/><polygon class="cls-4" points="204.13 3.93 208.23 5.64 206.51 1.54 202.41 -0.17 204.13 3.93"/><polygon class="cls-3" points="204.65 3.4 206.95 4.37 205.99 2.06 203.69 1.1 204.65 3.4"/><polygon class="cls-4" points="205.05 3 206.13 3.45 205.68 2.38 204.6 1.93 205.05 3"/><path class="cls-3" d="M192.65,33.7H125.28l-1-.42c-.18-.07-.41-.19-.65-.31-.42-.21-.83-.44-.93-.49a21.85,21.85,0,0,1-3.42-2.71c-1-.83-3.26-4.8-1.43-6.76a3,3,0,0,1,3.91-.24,2.46,2.46,0,0,1,.29,3.56,2.2,2.2,0,0,1-1.71.72s.45,4.05,8.88,4.88c0,0-3.88-.78-3.06-3.21s3.39-2.17,5.75-.23a11.3,11.3,0,0,0,4.06,2c3.15.95,7.67,1.54,14,2.19l.11,0h0l1.75.29.11,0c-.42-.21-.83-.44-.93-.49a22.67,22.67,0,0,1-3.42-2.7c-1-.84-3.26-4.81-1.43-6.77a3,3,0,0,1,3.91-.24,2.46,2.46,0,0,1,.29,3.56,2.2,2.2,0,0,1-1.71.72s.45,4.05,8.88,4.88c0,0-3.88-.78-3.06-3.21s3.39-2.17,5.75-.23a11.3,11.3,0,0,0,4.06,2c3.15.95,7.67,1.54,14,2.19l1.86.31.11,0c-.42-.21-.83-.44-.93-.49a22.67,22.67,0,0,1-3.42-2.7c-1-.84-3.27-4.81-1.43-6.77a3,3,0,0,1,3.91-.24,2.46,2.46,0,0,1,.29,3.56,2.2,2.2,0,0,1-1.71.72,3.17,3.17,0,0,0,.59,1.33c.87,1.26,3,3,8.29,3.55,0,0-3.41-.69-3.16-2.77a2.51,2.51,0,0,1,.1-.44A2.28,2.28,0,0,1,185.12,27a4.19,4.19,0,0,1,1.69.38,7.8,7.8,0,0,1,1.78,1.12,11.3,11.3,0,0,0,4.06,2c3.15.95,7.67,1.54,14,2.19l16.43,1.06H192.65Z"/><polygon class="cls-5" points="137.6 23.96 135.72 28.57 133.83 23.96 135.72 19.36 137.6 23.96"/><polygon class="cls-3" points="136.78 23.96 135.72 26.55 134.66 23.96 135.72 21.38 136.78 23.96"/><polygon class="cls-4" points="136.14 23.96 135.65 25.17 135.15 23.96 135.65 22.76 136.14 23.96"/><polygon class="cls-5" points="137.6 14.11 135.72 18.71 133.83 14.11 135.72 9.51 137.6 14.11"/><polygon class="cls-3" points="136.78 14.11 135.72 16.69 134.66 14.11 135.72 11.53 136.78 14.11"/><polygon class="cls-4" points="136.14 14.11 135.65 15.32 135.15 14.11 135.65 12.91 136.14 14.11"/><polygon class="cls-5" points="140.64 17.15 145.24 19.04 140.64 20.93 136.04 19.04 140.64 17.15"/><polygon class="cls-3" points="140.64 17.98 143.22 19.04 140.64 20.1 138.06 19.04 140.64 17.98"/><polygon class="cls-4" points="140.64 18.61 141.85 19.11 140.64 19.6 139.44 19.11 140.64 18.61"/><polygon class="cls-5" points="130.79 17.15 135.39 19.04 130.79 20.93 126.19 19.04 130.79 17.15"/><polygon class="cls-3" points="130.79 17.98 133.37 19.04 130.79 20.1 128.21 19.04 130.79 17.98"/><polygon class="cls-4" points="130.79 18.61 132 19.11 130.79 19.6 129.59 19.11 130.79 18.61"/><polygon class="cls-4" points="140.53 21.19 142.45 25.78 137.87 23.86 135.95 19.27 140.53 21.19"/><polygon class="cls-3" points="139.95 21.77 141.03 24.35 138.45 23.27 137.38 20.7 139.95 21.77"/><polygon class="cls-4" points="139.5 22.22 140 23.42 138.8 22.92 138.3 21.72 139.5 22.22"/><polygon class="cls-4" points="133.57 14.22 135.49 18.81 130.9 16.89 128.98 12.3 133.57 14.22"/><polygon class="cls-3" points="132.98 14.81 134.06 17.38 131.49 16.3 130.41 13.73 132.98 14.81"/><polygon class="cls-4" points="132.54 15.26 133.04 16.46 131.84 15.96 131.33 14.75 132.54 15.26"/><polygon class="cls-4" points="137.87 14.22 142.45 12.3 140.53 16.89 135.95 18.81 137.87 14.22"/><polygon class="cls-3" points="138.45 14.81 141.03 13.73 139.95 16.3 137.38 17.38 138.45 14.81"/><polygon class="cls-4" points="138.9 15.26 140.1 14.75 139.6 15.96 138.4 16.46 138.9 15.26"/><polygon class="cls-4" points="130.9 21.19 135.49 19.27 133.57 23.86 128.98 25.78 130.9 21.19"/><polygon class="cls-3" points="131.49 21.77 134.06 20.7 132.98 23.27 130.41 24.35 131.49 21.77"/><polygon class="cls-4" points="131.93 22.22 133.14 21.72 132.63 22.92 131.43 23.42 131.93 22.22"/><path class="cls-4" d="M149.8,18a17,17,0,0,0,10.93,5.09,19.79,19.79,0,0,0-5.32-5.16c-2.39-1.46-6.24-2.54-7.1-2.43C148.22,16.32,149.27,17.44,149.8,18Z"/><path class="cls-4" d="M121.47,16.68a17,17,0,0,0,8.94-8.09,19.54,19.54,0,0,0-6.82,2.9c-2.28,1.63-4.76,4.76-5,5.59C119.3,17.48,120.73,17,121.47,16.68Z"/><path class="cls-5" d="M118.82,12.19a12.07,12.07,0,0,0,6.35-5.74,14,14,0,0,0-4.84,2.05,13.14,13.14,0,0,0-3.55,4C117.29,12.76,118.3,12.38,118.82,12.19Z"/><path class="cls-3" d="M116.38,9.17A8.77,8.77,0,0,0,121,5a10.12,10.12,0,0,0-3.51,1.49,9.75,9.75,0,0,0-2.57,2.88C115.27,9.58,116,9.31,116.38,9.17Z"/><path class="cls-5" d="M164.54,26.3a10.74,10.74,0,0,0,6.88,3.2,12.33,12.33,0,0,0-3.35-3.25,11.89,11.89,0,0,0-4.46-1.53C163.55,25.24,164.21,25.94,164.54,26.3Z"/><path class="cls-3" d="M159.88,18.8a17,17,0,0,0,10.93,5.1,19.64,19.64,0,0,0-5.32-5.16c-2.39-1.46-6.24-2.54-7.1-2.44C158.3,17.12,159.35,18.23,159.88,18.8Z"/><path class="cls-5" d="M200.87,28.54a11,11,0,0,0,7,3.27,12.57,12.57,0,0,0-3.42-3.32,12.12,12.12,0,0,0-4.55-1.56C199.86,27.46,200.53,28.17,200.87,28.54Z"/><path class="cls-4" d="M191.07,26a12.52,12.52,0,0,0,8.06,3.76,14.65,14.65,0,0,0-3.92-3.81A13.69,13.69,0,0,0,190,24.13C189.9,24.73,190.68,25.55,191.07,26Z"/><rect class="cls-2" x="-113.13" y="-37.15" width="226.25" height="74.3"/><polygon class="cls-3" points="-0.25 -32.47 -112.95 -0.91 -0.25 30.66 112.45 -0.91 -0.25 -32.47"/><polygon class="cls-4" points="-0.25 -16.96 -58.04 -0.78 -0.25 15.41 57.54 -0.78 -0.25 -16.96"/><polygon class="cls-5" points="88.44 -4.49 75.65 -0.91 88.44 2.68 101.24 -0.91 88.44 -4.49"/><polygon class="cls-3" points="88.44 -2.92 81.27 -0.91 88.44 1.1 95.62 -0.91 88.44 -2.92"/><polygon class="cls-4" points="88.44 -1.72 85.09 -0.78 88.44 0.16 91.8 -0.78 88.44 -1.72"/><path class="cls-5" d="M.27,22.48c-.14.42-3.45-.72-3.94-.88,0,0-.05,0-.05,0l0,0c-.07,0-.16.16-.11,0L-6.06,21c-2.39-.22-5.49-.23-6-.21-.65,0-3.73.23-4.69-.33S-16.3,19-16.3,19A24.41,24.41,0,0,1-19,18.56a4.68,4.68,0,0,1-1.81-.85,18.86,18.86,0,0,1-9.67-2c-1.77-.08-3.89-.16-7.67-.63-1.75-.21-3.21-.43-4.45-.64h-.09c-2.76.52-7.48.5-9.45-1.43-1.18-1.15-.08-2.25,1-2.95a3.93,3.93,0,0,0-1.46-.89,3.56,3.56,0,0,0-2.24,0,5.59,5.59,0,0,0-.95.48c-2.75-2.38-.39-3.38-.39-3.38-1.48-.91-4.94-1-4.94-1,1.56,2.25-1.49,2.16-3.07,2.58s-1.36,1.57-1.36,1.57c-2.61-1.8-1-3.23-1-3.23-4.05-.34-5.82-3.47-7.78-5.11A6.15,6.15,0,0,0-78.42-.34s1.76-1.23,4.9.44,4.22,3.32,13,4.07c6.58.56,9.55,3.5,10,4-1.75-2.82,1.6-3.33,5.4-2.35A12.23,12.23,0,0,1-40.9,8.42a29.15,29.15,0,0,0,8,4.71c6.44-.29,10.25,1.8,12.06,3.21a14.65,14.65,0,0,1,4.61.72c-.05-.26-.18-2.51,3.15-.26a39.23,39.23,0,0,0,5.35,2.92l4.26,1.1C-3.24,20.89.41,22,.27,22.48Z"/><path class="cls-5" d="M.28,22.48c.13.42,3.45-.72,3.93-.88,0,0,0,0,0,0l.06,0c.07,0,.15.16.11,0L6.6,21c2.39-.22,5.5-.23,6-.21.64,0,3.73.23,4.68-.33S16.84,19,16.84,19a24.74,24.74,0,0,0,2.69-.43,4.82,4.82,0,0,0,1.81-.85,18.8,18.8,0,0,0,9.66-2c1.77-.08,3.9-.16,7.68-.63,1.74-.21,3.2-.43,4.45-.64h.09C46,15,50.7,15,52.67,13c1.18-1.15.07-2.25-1-2.95a3.89,3.89,0,0,1,1.45-.89,3.6,3.6,0,0,1,2.25,0,5.46,5.46,0,0,1,.94.48c2.76-2.38.4-3.38.4-3.38,1.48-.91,4.94-1,4.94-1-1.57,2.25,1.49,2.16,3.07,2.58s1.35,1.57,1.35,1.57c2.62-1.8,1.06-3.23,1.06-3.23,4-.34,5.82-3.47,7.77-5.11A6.15,6.15,0,0,1,79-.34S77.2-1.57,74.06.1s-4.21,3.32-13,4.07c-6.59.56-9.56,3.5-10,4,1.75-2.82-1.61-3.33-5.41-2.35a12.33,12.33,0,0,0-4.25,2.62,28.86,28.86,0,0,1-8,4.71c-6.43-.29-10.24,1.8-12.06,3.21a14.71,14.71,0,0,0-4.61.72c0-.26.18-2.51-3.14-.26a40.46,40.46,0,0,1-5.35,2.92L4,20.82C3.78,20.89.13,22,.28,22.48Z"/><polygon class="cls-5" points="0.27 19.36 -7.57 22.57 0.27 25.79 8.11 22.57 0.27 19.36"/><polygon class="cls-3" points="0.27 20.77 -4.13 22.57 0.27 24.38 4.67 22.57 0.27 20.77"/><polygon class="cls-4" points="0.27 21.85 -1.78 22.69 0.27 23.53 2.33 22.69 0.27 21.85"/><polygon class="cls-5" points="2.63 7.09 -0.25 0.08 -3.13 7.09 -0.25 14.1 2.63 7.09"/><polygon class="cls-3" points="1.36 7.09 -0.25 3.16 -1.86 7.09 -0.25 11.02 1.36 7.09"/><polygon class="cls-4" points="0.4 7.09 -0.35 5.25 -1.11 7.09 -0.35 8.93 0.4 7.09"/><polygon class="cls-5" points="7.25 2.47 14.26 -0.41 7.25 -3.29 0.24 -0.41 7.25 2.47"/><polygon class="cls-3" points="7.25 1.2 11.18 -0.41 7.25 -2.02 3.32 -0.41 7.25 1.2"/><polygon class="cls-4" points="7.25 0.24 9.09 -0.52 7.25 -1.27 5.41 -0.52 7.25 0.24"/><polygon class="cls-4" points="3.02 6.93 10.01 9.85 7.09 2.86 0.1 -0.06 3.02 6.93"/><polygon class="cls-3" points="3.91 6.04 7.83 7.67 6.2 3.75 2.27 2.12 3.91 6.04"/><polygon class="cls-4" points="4.6 5.36 6.43 6.12 5.66 4.29 3.83 3.52 4.6 5.36"/><polygon class="cls-5" points="25.45 4.03 23.76 -0.09 22.07 4.03 23.76 8.14 25.45 4.03"/><polygon class="cls-3" points="24.71 4.03 23.76 1.72 22.81 4.03 23.76 6.33 24.71 4.03"/><polygon class="cls-4" points="24.14 4.03 23.7 2.95 23.25 4.03 23.7 5.1 24.14 4.03"/><polygon class="cls-5" points="28.16 1.31 32.28 -0.38 28.16 -2.07 24.05 -0.38 28.16 1.31"/><polygon class="cls-3" points="28.16 0.57 30.47 -0.38 28.16 -1.33 25.86 -0.38 28.16 0.57"/><polygon class="cls-5" points="19.36 1.31 23.47 -0.38 19.36 -2.07 15.24 -0.38 19.36 1.31"/><polygon class="cls-3" points="19.36 0.57 21.66 -0.38 19.36 -1.33 17.05 -0.38 19.36 0.57"/><polygon class="cls-4" points="21.84 3.93 23.55 -0.17 19.45 1.54 17.73 5.64 21.84 3.93"/><polygon class="cls-3" points="21.31 3.4 22.28 1.1 19.98 2.06 19.01 4.37 21.31 3.4"/><polygon class="cls-4" points="20.91 3 21.36 1.93 20.29 2.38 19.84 3.45 20.91 3"/><polygon class="cls-4" points="25.68 3.93 29.78 5.64 28.07 1.54 23.96 -0.17 25.68 3.93"/><polygon class="cls-3" points="26.2 3.4 28.51 4.37 27.54 2.06 25.24 1.1 26.2 3.4"/><polygon class="cls-4" points="26.6 3 27.68 3.45 27.23 2.38 26.15 1.93 26.6 3"/><path class="cls-3" d="M34.21,33.7h67.37l1-.42c.18-.07.41-.19.65-.31l.92-.49a22.12,22.12,0,0,0,3.43-2.71c1-.83,3.26-4.8,1.42-6.76a3,3,0,0,0-3.9-.24,2.46,2.46,0,0,0-.29,3.56,2.2,2.2,0,0,0,1.71.72s-.45,4.05-8.88,4.88c0,0,3.87-.78,3-3.21s-3.38-2.17-5.74-.23a11.38,11.38,0,0,1-4.06,2c-3.15.95-7.68,1.54-14,2.19l-.12,0h0L75,33l-.11,0,.92-.49a23,23,0,0,0,3.43-2.7c1-.84,3.26-4.81,1.42-6.77a3,3,0,0,0-3.9-.24,2.46,2.46,0,0,0-.29,3.56,2.2,2.2,0,0,0,1.71.72s-.45,4.05-8.88,4.88c0,0,3.87-.78,3-3.21s-3.38-2.17-5.74-.23a11.38,11.38,0,0,1-4.06,2c-3.15.95-7.68,1.54-14,2.19L46.66,33l-.11,0,.92-.49a23,23,0,0,0,3.43-2.7c1-.84,3.26-4.81,1.42-6.77a3,3,0,0,0-3.9-.24,2.46,2.46,0,0,0-.29,3.56,2.2,2.2,0,0,0,1.71.72,3.35,3.35,0,0,1-.59,1.33c-.87,1.26-3,3-8.29,3.55,0,0,3.4-.69,3.15-2.77a1.47,1.47,0,0,0-.1-.44A2.28,2.28,0,0,0,41.73,27a4.19,4.19,0,0,0-1.68.38,7.6,7.6,0,0,0-1.78,1.12,11.38,11.38,0,0,1-4.06,2c-3.15.95-7.68,1.54-14,2.19L3.73,33.7H34.21Z"/><polygon class="cls-5" points="89.25 23.96 91.14 28.57 93.03 23.96 91.14 19.36 89.25 23.96"/><polygon class="cls-3" points="90.08 23.96 91.14 26.55 92.2 23.96 91.14 21.38 90.08 23.96"/><polygon class="cls-4" points="90.71 23.96 91.21 25.17 91.7 23.96 91.21 22.76 90.71 23.96"/><polygon class="cls-5" points="89.25 14.11 91.14 18.71 93.03 14.11 91.14 9.51 89.25 14.11"/><polygon class="cls-3" points="90.08 14.11 91.14 16.69 92.2 14.11 91.14 11.53 90.08 14.11"/><polygon class="cls-4" points="90.71 14.11 91.21 15.32 91.7 14.11 91.21 12.91 90.71 14.11"/><polygon class="cls-5" points="86.22 17.15 81.61 19.04 86.22 20.93 90.82 19.04 86.22 17.15"/><polygon class="cls-3" points="86.22 17.98 83.63 19.04 86.22 20.1 88.8 19.04 86.22 17.98"/><polygon class="cls-4" points="86.22 18.61 85.01 19.11 86.22 19.6 87.42 19.11 86.22 18.61"/><polygon class="cls-5" points="96.06 17.15 91.46 19.04 96.06 20.93 100.67 19.04 96.06 17.15"/><polygon class="cls-3" points="96.06 17.98 93.48 19.04 96.06 20.1 98.65 19.04 96.06 17.98"/><polygon class="cls-4" points="96.06 18.61 94.86 19.11 96.06 19.6 97.27 19.11 96.06 18.61"/><polygon class="cls-4" points="86.32 21.19 84.4 25.78 88.99 23.86 90.91 19.27 86.32 21.19"/><polygon class="cls-3" points="86.91 21.77 85.83 24.35 88.41 23.27 89.48 20.7 86.91 21.77"/><polygon class="cls-4" points="87.36 22.22 86.85 23.42 88.06 22.92 88.56 21.72 87.36 22.22"/><polygon class="cls-4" points="93.29 14.22 91.37 18.81 95.96 16.89 97.88 12.3 93.29 14.22"/><polygon class="cls-3" points="93.87 14.81 92.8 17.38 95.37 16.3 96.45 13.73 93.87 14.81"/><polygon class="cls-4" points="94.32 15.26 93.82 16.46 95.02 15.96 95.52 14.75 94.32 15.26"/><polygon class="cls-4" points="88.99 14.22 84.4 12.3 86.32 16.89 90.91 18.81 88.99 14.22"/><polygon class="cls-3" points="88.41 14.81 85.83 13.73 86.91 16.3 89.48 17.38 88.41 14.81"/><polygon class="cls-4" points="87.96 15.26 86.76 14.75 87.26 15.96 88.46 16.46 87.96 15.26"/><polygon class="cls-4" points="95.96 21.19 91.37 19.27 93.29 23.86 97.88 25.78 95.96 21.19"/><polygon class="cls-3" points="95.37 21.77 92.8 20.7 93.87 23.27 96.45 24.35 95.37 21.77"/><polygon class="cls-4" points="94.92 22.22 93.72 21.72 94.22 22.92 95.43 23.42 94.92 22.22"/><path class="cls-4" d="M77.06,18A17,17,0,0,1,66.13,23.1a19.65,19.65,0,0,1,5.32-5.16c2.38-1.46,6.23-2.54,7.1-2.43C78.64,16.32,77.59,17.44,77.06,18Z"/><path class="cls-4" d="M105.39,16.68a17,17,0,0,1-8.94-8.09,19.62,19.62,0,0,1,6.82,2.9c2.27,1.63,4.76,4.76,5,5.59C107.56,17.48,106.12,17,105.39,16.68Z"/><path class="cls-5" d="M108,12.19a12.11,12.11,0,0,1-6.35-5.74,14.06,14.06,0,0,1,4.85,2.05,13.14,13.14,0,0,1,3.55,4C109.57,12.76,108.55,12.38,108,12.19Z"/><path class="cls-3" d="M110.47,9.17A8.75,8.75,0,0,1,105.88,5a10.29,10.29,0,0,1,3.51,1.49A9.53,9.53,0,0,1,112,9.38C111.59,9.58,110.85,9.31,110.47,9.17Z"/><path class="cls-5" d="M62.31,26.3a10.74,10.74,0,0,1-6.87,3.2,12.33,12.33,0,0,1,3.35-3.25,11.89,11.89,0,0,1,4.46-1.53C63.31,25.24,62.65,25.94,62.31,26.3Z"/><path class="cls-3" d="M67,18.8a17,17,0,0,1-10.93,5.1,19.5,19.5,0,0,1,5.32-5.16c2.38-1.46,6.23-2.54,7.1-2.44C68.56,17.12,67.51,18.23,67,18.8Z"/><path class="cls-5" d="M26,28.54a11,11,0,0,1-7,3.27,12.67,12.67,0,0,1,3.41-3.32,12.15,12.15,0,0,1,4.56-1.56C27,27.46,26.32,28.17,26,28.54Z"/><path class="cls-4" d="M35.79,26a12.54,12.54,0,0,1-8.07,3.76,14.69,14.69,0,0,1,3.93-3.81,13.69,13.69,0,0,1,5.24-1.79C37,24.73,36.18,25.55,35.79,26Z"/></pattern></defs><g id="Layer_2" data-name="Layer 2"><g id="PATTERNS"><rect class="cls-6" width="666.67" height="500"/></g></g></svg>