<svg xmlns="http://www.w3.org/2000/svg" xmlns:xlink="http://www.w3.org/1999/xlink" viewBox="0 0 666.67 500"><defs><style>.cls-1,.cls-7{fill:none;}.cls-2{clip-path:url(#clip-path);}.cls-3{fill:#33190e;}.cls-4{fill:#6d3521;}.cls-5{fill:#7f5728;}.cls-6{fill:#72471c;}.cls-7{stroke:#4c2919;stroke-linecap:round;stroke-linejoin:round;stroke-width:0.62px;}.cls-8{fill:url(#New_Pattern_Swatch_5);}</style><clipPath id="clip-path"><rect class="cls-1" width="57.16" height="57.16"/></clipPath><pattern id="New_Pattern_Swatch_5" data-name="New Pattern Swatch 5" width="57.16" height="57.16" patternTransform="translate(-62.39 22.29)" patternUnits="userSpaceOnUse" viewBox="0 0 57.16 57.16"><rect class="cls-1" width="57.16" height="57.16"/><g class="cls-2"><polygon class="cls-3" points="0 0.68 -28.58 -27.9 0 -56.48 28.58 -27.9 0 0.68"/><polygon class="cls-3" points="0 0.68 -28.58 -27.9 0 -56.48 28.58 -27.9 0 0.68"/><polygon class="cls-4" points="28.58 29.26 0 0.68 28.58 -27.9 57.16 0.68 28.58 29.26"/><path class="cls-5" d="M0-56.48S-11.94-38.59-28.58-27.9C-28.58-27.9-19.27-42.19,0-56.48Z"/><path class="cls-5" d="M0,.68S-17.89-11.26-28.58-27.9C-28.58-27.9-14.29-18.6,0,.68Z"/><path class="cls-5" d="M0-56.48S11.94-38.59,28.58-27.9C28.58-27.9,19.27-42.19,0-56.48Z"/><path class="cls-5" d="M0,.68S17.89-11.26,28.58-27.9C28.58-27.9,14.29-18.6,0,.68Z"/><path class="cls-3" d="M7.49-.2S20.14-8.64,27.7-20.41C27.7-20.41,17.6-13.83,7.49-.2Z"/><path class="cls-3" d="M10.07,2.38S22.72-6.06,30.28-17.83C30.28-17.83,20.18-11.25,10.07,2.38Z"/><path class="cls-3" d="M25.52,17.82S38.17,9.38,45.72-2.39C45.72-2.39,35.62,4.19,25.52,17.82Z"/><path class="cls-3" d="M28.1,20.4S40.75,12,48.31.19C48.31.19,38.2,6.78,28.1,20.4Z"/><path class="cls-3" d="M28.1-20.41S36.54-7.76,48.31-.2C48.31-.2,41.73-10.31,28.1-20.41Z"/><path class="cls-3" d="M25.52-17.83S34-5.18,45.72,2.38C45.72,2.38,39.14-7.73,25.52-17.83Z"/><path class="cls-3" d="M10.07-2.39s8.44,12.65,20.21,20.21C30.28,17.82,23.7,7.72,10.07-2.39Z"/><path class="cls-3" d="M7.49.19S15.93,12.84,27.7,20.4C27.7,20.4,21.12,10.3,7.49.19Z"/><path class="cls-5" d="M12.56-39.37S6.22-37.15-1.82-28.63L0-26.81Z"/><path class="cls-6" d="M12.56-39.37S10.34-33,1.82-25L0-26.81Z"/><path class="cls-5" d="M-12.56-14.25S-6.22-16.47,1.82-25L0-26.81Z"/><path class="cls-6" d="M-12.56-14.25s2.22-6.34,10.74-14.38L0-26.81Z"/><path class="cls-5" d="M12.56-14.25S10.34-20.59,1.82-28.63L0-26.81Z"/><path class="cls-6" d="M12.56-14.25S6.22-16.47-1.82-25L0-26.81Z"/><path class="cls-5" d="M-12.56-39.37S-10.34-33-1.82-25L0-26.81Z"/><path class="cls-6" d="M-12.56-39.37s6.34,2.22,14.38,10.74L0-26.81Z"/><path class="cls-5" d="M0-52.17S-4-43.9-3.51-27.9H0Z"/><path class="cls-6" d="M0-52.17S4-43.9,3.51-27.9H0Z"/><path class="cls-5" d="M0-3.64S4-11.91,3.51-27.9H0Z"/><path class="cls-6" d="M0-3.64S-4-11.91-3.51-27.9H0Z"/><path class="cls-5" d="M24.27-27.9S16-31.88,0-31.41v3.51Z"/><path class="cls-6" d="M24.27-27.9S16-23.92,0-24.39V-27.9Z"/><path class="cls-5" d="M-24.27-27.9S-16-23.92,0-24.39V-27.9Z"/><path class="cls-6" d="M-24.27-27.9S-16-31.88,0-31.41v3.51Z"/><line class="cls-7" y1="-56.48" y2="0.68"/><line class="cls-7" x1="28.58" y1="-27.9" x2="-28.58" y2="-27.9"/><path class="cls-5" d="M27.7-14.76S25.26-9.68,25.55.12H27.7Z"/><path class="cls-3" d="M27.7-14.76S30.14-9.68,29.85.12H27.7Z"/><path class="cls-5" d="M27.7,15S30.14,9.93,29.85.12H27.7Z"/><path class="cls-3" d="M27.7,15S25.26,9.93,25.55.12H27.7Z"/><path class="cls-5" d="M42.58.12S37.51-2.32,27.7-2V.12Z"/><path class="cls-3" d="M42.58.12S37.51,2.56,27.7,2.27V.12Z"/><path class="cls-5" d="M12.82.12S17.89,2.56,27.7,2.27V.12Z"/><path class="cls-3" d="M12.82.12S17.89-2.32,27.7-2V.12Z"/><polygon class="cls-3" points="0 57.84 -28.58 29.26 0 0.68 28.58 29.26 0 57.84"/><polygon class="cls-3" points="0 57.84 -28.58 29.26 0 0.68 28.58 29.26 0 57.84"/><polygon class="cls-4" points="28.58 86.42 0 57.84 28.58 29.26 57.16 57.84 28.58 86.42"/><path class="cls-5" d="M0,.68S-11.94,18.57-28.58,29.26C-28.58,29.26-19.27,15,0,.68Z"/><path class="cls-5" d="M0,57.84S-17.89,45.9-28.58,29.26C-28.58,29.26-14.29,38.56,0,57.84Z"/><path class="cls-5" d="M0,.68S11.94,18.57,28.58,29.26C28.58,29.26,19.27,15,0,.68Z"/><path class="cls-5" d="M0,57.84S17.89,45.9,28.58,29.26C28.58,29.26,14.29,38.56,0,57.84Z"/><path class="cls-3" d="M7.49,57S20.14,48.52,27.7,36.75C27.7,36.75,17.6,43.33,7.49,57Z"/><path class="cls-3" d="M10.07,59.54S22.72,51.1,30.28,39.33C30.28,39.33,20.18,45.91,10.07,59.54Z"/><path class="cls-3" d="M25.52,75s12.65-8.44,20.2-20.21C45.72,54.77,35.62,61.35,25.52,75Z"/><path class="cls-3" d="M28.1,77.56s12.65-8.44,20.21-20.21C48.31,57.35,38.2,63.94,28.1,77.56Z"/><path class="cls-3" d="M28.1,36.75S36.54,49.4,48.31,57C48.31,57,41.73,46.85,28.1,36.75Z"/><path class="cls-3" d="M25.52,39.33S34,52,45.72,59.54C45.72,59.54,39.14,49.43,25.52,39.33Z"/><path class="cls-3" d="M10.07,54.77S18.51,67.42,30.28,75C30.28,75,23.7,64.88,10.07,54.77Z"/><path class="cls-3" d="M7.49,57.35S15.93,70,27.7,77.56C27.7,77.56,21.12,67.46,7.49,57.35Z"/><path class="cls-5" d="M12.56,17.79S6.22,20-1.82,28.53L0,30.35Z"/><path class="cls-6" d="M12.56,17.79S10.34,24.13,1.82,32.17L0,30.35Z"/><path class="cls-5" d="M-12.56,42.91s6.34-2.22,14.38-10.74L0,30.35Z"/><path class="cls-6" d="M-12.56,42.91s2.22-6.34,10.74-14.38L0,30.35Z"/><path class="cls-5" d="M12.56,42.91S10.34,36.57,1.82,28.53L0,30.35Z"/><path class="cls-6" d="M12.56,42.91S6.22,40.69-1.82,32.17L0,30.35Z"/><path class="cls-5" d="M-12.56,17.79s2.22,6.34,10.74,14.38L0,30.35Z"/><path class="cls-6" d="M-12.56,17.79S-6.22,20,1.82,28.53L0,30.35Z"/><path class="cls-5" d="M0,5s-4,8.27-3.51,24.27H0Z"/><path class="cls-6" d="M0,5s4,8.27,3.51,24.27H0Z"/><path class="cls-5" d="M0,53.52s4-8.27,3.51-24.26H0Z"/><path class="cls-6" d="M0,53.52s-4-8.27-3.51-24.26H0Z"/><path class="cls-5" d="M24.27,29.26S16,25.28,0,25.75v3.51Z"/><path class="cls-6" d="M24.27,29.26S16,33.24,0,32.77V29.26Z"/><path class="cls-5" d="M-24.27,29.26S-16,33.24,0,32.77V29.26Z"/><path class="cls-6" d="M-24.27,29.26S-16,25.28,0,25.75v3.51Z"/><line class="cls-7" y1="0.68" y2="57.84"/><line class="cls-7" x1="28.58" y1="29.26" x2="-28.58" y2="29.26"/><path class="cls-5" d="M27.7,42.4s-2.44,5.08-2.15,14.88H27.7Z"/><path class="cls-3" d="M27.7,42.4s2.44,5.08,2.15,14.88H27.7Z"/><path class="cls-5" d="M27.7,72.16s2.44-5.07,2.15-14.88H27.7Z"/><path class="cls-3" d="M27.7,72.16s-2.44-5.07-2.15-14.88H27.7Z"/><path class="cls-5" d="M42.58,57.28s-5.07-2.44-14.88-2.15v2.15Z"/><path class="cls-3" d="M42.58,57.28s-5.07,2.44-14.88,2.15V57.28Z"/><path class="cls-5" d="M12.82,57.28s5.07,2.44,14.88,2.15V57.28Z"/><path class="cls-3" d="M12.82,57.28s5.07-2.44,14.88-2.15v2.15Z"/><polygon class="cls-3" points="57.16 57.84 28.58 29.26 57.16 0.68 85.74 29.26 57.16 57.84"/><polygon class="cls-3" points="57.16 57.84 28.58 29.26 57.16 0.68 85.74 29.26 57.16 57.84"/><polygon class="cls-4" points="85.74 86.42 57.16 57.84 85.74 29.26 114.32 57.84 85.74 86.42"/><path class="cls-5" d="M57.16.68S45.22,18.57,28.58,29.26C28.58,29.26,37.88,15,57.16.68Z"/><path class="cls-5" d="M57.16,57.84S39.27,45.9,28.58,29.26C28.58,29.26,42.87,38.56,57.16,57.84Z"/><path class="cls-5" d="M57.16.68S69.1,18.57,85.74,29.26C85.74,29.26,76.43,15,57.16.68Z"/><path class="cls-5" d="M57.16,57.84S75.05,45.9,85.74,29.26C85.74,29.26,71.45,38.56,57.16,57.84Z"/><path class="cls-3" d="M64.65,57S77.3,48.52,84.86,36.75C84.86,36.75,74.75,43.33,64.65,57Z"/><path class="cls-3" d="M67.23,59.54S79.88,51.1,87.44,39.33C87.44,39.33,77.34,45.91,67.23,59.54Z"/><path class="cls-3" d="M82.67,75s12.65-8.44,20.21-20.21C102.88,54.77,92.78,61.35,82.67,75Z"/><path class="cls-3" d="M85.26,77.56s12.65-8.44,20.2-20.21C105.46,57.35,95.36,63.94,85.26,77.56Z"/><path class="cls-3" d="M85.26,36.75S93.7,49.4,105.46,57C105.46,57,98.88,46.85,85.26,36.75Z"/><path class="cls-3" d="M82.67,39.33S91.11,52,102.88,59.54C102.88,59.54,96.3,49.43,82.67,39.33Z"/><path class="cls-3" d="M67.23,54.77S75.67,67.42,87.44,75C87.44,75,80.86,64.88,67.23,54.77Z"/><path class="cls-3" d="M64.65,57.35S73.09,70,84.86,77.56C84.86,77.56,78.28,67.46,64.65,57.35Z"/><path class="cls-5" d="M69.72,17.79S63.38,20,55.34,28.53l1.82,1.82Z"/><path class="cls-6" d="M69.72,17.79S67.5,24.13,59,32.17l-1.82-1.82Z"/><path class="cls-5" d="M44.59,42.91S50.94,40.69,59,32.17l-1.82-1.82Z"/><path class="cls-6" d="M44.59,42.91s2.23-6.34,10.75-14.38l1.82,1.82Z"/><path class="cls-5" d="M69.72,42.91S67.5,36.57,59,28.53l-1.82,1.82Z"/><path class="cls-6" d="M69.72,42.91s-6.34-2.22-14.38-10.74l1.82-1.82Z"/><path class="cls-5" d="M44.59,17.79s2.23,6.34,10.75,14.38l1.82-1.82Z"/><path class="cls-6" d="M44.59,17.79S50.94,20,59,28.53l-1.82,1.82Z"/><path class="cls-5" d="M57.16,5s-4,8.27-3.51,24.27h3.51Z"/><path class="cls-6" d="M57.16,5s4,8.27,3.51,24.27H57.16Z"/><path class="cls-5" d="M57.16,53.52s4-8.27,3.51-24.26H57.16Z"/><path class="cls-6" d="M57.16,53.52s-4-8.27-3.51-24.26h3.51Z"/><path class="cls-5" d="M81.42,29.26s-8.27-4-24.26-3.51v3.51Z"/><path class="cls-6" d="M81.42,29.26s-8.27,4-24.26,3.51V29.26Z"/><path class="cls-5" d="M32.89,29.26s8.27,4,24.27,3.51V29.26Z"/><path class="cls-6" d="M32.89,29.26s8.27-4,24.27-3.51v3.51Z"/><line class="cls-7" x1="57.16" y1="0.68" x2="57.16" y2="57.84"/><line class="cls-7" x1="85.74" y1="29.26" x2="28.58" y2="29.26"/><path class="cls-5" d="M84.86,42.4s-2.44,5.08-2.16,14.88h2.16Z"/><path class="cls-3" d="M84.86,42.4S87.3,47.48,87,57.28H84.86Z"/><path class="cls-5" d="M84.86,72.16S87.3,67.09,87,57.28H84.86Z"/><path class="cls-3" d="M84.86,72.16s-2.44-5.07-2.16-14.88h2.16Z"/><path class="cls-5" d="M99.73,57.28s-5.07-2.44-14.87-2.15v2.15Z"/><path class="cls-3" d="M99.73,57.28s-5.07,2.44-14.87,2.15V57.28Z"/><path class="cls-5" d="M70,57.28s5.07,2.44,14.88,2.15V57.28Z"/><path class="cls-3" d="M70,57.28s5.07-2.44,14.88-2.15v2.15Z"/></g></pattern></defs><g id="Layer_2" data-name="Layer 2"><g id="PATTERNS"><rect class="cls-8" width="666.67" height="500"/></g></g></svg>