<svg xmlns="http://www.w3.org/2000/svg" xmlns:xlink="http://www.w3.org/1999/xlink" viewBox="0 0 666.67 500"><defs><style>.cls-1,.cls-7{fill:none;}.cls-2{clip-path:url(#clip-path);}.cls-3{fill:#7f3633;}.cls-4{fill:#59202a;}.cls-5{fill:#421620;}.cls-6{fill:#b55454;}.cls-7{stroke:#b55454;stroke-miterlimit:10;stroke-width:0.51px;}.cls-8{fill:url(#New_Pattern_Swatch_8);}</style><clipPath id="clip-path"><rect class="cls-1" width="102.38" height="102.38"/></clipPath><pattern id="New_Pattern_Swatch_8" data-name="New Pattern Swatch 8" width="102.38" height="102.38" patternTransform="translate(137.48 -64.94)" patternUnits="userSpaceOnUse" viewBox="0 0 102.38 102.38"><rect class="cls-1" width="102.38" height="102.38"/><g class="cls-2"><polygon class="cls-3" points="0 102.97 -51.48 51.48 0 0 51.48 51.48 0 102.97"/><polygon class="cls-4" points="0 79.34 -28.27 51.08 0 22.81 28.27 51.08 0 79.34"/><circle class="cls-5" cy="13.39" r="9.42" transform="translate(-8.96 3.44) rotate(-41.98)"/><path class="cls-4" d="M5.49,13.39A5.49,5.49,0,0,1,0,18.89a5.49,5.49,0,0,1-5.49-5.5A5.49,5.49,0,0,1,0,7.9,5.49,5.49,0,0,1,5.49,13.39Z"/><polygon class="cls-6" points="0 18.89 -5.49 13.39 0 7.9 5.49 13.39 0 18.89"/><circle class="cls-5" cy="88.65" r="9.42" transform="translate(-62.68 25.96) rotate(-45)"/><path class="cls-4" d="M5.49,88.65A5.49,5.49,0,0,1,0,94.14a5.49,5.49,0,0,1,0-11A5.49,5.49,0,0,1,5.49,88.65Z"/><polygon class="cls-6" points="0 94.14 -5.49 88.65 0 83.16 5.49 88.65 0 94.14"/><circle class="cls-5" cx="37.63" cy="51.02" r="9.42"/><path class="cls-4" d="M37.63,56.51A5.49,5.49,0,1,1,43.12,51,5.48,5.48,0,0,1,37.63,56.51Z"/><polygon class="cls-6" points="32.13 51.02 37.63 45.53 43.12 51.02 37.63 56.52 32.13 51.02"/><circle class="cls-5" cx="-37.63" cy="51.02" r="9.42" transform="matrix(0.97, -0.25, 0.25, 0.97, -14.06, -7.83)"/><path class="cls-4" d="M-37.63,56.51A5.49,5.49,0,0,1-43.12,51a5.49,5.49,0,0,1,5.49-5.49A5.49,5.49,0,0,1-32.14,51,5.48,5.48,0,0,1-37.63,56.51Z"/><polygon class="cls-6" points="-43.12 51.02 -37.63 45.53 -32.13 51.02 -37.63 56.52 -43.12 51.02"/><path class="cls-5" d="M-24.87,42.77A5.74,5.74,0,0,1-30.62,37a5.74,5.74,0,0,1,5.75-5.75A5.74,5.74,0,0,1-19.13,37,5.74,5.74,0,0,1-24.87,42.77Z"/><path class="cls-4" d="M-24.87,40.38A3.35,3.35,0,0,1-28.22,37a3.35,3.35,0,0,1,3.35-3.35A3.35,3.35,0,0,1-21.52,37,3.35,3.35,0,0,1-24.87,40.38Z"/><polygon class="cls-3" points="-28.22 37.03 -24.87 33.68 -21.52 37.03 -24.87 40.38 -28.22 37.03"/><path class="cls-5" d="M-14.54,32.44a5.74,5.74,0,0,1-5.74-5.75A5.74,5.74,0,0,1-14.54,21,5.74,5.74,0,0,1-8.8,26.69,5.74,5.74,0,0,1-14.54,32.44Z"/><circle class="cls-4" cx="-14.54" cy="26.69" r="3.35"/><polygon class="cls-3" points="-17.89 26.69 -14.54 23.34 -11.19 26.69 -14.54 30.05 -17.89 26.69"/><path class="cls-5" d="M14.78,82.34a5.75,5.75,0,1,1,5.74-5.75A5.76,5.76,0,0,1,14.78,82.34Z"/><path class="cls-4" d="M14.78,79.94a3.35,3.35,0,1,1,3.35-3.35A3.35,3.35,0,0,1,14.78,79.94Z"/><polygon class="cls-3" points="11.43 76.59 14.78 73.24 18.13 76.59 14.78 79.94 11.43 76.59"/><path class="cls-5" d="M25.11,72a5.74,5.74,0,1,1,5.74-5.74A5.74,5.74,0,0,1,25.11,72Z"/><circle class="cls-4" cx="25.11" cy="66.26" r="3.35"/><polygon class="cls-3" points="21.76 66.26 25.11 62.91 28.46 66.26 25.11 69.61 21.76 66.26"/><circle class="cls-5" cx="14.74" cy="26.65" r="5.74"/><circle class="cls-4" cx="14.74" cy="26.65" r="3.35"/><polygon class="cls-3" points="14.73 23.3 18.09 26.65 14.73 30 11.38 26.65 14.73 23.3"/><circle class="cls-5" cx="25.07" cy="36.98" r="5.74"/><circle class="cls-4" cx="25.07" cy="36.98" r="3.35"/><polygon class="cls-3" points="25.07 33.63 28.42 36.98 25.07 40.33 21.72 36.98 25.07 33.63"/><circle class="cls-5" cx="-24.83" cy="66.3" r="5.74"/><circle class="cls-4" cx="-24.83" cy="66.3" r="3.35"/><polygon class="cls-3" points="-24.83 62.95 -21.48 66.3 -24.83 69.65 -28.18 66.3 -24.83 62.95"/><circle class="cls-5" cx="-14.5" cy="76.63" r="5.74"/><circle class="cls-4" cx="-14.5" cy="76.63" r="3.35"/><polygon class="cls-3" points="-14.5 73.28 -11.15 76.64 -14.5 79.98 -17.85 76.64 -14.5 73.28"/><polyline class="cls-7" points="-9.4 39.08 -3.12 32.8 -1.63 34.28 -9.02 41.67 -11.35 39.34 -0.04 28.02 5.62 33.68 2.56 36.74 0.01 34.18 1.48 32.7 3.2 34.42 4.24 33.38 0.13 29.27 -2.39 31.79 -0.99 33.19 0.49 31.71 -0.37 30.85 -1.18 31.67"/><polyline class="cls-7" points="9.33 39.6 3.05 45.88 1.56 44.39 8.94 37.01 11.28 39.34 -0.04 50.65 -5.69 45 -2.64 41.94 -0.08 44.5 -1.56 45.97 -3.27 44.26 -4.31 45.3 -0.2 49.4 2.31 46.89 0.91 45.49 -0.56 46.97 0.29 47.83 1.11 47.01"/><polyline class="cls-7" points="-8.12 42.57 -2.49 36.95 -0.82 38.62 -5.6 43.4 -6.73 42.27 -3.03 38.57 -2.54 39.07 -5.06 41.59"/><polyline class="cls-7" points="12.17 60.65 18.45 54.37 16.96 52.88 9.58 60.27 11.91 62.6 23.22 51.28 17.57 45.63 14.51 48.68 17.07 51.24 18.54 49.77 16.83 48.05 17.87 47.01 21.97 51.12 19.46 53.63 18.06 52.23 19.54 50.76 20.39 51.62 19.58 52.43"/><polyline class="cls-7" points="11.64 41.92 5.36 48.2 6.85 49.69 14.24 42.3 11.91 39.97 0.59 51.28 6.25 56.94 9.31 53.89 6.75 51.33 5.27 52.8 6.99 54.52 5.95 55.56 1.84 51.45 4.36 48.94 5.76 50.34 4.28 51.81 3.42 50.95 4.24 50.14"/><polyline class="cls-7" points="8.67 59.36 14.3 53.74 12.63 52.07 7.85 56.84 8.98 57.97 12.68 54.28 12.18 53.78 9.65 56.31"/><polyline class="cls-7" points="9.44 63.38 3.16 69.67 1.67 68.18 9.05 60.79 11.39 63.12 0.07 74.44 -5.58 68.78 -2.53 65.72 0.03 68.28 -1.45 69.76 -3.16 68.04 -4.2 69.08 -0.09 73.19 2.42 70.67 1.02 69.27 -0.46 70.75 0.4 71.61 1.22 70.79"/><polyline class="cls-7" points="-9.29 62.86 -3.01 56.58 -1.52 58.07 -8.91 65.45 -11.24 63.12 0.07 51.81 5.73 57.46 2.67 60.52 0.12 57.96 1.59 56.49 3.31 58.2 4.34 57.16 0.24 53.06 -2.28 55.57 -0.88 56.97 0.6 55.49 -0.26 54.64 -1.07 55.45"/><polyline class="cls-7" points="8.15 59.89 2.53 65.51 0.86 63.84 5.63 59.07 6.76 60.19 3.07 63.89 2.57 63.39 5.1 60.87"/><polyline class="cls-7" points="-12.17 41.84 -18.45 48.13 -16.96 49.62 -9.58 42.23 -11.91 39.9 -23.22 51.21 -17.57 56.87 -14.51 53.81 -17.07 51.25 -18.54 52.73 -16.83 54.44 -17.87 55.48 -21.97 51.38 -19.46 48.86 -18.06 50.26 -19.54 51.74 -20.39 50.88 -19.58 50.07"/><polyline class="cls-7" points="-11.64 60.58 -5.36 54.29 -6.85 52.8 -14.24 60.19 -11.91 62.52 -0.59 51.21 -6.25 45.55 -9.31 48.61 -6.75 51.17 -5.27 49.69 -6.99 47.98 -5.95 46.94 -1.84 51.04 -4.36 53.56 -5.76 52.16 -4.28 50.68 -3.42 51.54 -4.24 52.35"/><polyline class="cls-7" points="-8.67 43.13 -14.3 48.75 -12.63 50.42 -7.85 45.65 -8.98 44.52 -12.68 48.22 -12.18 48.71 -9.65 46.19"/><polygon class="cls-3" points="102.72 102.97 51.24 51.48 102.72 0 154.21 51.48 102.72 102.97"/><polygon class="cls-4" points="102.72 79.34 74.45 51.08 102.72 22.81 130.99 51.08 102.72 79.34"/><circle class="cls-5" cx="102.72" cy="13.39" r="9.42" transform="translate(-0.36 23.63) rotate(-13.1)"/><path class="cls-4" d="M108.21,13.39a5.49,5.49,0,1,1-5.49-5.49A5.49,5.49,0,0,1,108.21,13.39Z"/><polygon class="cls-6" points="102.72 18.89 97.23 13.39 102.72 7.9 108.22 13.39 102.72 18.89"/><circle class="cls-5" cx="102.72" cy="88.65" r="9.42" transform="translate(-17.68 26.09) rotate(-13.34)"/><path class="cls-4" d="M108.21,88.65a5.49,5.49,0,1,1-5.49-5.49A5.49,5.49,0,0,1,108.21,88.65Z"/><polygon class="cls-6" points="102.72 94.14 97.23 88.65 102.72 83.16 108.22 88.65 102.72 94.14"/><circle class="cls-5" cx="140.35" cy="51.02" r="9.42" transform="translate(9.52 123.03) rotate(-48.8)"/><path class="cls-4" d="M140.35,56.51A5.49,5.49,0,1,1,145.84,51,5.49,5.49,0,0,1,140.35,56.51Z"/><polygon class="cls-6" points="134.86 51.02 140.35 45.53 145.84 51.02 140.35 56.52 134.86 51.02"/><circle class="cls-5" cx="65.09" cy="51.02" r="9.42" transform="translate(-16.89 61.95) rotate(-45.68)"/><path class="cls-4" d="M65.09,56.51A5.49,5.49,0,1,1,70.59,51,5.49,5.49,0,0,1,65.09,56.51Z"/><polygon class="cls-6" points="59.6 51.02 65.09 45.53 70.59 51.02 65.09 56.52 59.6 51.02"/><path class="cls-5" d="M77.85,42.77A5.75,5.75,0,1,1,83.59,37,5.74,5.74,0,0,1,77.85,42.77Z"/><path class="cls-4" d="M77.85,40.38A3.35,3.35,0,1,1,81.2,37,3.35,3.35,0,0,1,77.85,40.38Z"/><polygon class="cls-3" points="74.5 37.03 77.85 33.68 81.2 37.03 77.85 40.38 74.5 37.03"/><path class="cls-5" d="M88.18,32.44a5.75,5.75,0,1,1,5.74-5.75A5.74,5.74,0,0,1,88.18,32.44Z"/><circle class="cls-4" cx="88.18" cy="26.69" r="3.35"/><polygon class="cls-3" points="84.83 26.69 88.18 23.34 91.53 26.69 88.18 30.05 84.83 26.69"/><path class="cls-5" d="M117.5,82.34a5.75,5.75,0,1,1,5.74-5.75A5.75,5.75,0,0,1,117.5,82.34Z"/><circle class="cls-4" cx="117.5" cy="76.59" r="3.35"/><polygon class="cls-3" points="114.15 76.59 117.5 73.24 120.85 76.59 117.5 79.94 114.15 76.59"/><path class="cls-5" d="M127.83,72a5.74,5.74,0,1,1,5.74-5.74A5.74,5.74,0,0,1,127.83,72Z"/><circle class="cls-4" cx="127.83" cy="66.26" r="3.35"/><polygon class="cls-3" points="124.48 66.26 127.83 62.91 131.18 66.26 127.83 69.61 124.48 66.26"/><circle class="cls-5" cx="117.46" cy="26.65" r="5.74"/><circle class="cls-4" cx="117.46" cy="26.65" r="3.35"/><polygon class="cls-3" points="117.46 23.3 120.81 26.65 117.46 30 114.11 26.65 117.46 23.3"/><path class="cls-5" d="M122.05,37a5.74,5.74,0,1,1,5.74,5.75A5.74,5.74,0,0,1,122.05,37Z"/><circle class="cls-4" cx="127.79" cy="36.98" r="3.35"/><polygon class="cls-3" points="127.79 33.63 131.14 36.98 127.79 40.33 124.44 36.98 127.79 33.63"/><circle class="cls-5" cx="77.89" cy="66.3" r="5.74"/><circle class="cls-4" cx="77.89" cy="66.3" r="3.35"/><polygon class="cls-3" points="77.89 62.95 81.24 66.3 77.89 69.65 74.54 66.3 77.89 62.95"/><circle class="cls-5" cx="88.22" cy="76.63" r="5.74"/><circle class="cls-4" cx="88.22" cy="76.63" r="3.35"/><polygon class="cls-3" points="88.22 73.28 91.57 76.64 88.22 79.98 84.87 76.64 88.22 73.28"/><polyline class="cls-7" points="93.32 39.08 99.6 32.8 101.09 34.28 93.7 41.67 91.37 39.34 102.68 28.02 108.34 33.68 105.29 36.74 102.73 34.18 104.2 32.7 105.92 34.42 106.96 33.38 102.85 29.27 100.34 31.79 101.73 33.19 103.21 31.71 102.35 30.85 101.54 31.67"/><polyline class="cls-7" points="112.05 39.6 105.77 45.88 104.28 44.39 111.67 37.01 114 39.34 102.68 50.65 97.03 45 100.08 41.94 102.64 44.5 101.17 45.97 99.45 44.26 98.41 45.3 102.52 49.4 105.03 46.89 103.63 45.49 102.16 46.97 103.02 47.83 103.83 47.01"/><polyline class="cls-7" points="94.61 42.57 100.23 36.95 101.9 38.62 97.12 43.4 96 42.27 99.69 38.57 100.19 39.07 97.66 41.59"/><polyline class="cls-7" points="114.89 60.65 121.17 54.37 119.69 52.88 112.3 60.27 114.63 62.6 125.94 51.28 120.29 45.63 117.23 48.68 119.79 51.24 121.27 49.77 119.55 48.05 120.59 47.01 124.69 51.12 122.18 53.63 120.78 52.23 122.26 50.76 123.12 51.62 122.3 52.43"/><polyline class="cls-7" points="114.37 41.92 108.09 48.2 109.58 49.69 116.96 42.3 114.63 39.97 103.32 51.28 108.97 56.94 112.03 53.89 109.47 51.33 108 52.8 109.71 54.52 108.67 55.56 104.56 51.45 107.08 48.94 108.48 50.34 107 51.81 106.14 50.95 106.96 50.14"/><polyline class="cls-7" points="111.4 59.36 117.02 53.74 115.35 52.07 110.57 56.84 111.7 57.97 115.4 54.28 114.9 53.78 112.37 56.31"/><polyline class="cls-7" points="112.16 63.38 105.88 69.67 104.39 68.18 111.78 60.79 114.11 63.12 102.79 74.44 97.14 68.78 100.19 65.72 102.75 68.28 101.27 69.76 99.56 68.04 98.52 69.08 102.63 73.19 105.14 70.67 103.74 69.27 102.27 70.75 103.13 71.61 103.94 70.79"/><polyline class="cls-7" points="93.43 62.86 99.71 56.58 101.2 58.07 93.81 65.45 91.48 63.12 102.79 51.81 108.45 57.46 105.39 60.52 102.84 57.96 104.31 56.49 106.03 58.2 107.07 57.16 102.96 53.06 100.44 55.57 101.84 56.97 103.32 55.49 102.46 54.64 101.65 55.45"/><polyline class="cls-7" points="110.87 59.89 105.25 65.51 103.58 63.84 108.35 59.07 109.48 60.19 105.79 63.89 105.29 63.39 107.82 60.87"/><polyline class="cls-7" points="90.55 41.84 84.27 48.13 85.76 49.62 93.15 42.23 90.81 39.9 79.5 51.21 85.16 56.87 88.21 53.81 85.66 51.25 84.18 52.73 85.89 54.44 84.86 55.48 80.75 51.38 83.26 48.86 84.66 50.26 83.19 51.74 82.33 50.88 83.14 50.07"/><polyline class="cls-7" points="91.08 60.58 97.36 54.29 95.87 52.8 88.48 60.19 90.81 62.52 102.13 51.21 96.47 45.55 93.42 48.61 95.97 51.17 97.45 49.69 95.73 47.98 96.77 46.94 100.88 51.04 98.36 53.56 96.97 52.16 98.44 50.68 99.3 51.54 98.49 52.35"/><polyline class="cls-7" points="94.05 43.13 88.43 48.75 90.1 50.42 94.87 45.65 93.74 44.52 90.05 48.22 90.54 48.71 93.07 46.19"/><polygon class="cls-4" points="51.36 154.33 -0.12 102.84 51.36 51.36 102.84 102.84 51.36 154.33"/><polygon class="cls-3" points="51.36 130.71 23.09 102.44 51.36 74.17 79.63 102.44 51.36 130.71"/><circle class="cls-5" cx="51.36" cy="64.76" r="9.42" transform="translate(-13.93 14.07) rotate(-13.76)"/><path class="cls-4" d="M56.85,64.76a5.49,5.49,0,1,1-5.49-5.5A5.49,5.49,0,0,1,56.85,64.76Z"/><polygon class="cls-6" points="51.36 70.25 45.87 64.75 51.36 59.26 56.85 64.75 51.36 70.25"/><circle class="cls-5" cx="51.36" cy="140.01" r="9.42" transform="translate(-73.45 58.39) rotate(-36.67)"/><path class="cls-4" d="M56.85,140a5.49,5.49,0,1,1-5.49-5.49A5.49,5.49,0,0,1,56.85,140Z"/><polygon class="cls-6" points="51.36 145.5 45.87 140.01 51.36 134.52 56.85 140.01 51.36 145.5"/><circle class="cls-5" cx="88.99" cy="102.38" r="9.42" transform="translate(-46.57 97.39) rotate(-46.89)"/><path class="cls-4" d="M89,107.88a5.5,5.5,0,1,1,5.49-5.5A5.49,5.49,0,0,1,89,107.88Z"/><polygon class="cls-6" points="83.5 102.38 88.99 96.89 94.48 102.38 88.99 107.88 83.5 102.38"/><circle class="cls-5" cx="13.73" cy="102.38" r="9.42"/><path class="cls-4" d="M13.73,107.88a5.5,5.5,0,1,1,5.5-5.5A5.49,5.49,0,0,1,13.73,107.88Z"/><polygon class="cls-6" points="8.24 102.38 13.73 96.89 19.23 102.38 13.73 107.88 8.24 102.38"/><circle class="cls-5" cx="26.49" cy="88.39" r="5.74"/><circle class="cls-4" cx="26.49" cy="88.39" r="3.35"/><polygon class="cls-3" points="23.14 88.39 26.49 85.04 29.84 88.39 26.49 91.74 23.14 88.39"/><path class="cls-5" d="M36.82,83.8a5.75,5.75,0,1,1,5.74-5.74A5.74,5.74,0,0,1,36.82,83.8Z"/><circle class="cls-4" cx="36.82" cy="78.06" r="3.35"/><polygon class="cls-3" points="33.47 78.06 36.82 74.7 40.17 78.06 36.82 81.41 33.47 78.06"/><circle class="cls-5" cx="66.14" cy="127.95" r="5.74"/><circle class="cls-4" cx="66.14" cy="127.95" r="3.35"/><polygon class="cls-3" points="62.79 127.95 66.14 124.6 69.49 127.95 66.14 131.3 62.79 127.95"/><circle class="cls-5" cx="76.47" cy="117.62" r="5.74"/><circle class="cls-4" cx="76.47" cy="117.62" r="3.35"/><polygon class="cls-3" points="73.12 117.62 76.47 114.27 79.82 117.62 76.47 120.97 73.12 117.62"/><circle class="cls-5" cx="66.1" cy="78.01" r="5.74"/><circle class="cls-4" cx="66.1" cy="78.01" r="3.35"/><polygon class="cls-3" points="66.1 74.66 69.45 78.01 66.1 81.36 62.75 78.01 66.1 74.66"/><circle class="cls-5" cx="76.43" cy="88.35" r="5.74"/><circle class="cls-4" cx="76.43" cy="88.35" r="3.35"/><polygon class="cls-3" points="76.43 85 79.78 88.34 76.43 91.69 73.08 88.34 76.43 85"/><circle class="cls-5" cx="26.53" cy="117.66" r="5.74"/><circle class="cls-4" cx="26.53" cy="117.66" r="3.35"/><polygon class="cls-3" points="26.53 114.31 29.88 117.66 26.53 121.01 23.18 117.66 26.53 114.31"/><circle class="cls-5" cx="36.86" cy="128" r="5.74"/><circle class="cls-4" cx="36.86" cy="128" r="3.35"/><polygon class="cls-3" points="36.86 124.64 40.21 128 36.86 131.35 33.51 128 36.86 124.64"/><polygon class="cls-5" points="42.34 93.39 39.65 90.7 51.32 79.03 57.34 85.04 53.92 88.46 51.01 85.54 52.84 83.7 54.56 85.42 55.23 84.74 51.49 81 49.34 83.15 50.37 84.19 51.49 83.07 50.99 82.58 50.36 83.21 50 82.85 50.99 81.85 52.21 83.07 50.37 84.91 48.61 83.15 51.49 80.27 55.96 84.74 54.56 86.14 52.84 84.43 51.73 85.54 53.92 87.74 56.62 85.04 51.32 79.75 40.37 90.7 42.34 92.67 49.37 85.64 48.24 84.52 42.14 90.62 41.78 90.26 48.24 83.79 50.09 85.64 42.34 93.39"/><polygon class="cls-5" points="51.32 102.38 45.3 96.36 48.72 92.94 51.64 95.86 49.8 97.7 48.09 95.98 47.41 96.66 51.16 100.4 53.31 98.25 52.27 97.21 51.16 98.33 51.66 98.82 52.29 98.19 52.65 98.55 51.66 99.55 50.44 98.33 52.27 96.49 54.03 98.25 51.16 101.13 46.69 96.66 48.09 95.26 49.8 96.97 50.92 95.86 48.72 93.66 46.03 96.36 51.32 101.65 62.28 90.7 60.3 88.73 53.28 95.75 54.41 96.88 60.51 90.78 60.87 91.14 54.41 97.61 52.56 95.75 60.3 88.01 63 90.7 51.32 102.38"/><polygon class="cls-5" points="45.76 95.12 44.27 93.63 48.33 89.57 49.19 90.43 46.48 93.14 46.12 92.78 48.47 90.43 48.33 90.29 45 93.63 45.76 94.39 50.18 89.98 48.87 88.67 43.42 94.11 43.06 93.75 48.87 87.95 50.9 89.98 45.76 95.12"/><polygon class="cls-5" points="63.27 114.32 60.58 111.63 68.32 103.88 70.17 105.73 63.71 112.19 63.35 111.83 69.45 105.73 68.32 104.6 61.3 111.63 63.27 113.6 74.22 102.65 68.93 97.35 66.23 100.05 68.43 102.24 69.54 101.13 67.83 99.41 69.23 98.01 73.7 102.48 70.82 105.36 69.06 103.59 70.9 101.76 72.12 102.98 71.12 103.97 70.76 103.61 71.39 102.98 70.9 102.48 69.78 103.59 70.82 104.63 72.97 102.48 69.23 98.73 68.55 99.41 70.27 101.13 68.43 102.96 65.51 100.05 68.93 96.63 74.94 102.65 63.27 114.32"/><polygon class="cls-5" points="57.61 108.66 51.59 102.65 63.27 90.97 65.96 93.66 58.21 101.41 56.36 99.56 62.83 93.1 63.19 93.46 57.09 99.56 58.21 100.69 65.24 93.66 63.27 91.69 52.32 102.65 57.61 107.94 60.31 105.25 58.11 103.05 57 104.17 58.71 105.88 57.31 107.28 52.84 102.81 55.72 99.94 57.48 101.7 55.64 103.53 54.42 102.31 55.42 101.32 55.78 101.68 55.15 102.31 55.64 102.81 56.76 101.7 55.72 100.66 53.56 102.81 57.31 106.56 57.99 105.88 56.27 104.17 58.11 102.33 61.03 105.25 57.61 108.66"/><polygon class="cls-5" points="60.22 110.91 59.85 110.55 65.3 105.1 63.99 103.79 59.57 108.21 60.34 108.97 63.67 105.64 63.54 105.5 61.19 107.85 60.83 107.49 63.54 104.78 64.4 105.64 60.34 109.69 58.85 108.21 63.99 103.07 66.02 105.1 60.22 110.91"/><polygon class="cls-5" points="51.43 126.16 45.41 120.14 48.83 116.72 51.75 119.64 49.91 121.48 48.2 119.76 47.52 120.44 51.27 124.19 53.42 122.03 52.38 121 51.27 122.11 51.76 122.61 52.4 121.97 52.76 122.34 51.76 123.33 50.55 122.11 52.38 120.27 54.14 122.03 51.27 124.91 46.8 120.44 48.2 119.04 49.91 120.76 51.03 119.64 48.83 117.44 46.14 120.14 51.43 125.44 62.39 114.48 60.41 112.51 53.39 119.54 54.52 120.67 60.62 114.56 60.98 114.93 54.52 121.39 52.67 119.54 60.41 111.79 63.11 114.48 51.43 126.16"/><polygon class="cls-5" points="42.45 117.17 39.76 114.48 51.43 102.81 57.45 108.83 54.03 112.24 51.12 109.32 52.95 107.49 54.67 109.2 55.34 108.52 51.6 104.78 49.45 106.93 50.48 107.97 51.6 106.86 51.1 106.36 50.47 106.99 50.11 106.63 51.1 105.64 52.32 106.86 50.48 108.69 48.72 106.93 51.6 104.06 56.07 108.52 54.67 109.92 52.95 108.21 51.84 109.32 54.03 111.52 56.73 108.83 51.43 103.53 40.48 114.48 42.45 116.45 49.48 109.43 48.35 108.3 42.25 114.4 41.89 114.04 48.35 107.58 50.2 109.43 42.45 117.17"/><polygon class="cls-5" points="53.89 117.23 51.86 115.2 56.99 110.07 58.48 111.56 54.43 115.61 53.57 114.75 56.28 112.05 56.64 112.41 54.29 114.75 54.43 114.89 57.76 111.56 56.99 110.79 52.58 115.2 53.89 116.51 59.33 111.07 59.69 111.43 53.89 117.23"/><polygon class="cls-5" points="33.8 108.59 27.78 102.57 39.45 90.89 42.15 93.59 34.4 101.34 32.55 99.49 39.01 93.03 39.37 93.39 33.27 99.49 34.4 100.61 41.42 93.59 39.45 91.62 28.5 102.57 33.8 107.87 36.49 105.17 34.29 102.97 33.18 104.09 34.9 105.81 33.49 107.2 29.03 102.74 31.9 99.86 33.66 101.62 31.82 103.46 30.61 102.24 31.6 101.25 31.96 101.61 31.33 102.24 31.82 102.74 32.94 101.62 31.9 100.58 29.75 102.74 33.49 106.48 34.17 105.81 32.46 104.09 34.29 102.25 37.21 105.17 33.8 108.59"/><polygon class="cls-5" points="39.45 114.25 36.76 111.55 44.51 103.81 46.36 105.66 39.9 112.12 39.53 111.76 45.64 105.66 44.51 104.53 37.48 111.55 39.45 113.52 50.41 102.57 45.11 97.28 42.41 99.97 44.61 102.17 45.73 101.05 44.01 99.34 45.41 97.94 49.88 102.41 47 105.28 45.24 103.52 47.08 101.68 48.3 102.9 47.31 103.89 46.95 103.53 47.58 102.9 47.08 102.41 45.97 103.52 47 104.56 49.16 102.41 45.41 98.66 44.73 99.34 46.45 101.05 44.61 102.89 41.69 99.97 45.11 96.55 51.13 102.57 39.45 114.25"/><polygon class="cls-5" points="38.73 102.14 36.7 100.11 42.51 94.31 42.87 94.67 37.43 100.11 38.73 101.42 43.15 97.01 42.38 96.24 39.05 99.58 39.18 99.71 41.53 97.37 41.89 97.73 39.18 100.43 38.32 99.58 42.38 95.52 43.87 97.01 38.73 102.14"/><polygon class="cls-4" points="51.36 51.84 -0.12 0.36 51.36 -51.13 102.84 0.36 51.36 51.84"/><polygon class="cls-3" points="51.36 28.22 23.09 -0.05 51.36 -28.32 79.63 -0.05 51.36 28.22"/><circle class="cls-5" cx="51.36" cy="-37.73" r="9.42" transform="translate(39.5 24.89) rotate(-42.97)"/><path class="cls-4" d="M56.85-37.73a5.49,5.49,0,0,1-5.49,5.49,5.49,5.49,0,0,1-5.49-5.49,5.49,5.49,0,0,1,5.49-5.5A5.49,5.49,0,0,1,56.85-37.73Z"/><polygon class="cls-6" points="51.36 -32.24 45.87 -37.73 51.36 -43.23 56.85 -37.73 51.36 -32.24"/><circle class="cls-5" cx="51.36" cy="37.52" r="9.42" transform="translate(-11.8 45.08) rotate(-42.97)"/><path class="cls-4" d="M56.85,37.52A5.49,5.49,0,1,1,51.36,32,5.49,5.49,0,0,1,56.85,37.52Z"/><polygon class="cls-6" points="51.36 43.01 45.87 37.52 51.36 32.03 56.85 37.52 51.36 43.01"/><circle class="cls-5" cx="88.99" cy="-0.11" r="9.42" transform="translate(2.25 19.8) rotate(-12.86)"/><path class="cls-4" d="M89,5.39A5.49,5.49,0,0,1,83.5-.11,5.49,5.49,0,0,1,89-5.6,5.49,5.49,0,0,1,94.48-.11,5.49,5.49,0,0,1,89,5.39Z"/><polygon class="cls-6" points="83.5 -0.11 88.99 -5.6 94.48 -0.11 88.99 5.39 83.5 -0.11"/><circle class="cls-5" cx="13.73" cy="-0.11" r="9.42"/><path class="cls-4" d="M13.73,5.39A5.49,5.49,0,0,1,8.24-.11,5.49,5.49,0,0,1,13.73-5.6a5.49,5.49,0,0,1,5.5,5.49A5.5,5.5,0,0,1,13.73,5.39Z"/><polygon class="cls-6" points="8.24 -0.11 13.73 -5.6 19.23 -0.11 13.73 5.39 8.24 -0.11"/><circle class="cls-5" cx="26.49" cy="-14.1" r="5.74"/><circle class="cls-4" cx="26.49" cy="-14.1" r="3.35"/><polygon class="cls-3" points="23.14 -14.1 26.49 -17.45 29.84 -14.1 26.49 -10.75 23.14 -14.1"/><circle class="cls-5" cx="36.82" cy="-24.43" r="5.74"/><circle class="cls-4" cx="36.82" cy="-24.43" r="3.35"/><polygon class="cls-3" points="33.47 -24.43 36.82 -27.78 40.17 -24.43 36.82 -21.08 33.47 -24.43"/><circle class="cls-5" cx="66.14" cy="25.46" r="5.74"/><circle class="cls-4" cx="66.14" cy="25.46" r="3.35"/><polygon class="cls-3" points="62.79 25.46 66.14 22.11 69.49 25.46 66.14 28.82 62.79 25.46"/><circle class="cls-5" cx="76.47" cy="15.13" r="5.74"/><circle class="cls-4" cx="76.47" cy="15.13" r="3.35"/><polygon class="cls-3" points="73.12 15.13 76.47 11.78 79.82 15.13 76.47 18.48 73.12 15.13"/><circle class="cls-5" cx="66.1" cy="-24.48" r="5.74"/><circle class="cls-4" cx="66.1" cy="-24.48" r="3.35"/><polygon class="cls-3" points="66.1 -27.83 69.45 -24.48 66.1 -21.13 62.75 -24.48 66.1 -27.83"/><circle class="cls-5" cx="76.43" cy="-14.14" r="5.74"/><circle class="cls-4" cx="76.43" cy="-14.14" r="3.35"/><polygon class="cls-3" points="76.43 -17.49 79.78 -14.14 76.43 -10.79 73.08 -14.14 76.43 -17.49"/><circle class="cls-5" cx="26.53" cy="15.17" r="5.74"/><circle class="cls-4" cx="26.53" cy="15.17" r="3.35"/><polygon class="cls-3" points="26.53 11.82 29.88 15.18 26.53 18.52 23.18 15.18 26.53 11.82"/><circle class="cls-5" cx="36.86" cy="25.51" r="5.74"/><circle class="cls-4" cx="36.86" cy="25.51" r="3.35"/><polygon class="cls-3" points="36.86 22.16 40.21 25.51 36.86 28.86 33.51 25.51 36.86 22.16"/><polygon class="cls-5" points="42.34 -9.1 39.65 -11.79 51.32 -23.46 57.34 -17.45 53.92 -14.03 51.01 -16.95 52.84 -18.79 54.56 -17.07 55.23 -17.75 51.49 -21.49 49.34 -19.34 50.37 -18.3 51.49 -19.42 50.99 -19.91 50.36 -19.28 50 -19.64 50.99 -20.64 52.21 -19.42 50.37 -17.58 48.61 -19.34 51.49 -22.21 55.96 -17.75 54.56 -16.35 52.84 -18.06 51.73 -16.95 53.92 -14.75 56.62 -17.45 51.32 -22.74 40.37 -11.79 42.34 -9.82 49.37 -16.84 48.24 -17.97 42.14 -11.87 41.78 -12.23 48.24 -18.7 50.09 -16.84 42.34 -9.1"/><polygon class="cls-5" points="51.32 -0.11 45.3 -6.13 48.72 -9.55 51.64 -6.63 49.8 -4.79 48.09 -6.51 47.41 -5.83 51.16 -2.08 53.31 -4.24 52.27 -5.28 51.16 -4.16 51.66 -3.67 52.29 -4.3 52.65 -3.94 51.66 -2.94 50.44 -4.16 52.27 -6 54.03 -4.24 51.16 -1.36 46.69 -5.83 48.09 -7.23 49.8 -5.51 50.92 -6.63 48.72 -8.83 46.03 -6.13 51.32 -0.84 62.28 -11.79 60.3 -13.76 53.28 -6.73 54.41 -5.61 60.51 -11.71 60.87 -11.35 54.41 -4.88 52.56 -6.73 60.3 -14.48 63 -11.79 51.32 -0.11"/><polygon class="cls-5" points="45.76 -7.37 44.27 -8.86 48.33 -12.92 49.19 -12.06 46.48 -9.35 46.12 -9.71 48.47 -12.06 48.33 -12.2 45 -8.86 45.76 -8.1 50.18 -12.51 48.87 -13.82 43.42 -8.37 43.06 -8.73 48.87 -14.54 50.9 -12.51 45.76 -7.37"/><polygon class="cls-5" points="63.27 11.83 60.58 9.14 68.32 1.39 70.17 3.24 63.71 9.7 63.35 9.34 69.45 3.24 68.32 2.11 61.3 9.14 63.27 11.11 74.22 0.16 68.93 -5.14 66.23 -2.44 68.43 -0.25 69.54 -1.36 67.83 -3.08 69.23 -4.48 73.7 -0.01 70.82 2.87 69.06 1.11 70.9 -0.73 72.12 0.49 71.12 1.48 70.76 1.12 71.39 0.49 70.9 -0.01 69.78 1.11 70.82 2.14 72.97 -0.01 69.23 -3.75 68.55 -3.08 70.27 -1.36 68.43 0.47 65.51 -2.44 68.93 -5.86 74.94 0.16 63.27 11.83"/><polygon class="cls-5" points="57.61 6.17 51.59 0.16 63.27 -11.52 65.96 -8.82 58.21 -1.08 56.36 -2.93 62.83 -9.39 63.19 -9.03 57.09 -2.93 58.21 -1.8 65.24 -8.82 63.27 -10.8 52.32 0.16 57.61 5.45 60.31 2.76 58.11 0.56 57 1.68 58.71 3.39 57.31 4.79 52.84 0.32 55.72 -2.55 57.48 -0.79 55.64 1.04 54.42 -0.17 55.42 -1.17 55.78 -0.81 55.15 -0.17 55.64 0.32 56.76 -0.79 55.72 -1.83 53.56 0.32 57.31 4.07 57.99 3.39 56.27 1.68 58.11 -0.16 61.03 2.76 57.61 6.17"/><polygon class="cls-5" points="60.22 8.42 59.85 8.06 65.3 2.61 63.99 1.3 59.57 5.72 60.34 6.48 63.67 3.15 63.54 3.02 61.19 5.36 60.83 5 63.54 2.29 64.4 3.15 60.34 7.21 58.85 5.72 63.99 0.58 66.02 2.61 60.22 8.42"/><polygon class="cls-5" points="51.43 23.67 45.41 17.65 48.83 14.23 51.75 17.15 49.91 18.99 48.2 17.27 47.52 17.95 51.27 21.7 53.42 19.55 52.38 18.51 51.27 19.62 51.76 20.12 52.4 19.49 52.76 19.85 51.76 20.84 50.55 19.62 52.38 17.78 54.14 19.55 51.27 22.42 46.8 17.95 48.2 16.55 49.91 18.27 51.03 17.15 48.83 14.96 46.14 17.65 51.43 22.95 62.39 11.99 60.41 10.02 53.39 17.05 54.52 18.18 60.62 12.08 60.98 12.44 54.52 18.9 52.67 17.05 60.41 9.3 63.11 11.99 51.43 23.67"/><polygon class="cls-5" points="42.45 14.69 39.76 11.99 51.43 0.32 57.45 6.34 54.03 9.75 51.12 6.83 52.95 5 54.67 6.71 55.34 6.04 51.6 2.29 49.45 4.44 50.48 5.48 51.6 4.37 51.1 3.87 50.47 4.5 50.11 4.14 51.1 3.15 52.32 4.37 50.48 6.2 48.72 4.44 51.6 1.57 56.07 6.04 54.67 7.43 52.95 5.72 51.84 6.83 54.03 9.03 56.73 6.34 51.43 1.04 40.48 11.99 42.45 13.96 49.48 6.94 48.35 5.81 42.25 11.91 41.89 11.55 48.35 5.09 50.2 6.94 42.45 14.69"/><polygon class="cls-5" points="53.89 14.74 51.86 12.71 56.99 7.58 58.48 9.07 54.43 13.12 53.57 12.26 56.28 9.56 56.64 9.92 54.29 12.26 54.43 12.4 57.76 9.07 56.99 8.3 52.58 12.71 53.89 14.02 59.33 8.58 59.69 8.94 53.89 14.74"/><polygon class="cls-5" points="33.8 6.1 27.78 0.08 39.45 -11.59 42.15 -8.9 34.4 -1.15 32.55 -3 39.01 -9.46 39.37 -9.1 33.27 -3 34.4 -1.87 41.42 -8.9 39.45 -10.87 28.5 0.08 33.8 5.38 36.49 2.68 34.29 0.49 33.18 1.6 34.9 3.32 33.49 4.71 29.03 0.25 31.9 -2.63 33.66 -0.87 31.82 0.97 30.61 -0.25 31.6 -1.24 31.96 -0.88 31.33 -0.25 31.82 0.25 32.94 -0.87 31.9 -1.91 29.75 0.25 33.49 3.99 34.17 3.32 32.46 1.6 34.29 -0.24 37.21 2.68 33.8 6.1"/><polygon class="cls-5" points="39.45 11.76 36.76 9.06 44.51 1.31 46.36 3.17 39.9 9.63 39.53 9.27 45.64 3.17 44.51 2.04 37.48 9.06 39.45 11.03 50.41 0.08 45.11 -5.21 42.41 -2.52 44.61 -0.32 45.73 -1.44 44.01 -3.15 45.41 -4.55 49.88 -0.08 47 2.79 45.24 1.03 47.08 -0.81 48.3 0.41 47.31 1.41 46.95 1.04 47.58 0.41 47.08 -0.08 45.97 1.03 47 2.07 49.16 -0.08 45.41 -3.83 44.73 -3.15 46.45 -1.44 44.61 0.4 41.69 -2.52 45.11 -5.94 51.13 0.08 39.45 11.76"/><polygon class="cls-5" points="38.73 -0.34 36.7 -2.38 42.51 -8.18 42.87 -7.82 37.43 -2.38 38.73 -1.07 43.15 -5.48 42.38 -6.25 39.05 -2.91 39.18 -2.78 41.53 -5.12 41.89 -4.76 39.18 -2.06 38.32 -2.91 42.38 -6.97 43.87 -5.48 38.73 -0.34"/></g></pattern></defs><g id="Layer_2" data-name="Layer 2"><g id="PATTERNS"><rect class="cls-8" width="666.67" height="500"/></g></g></svg>