<svg width="85" height="85" viewBox="0 0 85 85" fill="none" xmlns="http://www.w3.org/2000/svg">
<path d="M69.0009 43.5C69.0025 46.7173 68.3701 49.9034 67.1398 52.8762C65.9095 55.849 64.1055 58.5503 61.8308 60.8256C59.5561 63.1008 56.8553 64.9056 53.8828 66.1366C50.9103 67.3676 47.7244 68.0008 44.5071 68V51.6708C46.6343 51.6122 48.6548 50.726 50.1387 49.2006C51.6226 47.6753 52.4528 45.6312 52.4528 43.5031C52.4528 41.375 51.6226 39.3309 50.1387 37.8056C48.6548 36.2802 46.6343 35.394 44.5071 35.3354V19C51.0038 19.0016 57.2339 21.5836 61.8272 26.1781C66.4205 30.7725 69.0009 37.0033 69.0009 43.5Z" fill="white"/>
<path d="M36.3303 19.005H28.1657V27.1696H36.3303V19.005Z" fill="white"/>
<path d="M28.1646 27.1707H20V35.3353H28.1646V27.1707Z" fill="white"/>
<path d="M28.1646 51.6702H20V59.8348H28.1646V51.6702Z" fill="white"/>
<path d="M36.3303 59.8359H28.1657V68.0005H36.3303V59.8359Z" fill="white"/>
<path d="M44.5011 35.3364H28.1657V51.6718H44.5011V35.3364Z" fill="white"/>
<path fill-rule="evenodd" clip-rule="evenodd" d="M51 3H34C16.8792 3 3 16.8792 3 34V51C3 68.1208 16.8792 82 34 82H51C68.1208 82 82 68.1208 82 51V34C82 16.8792 68.1208 3 51 3ZM34 0C15.2223 0 0 15.2223 0 34V51C0 69.7777 15.2223 85 34 85H51C69.7777 85 85 69.7777 85 51V34C85 15.2223 69.7777 0 51 0H34Z" fill="white"/>
</svg>
